<?xml version="1.0" encoding="utf-8"?>
<!-- Generator: Adobe Illustrator 24.2.3, SVG Export Plug-In . SVG Version: 6.00 Build 0)  -->
<svg version="1.1" id="圖層_1" xmlns="http://www.w3.org/2000/svg" xmlns:xlink="http://www.w3.org/1999/xlink" x="0px" y="0px"
	 viewBox="0 0 186.8 32.5" style="enable-background:new 0 0 186.8 32.5;" xml:space="preserve">
<style type="text/css">
	.st0{fill:#FFFFFF;}
</style>
<g>
	<g>
		<path class="st0" d="M1.7,22.2h0.7l-1.7,7.6H0L1.7,22.2z"/>
		<path class="st0" d="M4.4,22.2h0.7L8,28.8l1.4-6.6h0.7l-1.6,7.6H7.7l-2.8-6.6l-1.4,6.6H2.8L4.4,22.2z"/>
		<path class="st0" d="M12,22.2h4.3l-0.1,0.6h-3.5L12,25.5h3.6l-0.1,0.6h-3.6l-0.8,3.6h-0.7L12,22.2z"/>
		<path class="st0" d="M16.8,26.6c0-1.4,0.4-2.5,1.1-3.3c0.8-0.9,1.7-1.3,2.8-1.3c0.9,0,1.7,0.3,2.3,0.9c0.6,0.6,0.8,1.4,0.8,2.4
			c0,1.2-0.4,2.3-1.1,3.2c-0.7,0.9-1.7,1.4-2.9,1.4c-0.7,0-1.3-0.1-1.8-0.4s-0.8-0.7-1-1.2C16.9,27.7,16.8,27.1,16.8,26.6z
			 M17.5,26.6c0,0.8,0.2,1.4,0.7,1.9c0.4,0.5,1,0.7,1.7,0.7c1.1,0,1.9-0.4,2.4-1.3c0.6-0.9,0.9-1.8,0.9-2.8c0-0.7-0.2-1.3-0.7-1.8
			c-0.4-0.5-1-0.7-1.7-0.7s-1.3,0.2-1.8,0.6s-0.9,1-1.1,1.6C17.6,25.6,17.5,26.2,17.5,26.6z"/>
		<path class="st0" d="M26.1,22.2h2.8c1.4,0,2,0.6,2,1.8c0,1.3-0.9,2.1-2.6,2.3c0.3,0.2,0.5,0.4,0.7,0.7c0.2,0.3,0.4,0.5,0.5,0.8
			c0.1,0.2,0.4,0.9,0.8,1.9h-0.8c-0.3-0.9-0.6-1.7-0.9-2.2s-0.5-0.8-0.7-0.9s-0.4-0.2-0.5-0.2s-0.6-0.1-1.5-0.1l-0.7,3.4h-0.7
			L26.1,22.2z M26.7,22.7l-0.6,3l1.9,0.1c0.8,0,1.4-0.1,1.7-0.4c0.4-0.3,0.5-0.7,0.5-1.3c0-0.5-0.1-0.8-0.4-1
			c-0.3-0.2-0.9-0.3-1.7-0.3h-1.4V22.7z"/>
		<path class="st0" d="M33.2,22.2h0.9l1.1,6.7l3.8-6.7h1l-1.6,7.6h-0.7l0.9-4.3l0.6-2.4l-1.3,2.4l-2.5,4.3h-0.7l-0.8-4.6L33.6,23
			l-0.5,2.7l-0.9,4.1h-0.7L33.2,22.2z"/>
		<path class="st0" d="M45.2,27.5h-3.5l-1.4,2.3h-0.7l4.5-7.6h0.7l1.4,7.6h-0.8L45.2,27.5z M45.1,26.9l-0.6-4l-2.4,4H45.1z"/>
		<path class="st0" d="M48.3,22.2h5.4l-0.1,0.6h-2.3l-1.5,7H49l1.5-7h-2.4L48.3,22.2z"/>
		<path class="st0" d="M55.1,22.2h0.7l-1.7,7.6h-0.7L55.1,22.2z"/>
		<path class="st0" d="M56.7,26.6c0-1.4,0.4-2.5,1.1-3.3c0.8-0.9,1.7-1.3,2.8-1.3c0.9,0,1.7,0.3,2.3,0.9c0.6,0.6,0.8,1.4,0.8,2.4
			c0,1.2-0.4,2.3-1.1,3.2c-0.7,0.9-1.7,1.4-2.9,1.4c-0.7,0-1.3-0.1-1.8-0.4s-0.8-0.7-1-1.2C56.8,27.7,56.7,27.1,56.7,26.6z
			 M57.4,26.6c0,0.8,0.2,1.4,0.7,1.9c0.4,0.5,1,0.7,1.7,0.7c1.1,0,1.9-0.4,2.4-1.3c0.6-0.9,0.9-1.8,0.9-2.8c0-0.7-0.2-1.3-0.7-1.8
			c-0.4-0.5-1-0.7-1.7-0.7s-1.3,0.2-1.8,0.6s-0.9,1-1.1,1.6C57.5,25.6,57.4,26.2,57.4,26.6z"/>
		<path class="st0" d="M66,22.2h0.7l2.9,6.6l1.4-6.6h0.7l-1.6,7.6h-0.8l-2.8-6.6l-1.4,6.6h-0.7L66,22.2z"/>
		<path class="st0" d="M77.2,22.2h4.7l-0.1,0.6h-4l-0.6,2.8H81l-0.1,0.6H77l-0.6,3h4.3l-0.1,0.6h-5.1L77.2,22.2z"/>
		<path class="st0" d="M83.6,22.2h2.8c1.4,0,2,0.6,2,1.8c0,1.3-0.9,2.1-2.6,2.3c0.3,0.2,0.5,0.4,0.7,0.7c0.2,0.3,0.4,0.5,0.5,0.8
			c0.1,0.2,0.4,0.9,0.8,1.9H87c-0.3-0.9-0.6-1.7-0.9-2.2s-0.5-0.8-0.7-0.9s-0.4-0.2-0.5-0.2s-0.6-0.1-1.5-0.1l-0.7,3.4H82L83.6,22.2
			z M84.2,22.7l-0.6,3l1.9,0.1c0.8,0,1.4-0.1,1.7-0.4c0.4-0.3,0.5-0.7,0.5-1.3c0-0.5-0.1-0.8-0.4-1s-0.9-0.3-1.7-0.3h-1.4V22.7z"/>
		<path class="st0" d="M90.7,22.2h2.8c1.4,0,2,0.6,2,1.8c0,1.3-0.9,2.1-2.6,2.3c0.3,0.2,0.5,0.4,0.7,0.7c0.2,0.3,0.4,0.5,0.5,0.8
			c0.1,0.2,0.4,0.9,0.8,1.9h-0.8c-0.3-0.9-0.6-1.7-0.9-2.2s-0.5-0.8-0.7-0.9s-0.4-0.2-0.5-0.2s-0.6-0.1-1.5-0.1l-0.7,3.4h-0.7
			L90.7,22.2z M91.3,22.7l-0.6,3l1.9,0.1c0.8,0,1.4-0.1,1.7-0.4c0.4-0.3,0.5-0.7,0.5-1.3c0-0.5-0.1-0.8-0.4-1s-0.9-0.3-1.7-0.3h-1.4
			V22.7z"/>
		<path class="st0" d="M96.6,26.6c0-1.4,0.4-2.5,1.1-3.3c0.8-0.9,1.7-1.3,2.8-1.3c0.9,0,1.7,0.3,2.3,0.9c0.6,0.6,0.8,1.4,0.8,2.4
			c0,1.2-0.4,2.3-1.1,3.2c-0.7,0.9-1.7,1.4-2.9,1.4c-0.7,0-1.3-0.1-1.8-0.4s-0.8-0.7-1-1.2C96.7,27.7,96.6,27.1,96.6,26.6z
			 M97.3,26.6c0,0.8,0.2,1.4,0.7,1.9c0.4,0.5,1,0.7,1.7,0.7c1.1,0,1.9-0.4,2.4-1.3c0.6-0.9,0.9-1.8,0.9-2.8c0-0.7-0.2-1.3-0.7-1.8
			c-0.4-0.5-1-0.7-1.7-0.7s-1.3,0.2-1.8,0.6s-0.9,1-1.1,1.6C97.4,25.6,97.3,26.2,97.3,26.6z"/>
		<path class="st0" d="M106,22.2h2.8c1.4,0,2,0.6,2,1.8c0,1.3-0.9,2.1-2.6,2.3c0.3,0.2,0.5,0.4,0.7,0.7c0.2,0.3,0.4,0.5,0.5,0.8
			c0.1,0.2,0.4,0.9,0.8,1.9h-0.8c-0.3-0.9-0.6-1.7-0.9-2.2s-0.5-0.8-0.7-0.9s-0.4-0.2-0.5-0.2s-0.6-0.1-1.5-0.1l-0.7,3.4h-0.7
			L106,22.2z M106.5,22.7l-0.6,3l1.9,0.1c0.8,0,1.4-0.1,1.7-0.4c0.4-0.3,0.5-0.7,0.5-1.3c0-0.5-0.1-0.8-0.4-1s-0.9-0.3-1.7-0.3h-1.4
			V22.7z"/>
		<path class="st0" d="M116.5,22.2h4.3l-0.1,0.6h-3.5l-0.6,2.8h3.6l-0.1,0.6h-3.6l-0.8,3.6H115L116.5,22.2z"/>
		<path class="st0" d="M122.6,22.2h0.7l-1.7,7.6H121L122.6,22.2z"/>
		<path class="st0" d="M125.3,22.2h0.7l2.9,6.6l1.4-6.6h0.7l-1.6,7.6h-0.8l-2.8-6.6l-1.4,6.6h-0.7L125.3,22.2z"/>
		<path class="st0" d="M133,22.2h2.2c0.6,0,1.1,0.1,1.6,0.2c0.4,0.1,0.8,0.5,1.1,1s0.5,1.1,0.5,1.9c0,1.2-0.4,2.3-1.1,3.1
			s-1.8,1.3-3.1,1.3h-2.7L133,22.2z M133.6,22.8l-1.4,6.3h1.8c1.2,0,2.1-0.4,2.7-1.2c0.6-0.8,0.9-1.7,0.9-2.8c0-0.8-0.2-1.4-0.6-1.8
			c-0.4-0.4-1-0.6-2-0.6h-1.4V22.8z"/>
		<path class="st0" d="M140.6,22.2h4.7l-0.1,0.6h-4l-0.6,2.8h3.8l-0.1,0.6h-3.9l-0.6,3h4.3l-0.1,0.6h-5L140.6,22.2z"/>
		<path class="st0" d="M147.1,22.2h2.8c1.4,0,2,0.6,2,1.8c0,1.3-0.9,2.1-2.6,2.3c0.3,0.2,0.5,0.4,0.7,0.7c0.2,0.3,0.4,0.5,0.5,0.8
			c0.1,0.2,0.4,0.9,0.8,1.9h-0.8c-0.3-0.9-0.6-1.7-0.9-2.2c-0.3-0.5-0.5-0.8-0.7-0.9s-0.4-0.2-0.5-0.2s-0.6-0.1-1.5-0.1l-0.7,3.4
			h-0.7L147.1,22.2z M147.6,22.7l-0.6,3l1.9,0.1c0.8,0,1.4-0.1,1.7-0.4c0.4-0.3,0.5-0.7,0.5-1.3c0-0.5-0.1-0.8-0.4-1
			c-0.3-0.2-0.9-0.3-1.7-0.3h-1.4V22.7z"/>
	</g>
	<g>
		<path class="st0" d="M1.9,0.7h4.2c0.3,0,0.6,0.1,0.9,0.2C7.3,1,7.5,1.2,7.8,1.4C8,1.6,8.2,1.9,8.3,2.1c0.1,0.3,0.2,0.5,0.2,0.8
			c0,0.2,0,0.3-0.1,0.4c0,0.1-0.1,0.2-0.2,0.3C8.1,3.7,8,3.8,7.9,3.8s-0.2,0-0.4,0c-0.1,0-0.2,0-0.3,0S7.1,3.7,7,3.7
			c0,0-0.1-0.1-0.1-0.2C6.8,3.4,6.8,3.3,6.8,3.1L6.7,2.9c0-0.1,0-0.1-0.1-0.2c0-0.1-0.1-0.1-0.1-0.2c-0.1,0-0.1-0.1-0.2-0.1
			c-0.1,0-0.1,0-0.2,0H1.9c-0.1,0-0.1,0-0.2,0.1c0,0-0.1,0.1-0.1,0.2v0.1c0,0,0,0,0,0.1l6.2,7.9c0.2,0.3,0.4,0.5,0.4,0.7
			c0.1,0.2,0.1,0.4,0.1,0.6c0,0.2-0.1,0.5-0.1,0.7C8.1,13,8,13.2,7.9,13.4c-0.2,0.2-0.4,0.4-0.7,0.5C7,14,6.7,14.1,6.4,14.1H2.3
			c-0.3,0-0.6-0.1-0.9-0.2c-0.3-0.1-0.5-0.3-0.8-0.6c-0.2-0.2-0.4-0.4-0.5-0.7C0.1,12.3,0,12,0,11.7c0-0.2,0-0.3,0.1-0.4
			c0.1-0.1,0.1-0.2,0.2-0.3c0.1,0,0.1-0.1,0.2-0.1c0.1,0,0.2,0,0.3,0s0.2,0,0.4,0.1c0.1,0,0.2,0.1,0.3,0.2c0,0,0.1,0.1,0.1,0.2
			c0,0.1,0.1,0.2,0.1,0.4v0.1c0,0.2,0.1,0.3,0.2,0.4c0.1,0.1,0.2,0.1,0.3,0.1h4.2h0.1c0,0,0.1,0,0.1-0.1l0,0c0,0,0,0,0-0.1v-0.1V12
			L0.5,4C0.3,3.7,0.2,3.5,0.1,3.3C0,3.1,0,2.8,0,2.6c0-0.3,0-0.5,0.1-0.8c0.1-0.2,0.2-0.4,0.4-0.6C0.8,1.1,1,0.9,1.2,0.8
			S1.7,0.7,1.9,0.7z"/>
		<path class="st0" d="M16.4,4.3H20c0.1,0,0.2,0,0.3,0.1c0.1,0,0.2,0.1,0.3,0.2c0,0.1,0.1,0.2,0.1,0.3c0,0.1,0.1,0.2,0.1,0.3
			c0,0.1,0,0.2-0.1,0.3c0,0.1-0.1,0.2-0.1,0.2c-0.1,0.1-0.2,0.2-0.3,0.2C20.2,6,20.1,6,20,6h-3.6c-0.1,0-0.2,0-0.3,0.1
			c-0.1,0-0.2,0.1-0.3,0.2l-1.5,1.3c-0.1,0.1-0.1,0.2-0.2,0.3C14.1,8,14,8.1,14,8.2v1.9c0,0.1,0,0.2,0,0.3s0.1,0.2,0.2,0.2l1.5,1.3
			c0.1,0.1,0.2,0.1,0.3,0.2c0.1,0,0.2,0.1,0.3,0.1H20c0.1,0,0.2,0,0.3,0.1c0.1,0,0.2,0.1,0.3,0.2c0,0.1,0.1,0.2,0.1,0.3
			s0.1,0.2,0.1,0.3s0,0.2-0.1,0.3c0,0.1-0.1,0.2-0.1,0.2c-0.1,0.1-0.2,0.2-0.3,0.2c-0.1,0-0.2,0.1-0.3,0.1h-3.6
			c-0.3,0-0.6,0-0.9-0.2c-0.3-0.1-0.6-0.2-0.7-0.4l-1.5-1.4c-0.3-0.2-0.5-0.5-0.7-0.9c-0.2-0.3-0.2-0.7-0.2-1.1V8.2
			c0-0.3,0.1-0.7,0.2-1c0.2-0.3,0.4-0.6,0.7-0.9L14.8,5c0.2-0.2,0.5-0.4,0.8-0.5C15.8,4.3,16.1,4.3,16.4,4.3z"/>
		<path class="st0" d="M32.9,6.8l0.2,6.1v0.2c0,0.1,0,0.2-0.1,0.3s-0.1,0.2-0.2,0.3c-0.1,0.1-0.2,0.1-0.3,0.1s-0.2,0-0.3,0
			s-0.2,0-0.3,0s-0.2-0.1-0.2-0.1c-0.1-0.1-0.2-0.2-0.2-0.3s-0.1-0.2-0.1-0.4l-1,0.6c-0.1,0.1-0.3,0.1-0.4,0.2c-0.1,0-0.2,0-0.4,0
			h-2.4c-0.4,0-0.7-0.1-1-0.2c-0.3-0.1-0.6-0.3-0.8-0.6c-0.2-0.2-0.4-0.5-0.5-0.8s-0.2-0.6-0.2-0.9v-1c0-0.4,0.1-0.7,0.2-1
			s0.3-0.6,0.6-0.8C25.7,8.3,26,8.1,26.3,8s0.6-0.2,0.9-0.2h3.3c0.1,0,0.3,0,0.4,0.1C31,7.9,31.1,8,31.3,8l-0.1-1.2
			c0-0.2-0.1-0.4-0.3-0.6S30.5,6,30.3,6h-3.2c-0.1,0-0.2,0-0.4-0.1c-0.1-0.1-0.2-0.1-0.3-0.2c-0.1-0.1-0.1-0.1-0.1-0.2s0-0.2,0-0.3
			c0-0.1,0-0.2,0-0.3c0-0.1,0.1-0.2,0.1-0.3c0.1-0.1,0.2-0.2,0.3-0.2c0.2-0.1,0.3-0.1,0.4-0.1h3.2c0.7,0,1.3,0.3,1.8,0.8
			C32.6,5.5,32.8,6.1,32.9,6.8z M31.3,11.2v-0.8c0-0.2-0.1-0.4-0.3-0.6c-0.2-0.2-0.3-0.2-0.6-0.2h-3.2c-0.1,0-0.3,0-0.4,0.1
			c-0.1,0-0.2,0.1-0.3,0.2c-0.1,0.1-0.2,0.2-0.2,0.3s-0.1,0.2-0.1,0.3v1c0,0.1,0,0.2,0.1,0.3c0,0.1,0.1,0.2,0.2,0.3s0.2,0.1,0.3,0.2
			c0.1,0,0.2,0.1,0.3,0.1h2.3L31.3,11.2z"/>
		<path class="st0" d="M38.7,7.8v5.4c0,0.1,0,0.2-0.1,0.3s-0.1,0.2-0.2,0.3c-0.1,0.1-0.2,0.1-0.3,0.1s-0.2,0-0.3,0s-0.2,0-0.3,0
			s-0.2-0.1-0.2-0.1c-0.1-0.1-0.2-0.2-0.2-0.3C37,13.4,37,13.3,37,13.2V5.1c0-0.1,0-0.2,0.1-0.3c0-0.1,0.1-0.2,0.2-0.3
			c0.1-0.1,0.1-0.1,0.2-0.1c0.1,0,0.2,0,0.3,0s0.2,0,0.3,0.1c0.1,0,0.2,0.1,0.3,0.1c0.1,0.1,0.2,0.2,0.2,0.3
			c0.1,0.1,0.1,0.2,0.1,0.3v0.7l1.1-0.7c0.5-0.3,0.9-0.5,1.1-0.6c0.3-0.3,0.6-0.3,0.9-0.3h0.8c0.4,0,0.8,0.1,1.1,0.2
			s0.6,0.3,0.9,0.6C44.8,5.4,45,5.7,45.1,6s0.2,0.8,0.2,1.5l0.2,5.5v0.1c0,0.1,0,0.2-0.1,0.3s-0.1,0.2-0.2,0.3
			c-0.1,0.1-0.2,0.1-0.3,0.1s-0.2,0-0.3,0s-0.2,0-0.3,0s-0.2-0.1-0.2-0.1c-0.1-0.1-0.2-0.2-0.2-0.3s-0.1-0.2-0.1-0.4l-0.2-5.7
			c0-0.3-0.1-0.5-0.1-0.7c-0.1-0.2-0.1-0.3-0.2-0.5C43.2,6,43.1,5.9,43,5.9c-0.1-0.1-0.3-0.1-0.4-0.1h-0.5c-0.1,0-0.2,0-0.3,0.1
			c-0.1,0-0.2,0.1-0.3,0.1s-0.2,0.1-0.3,0.1S41,6.2,40.9,6.3L38.7,7.8z"/>
		<path class="st0" d="M51,7.8v5.4c0,0.1,0,0.2-0.1,0.3s-0.1,0.2-0.2,0.3c-0.1,0.1-0.2,0.1-0.3,0.1s-0.2,0-0.3,0s-0.2,0-0.3,0
			s-0.2-0.1-0.2-0.1c-0.1-0.1-0.2-0.2-0.2-0.3c-0.1-0.1-0.1-0.2-0.1-0.3V5.1c0-0.1,0-0.2,0.1-0.3c0.1-0.1,0.1-0.2,0.2-0.3
			c0.1-0.1,0.1-0.1,0.2-0.1c0.1,0,0.2,0,0.3,0s0.2,0,0.3,0.1c0.1,0,0.2,0.1,0.3,0.1c0.1,0.1,0.2,0.2,0.2,0.3C51,4.9,51,5,51,5.1v0.7
			l1.1-0.7c0.5-0.3,0.9-0.5,1.1-0.6c0.3-0.2,0.6-0.2,0.9-0.2h0.8c0.4,0,0.8,0.1,1.1,0.2s0.6,0.3,0.9,0.6c0.2,0.3,0.4,0.6,0.5,0.9
			s0.2,0.8,0.2,1.5l0.2,5.5v0.1c0,0.1,0,0.2-0.1,0.3s-0.1,0.2-0.2,0.3c-0.1,0.1-0.2,0.1-0.3,0.1s-0.2,0-0.3,0s-0.2,0-0.3,0
			s-0.2-0.1-0.2-0.1c-0.1-0.1-0.2-0.2-0.2-0.3s-0.1-0.2-0.1-0.4l-0.2-5.7c0-0.3-0.1-0.5-0.1-0.7c-0.1-0.2-0.1-0.3-0.2-0.5
			c-0.1-0.1-0.2-0.2-0.3-0.2c-0.1-0.1-0.3-0.1-0.4-0.1h-0.6c-0.1,0-0.2,0-0.3,0.1c-0.1,0-0.2,0.1-0.3,0.1s-0.2,0.1-0.3,0.1
			s-0.2,0.1-0.3,0.2L51,7.8z"/>
		<path class="st0" d="M65.3,6h-1.7c-0.1,0-0.2,0-0.4-0.1c-0.1,0-0.2-0.1-0.2-0.2c-0.1-0.1-0.1-0.1-0.1-0.2s0-0.2,0-0.3
			c0-0.1,0-0.2,0-0.3c0-0.1,0.1-0.2,0.1-0.3c0.1-0.1,0.2-0.2,0.3-0.2c0.1-0.1,0.2-0.1,0.3-0.1h2.5c0.3,0,0.5,0.1,0.7,0.3
			C66.9,4.7,67,4.9,67,5.2v7.1h1.7c0.1,0,0.2,0,0.3,0.1c0.1,0,0.2,0.1,0.3,0.2c0.1,0.1,0.1,0.2,0.1,0.3s0,0.2,0,0.3s0,0.2,0,0.3
			s-0.1,0.2-0.1,0.2c-0.1,0.1-0.2,0.2-0.3,0.2c-0.1,0-0.2,0.1-0.3,0.1h-5.2c-0.1,0-0.2,0-0.4-0.1c-0.1-0.1-0.2-0.1-0.3-0.2
			c-0.1-0.1-0.1-0.1-0.1-0.2c0-0.1,0-0.2,0-0.3s0-0.2,0-0.3s0.1-0.2,0.1-0.3c0.1-0.1,0.2-0.2,0.3-0.2c0.1-0.1,0.2-0.1,0.4-0.1h1.7V6
			H65.3z M65.4,0h0.8c0.2,0,0.4,0.1,0.5,0.3C66.9,0.4,67,0.6,67,0.8v0.7c0,0.3-0.1,0.5-0.3,0.6c-0.2,0.2-0.4,0.2-0.7,0.2h-0.7
			c-0.3,0-0.5-0.1-0.7-0.2c-0.2-0.2-0.3-0.4-0.3-0.6V0.8c0-0.2,0.1-0.4,0.3-0.6C64.9,0.1,65.2,0,65.4,0z"/>
		<path class="st0" d="M75.6,7.8v5.4c0,0.1,0,0.2-0.1,0.3s-0.1,0.2-0.2,0.3s-0.2,0.1-0.3,0.1c-0.1,0-0.2,0-0.3,0c-0.1,0-0.2,0-0.3,0
			c-0.1,0-0.2-0.1-0.2-0.1c-0.1-0.1-0.2-0.2-0.2-0.3c-0.1-0.1-0.1-0.2-0.1-0.3V5.1c0-0.1,0-0.2,0.1-0.3c0.1-0.1,0.1-0.2,0.2-0.3
			c0.1-0.1,0.1-0.1,0.2-0.1s0.2,0,0.3,0c0.1,0,0.2,0,0.3,0.1c0.1,0,0.2,0.1,0.3,0.1c0.1,0.1,0.2,0.2,0.2,0.3
			c0.1,0.1,0.1,0.2,0.1,0.3v0.7l1.1-0.7c0.5-0.3,0.9-0.5,1.1-0.6c0.3-0.3,0.6-0.3,0.9-0.3h0.8c0.4,0,0.8,0.1,1.1,0.2
			c0.3,0.1,0.6,0.3,0.9,0.6C81.7,5.4,81.9,5.7,82,6c0,0.3,0.1,0.8,0.1,1.5l0.2,5.5v0.1c0,0.1,0,0.2-0.1,0.3s-0.1,0.2-0.2,0.3
			s-0.2,0.1-0.3,0.1c-0.1,0-0.2,0-0.3,0c-0.1,0-0.2,0-0.3,0c-0.1,0-0.2-0.1-0.2-0.1c-0.1-0.1-0.2-0.2-0.2-0.3
			c-0.1-0.1-0.1-0.2-0.1-0.4l-0.2-5.7c0-0.3-0.1-0.5-0.1-0.7c-0.1-0.2-0.1-0.3-0.2-0.5C80,6,79.9,5.9,79.8,5.9
			c-0.1-0.1-0.3-0.1-0.4-0.1h-0.5c-0.1,0-0.2,0-0.3,0.1c-0.1,0-0.2,0.1-0.3,0.1c-0.1,0-0.2,0.1-0.3,0.1c-0.1,0-0.2,0.1-0.3,0.2
			L75.6,7.8z"/>
		<path class="st0" d="M94.5,5.1v9.3c0,0.3-0.1,0.7-0.2,1c-0.2,0.3-0.4,0.6-0.7,0.9l-0.8,0.6c-0.2,0.2-0.5,0.3-0.8,0.4
			s-0.6,0.1-0.8,0.1h-3.5c-0.1,0-0.2,0-0.4-0.1c-0.1-0.1-0.2-0.1-0.3-0.2c-0.1-0.1-0.1-0.2-0.1-0.3c0-0.1,0-0.2,0-0.3
			c0-0.1,0-0.2,0-0.3c0-0.1,0.1-0.2,0.1-0.2c0.1-0.1,0.2-0.2,0.3-0.2c0.1-0.1,0.2-0.1,0.4-0.1h3.5c0.1,0,0.2,0,0.3-0.1
			c0.1,0,0.2-0.1,0.2-0.1l0.7-0.6c0.1-0.1,0.1-0.2,0.2-0.3c0-0.1,0.1-0.2,0.1-0.3v-1.6l-0.6,0.5c-0.2,0.2-0.5,0.3-0.7,0.4
			c-0.3,0.1-0.6,0.2-0.9,0.2h-1.3c-0.3,0-0.6,0-0.9-0.1s-0.5-0.2-0.8-0.4L87,12.9c-0.3-0.2-0.5-0.5-0.7-0.8c-0.2-0.4-0.3-0.7-0.3-1
			V7.3c0-0.2,0-0.4,0.1-0.6c0-0.2,0.1-0.4,0.2-0.5c0.1-0.2,0.2-0.3,0.3-0.4c0.2-0.2,0.3-0.4,0.4-0.5l0.6-0.4
			c0.3-0.2,0.6-0.4,0.8-0.5c0.3-0.1,0.5-0.1,0.9-0.1h1.3c0.3,0,0.6,0.1,0.9,0.2s0.5,0.3,0.8,0.4L93,5.5V5.1c0-0.1,0-0.2,0.1-0.3
			c0.1-0.1,0.1-0.2,0.2-0.3c0.1-0.1,0.1-0.1,0.2-0.1s0.2,0,0.3,0c0.1,0,0.2,0,0.3,0c0.1,0,0.2,0.1,0.3,0.1c0.1,0.1,0.2,0.2,0.2,0.3
			C94.5,4.9,94.5,5,94.5,5.1z M92.8,10.2V8c0-0.1,0-0.2-0.1-0.3c0-0.1-0.1-0.2-0.2-0.3L91,6.2C90.9,6.1,90.8,6,90.7,6
			c-0.1,0-0.2-0.1-0.3-0.1h-1.3c-0.1,0-0.2,0-0.3,0.1c-0.1,0-0.2,0.1-0.3,0.2L88,6.7c-0.1,0.1-0.2,0.2-0.2,0.3c0,0.1-0.1,0.2,0,0.3
			V11c0,0.1,0,0.2,0.1,0.3c0,0.1,0.1,0.2,0.2,0.3l0.6,0.4c0.1,0.1,0.2,0.2,0.3,0.2c0.1,0,0.2,0,0.3,0h1.3c0.1,0,0.2,0,0.2,0
			c0.1,0,0.2-0.1,0.3-0.2l1.5-1.2c0.1,0,0.1-0.1,0.2-0.3C92.8,10.5,92.8,10.3,92.8,10.2z"/>
		<path class="st0" d="M99.8,11.8h1.2c0.2,0,0.3,0.1,0.4,0.2c0.1,0.1,0.2,0.3,0.2,0.5v0.9c0,0.2-0.1,0.4-0.2,0.5s-0.3,0.2-0.4,0.2
			h-1.2c-0.2,0-0.3-0.1-0.4-0.2c-0.1-0.1-0.2-0.3-0.2-0.5v-0.9c0-0.2,0.1-0.4,0.2-0.5C99.5,11.9,99.7,11.8,99.8,11.8z"/>
		<path class="st0" d="M104.4,11.8h1.2c0.2,0,0.3,0.1,0.4,0.2c0.1,0.1,0.2,0.3,0.2,0.5v0.9c0,0.2-0.1,0.4-0.2,0.5s-0.3,0.2-0.4,0.2
			h-1.2c-0.2,0-0.3-0.1-0.4-0.2c-0.1-0.1-0.2-0.3-0.2-0.5v-0.9c0-0.2,0.1-0.4,0.2-0.5C104,11.9,104.2,11.8,104.4,11.8z"/>
		<path class="st0" d="M108.9,11.8h1.2c0.2,0,0.3,0.1,0.4,0.2c0.1,0.1,0.2,0.3,0.2,0.5v0.9c0,0.2-0.1,0.4-0.2,0.5s-0.3,0.2-0.4,0.2
			h-1.2c-0.2,0-0.3-0.1-0.5-0.2c-0.1-0.1-0.2-0.3-0.2-0.5v-0.9c0-0.2,0.1-0.4,0.2-0.5C108.6,11.9,108.7,11.8,108.9,11.8z"/>
	</g>
	<g>
		<rect y="19.5" class="st0" width="186.8" height="0.6"/>
	</g>
	<g>
		<rect y="31.9" class="st0" width="186.8" height="0.6"/>
	</g>
</g>
</svg>
