<?xml version="1.0" encoding="utf-8"?>
<!-- Generator: Adobe Illustrator 24.2.1, SVG Export Plug-In . SVG Version: 6.00 Build 0)  -->
<svg version="1.1" id="header" xmlns="http://www.w3.org/2000/svg" xmlns:xlink="http://www.w3.org/1999/xlink" x="0px" y="0px"
	 viewBox="0 0 55.7 142.1" style="enable-background:new 0 0 55.7 142.1;" xml:space="preserve">
<style type="text/css">
	.st0{fill:#C1E5DB;}
</style>
<g>
	<polygon class="st0" points="4.5,9.2 2.4,9.6 2.4,6.2 4.5,5.8 	"/>
	<polygon class="st0" points="6.9,8.7 4.8,9.1 4.8,5.7 6.9,5.3 	"/>
	<polygon class="st0" points="9.3,8.2 7.2,8.6 7.2,5.3 9.3,4.9 	"/>
	<polygon class="st0" points="11.7,7.8 9.6,8.2 9.6,4.8 11.7,4.4 	"/>
	<polygon class="st0" points="14.1,7.3 12,7.7 12,4.3 14.1,3.9 	"/>
	<polygon class="st0" points="16.6,6.8 14.5,7.2 14.5,3.8 16.6,3.4 	"/>
	<polygon class="st0" points="19.1,6.4 16.9,6.8 16.9,3.4 19.1,2.9 	"/>
	<polygon class="st0" points="21.6,5.9 19.4,6.3 19.4,2.9 21.6,2.5 	"/>
	<polygon class="st0" points="24.1,5.4 21.9,5.8 21.9,2.4 24.1,2 	"/>
	<polygon class="st0" points="26.6,4.9 24.4,5.4 24.4,1.9 26.6,1.5 	"/>
	<polygon class="st0" points="29.1,4.5 26.9,4.9 26.9,1.4 29.1,1 	"/>
	<polygon class="st0" points="31.7,4 29.4,4.4 29.4,0.9 31.7,0.5 	"/>
	<polygon class="st0" points="34.2,3.5 32,3.9 32,0.4 34.2,0 	"/>
	<polygon class="st0" points="2.1,17.4 0,17.8 0,14.5 2.1,14.1 	"/>
	<polygon class="st0" points="4.5,17 2.4,17.4 2.4,14 4.5,13.6 	"/>
	<polygon class="st0" points="6.9,16.6 4.8,16.9 4.8,13.6 6.9,13.2 	"/>
	<polygon class="st0" points="9.3,16.1 7.2,16.5 7.2,13.1 9.3,12.7 	"/>
	<polygon class="st0" points="11.7,15.7 9.6,16.1 9.6,12.7 11.7,12.3 	"/>
	<polygon class="st0" points="16.6,14.8 14.5,15.2 14.5,11.8 16.6,11.4 	"/>
	<polygon class="st0" points="19.1,14.3 16.9,14.7 16.9,11.3 19.1,10.9 	"/>
	<polygon class="st0" points="21.6,13.9 19.4,14.3 19.4,10.9 21.6,10.5 	"/>
	<polygon class="st0" points="24.1,13.4 21.9,13.8 21.9,10.4 24.1,10 	"/>
	<polygon class="st0" points="26.6,13 24.4,13.4 24.4,9.9 26.6,9.5 	"/>
	<polygon class="st0" points="31.7,12.1 29.4,12.5 29.4,9 31.7,8.6 	"/>
	<polygon class="st0" points="34.2,11.6 32,12 32,8.5 34.2,8.1 	"/>
	<polygon class="st0" points="2.1,25.3 0,25.6 0,22.3 2.1,21.9 	"/>
	<polygon class="st0" points="4.5,24.8 2.4,25.2 2.4,21.8 4.5,21.5 	"/>
	<polygon class="st0" points="6.9,24.4 4.8,24.8 4.8,21.4 6.9,21.1 	"/>
	<polygon class="st0" points="9.3,24 7.2,24.4 7.2,21 9.3,20.6 	"/>
	<polygon class="st0" points="11.7,23.6 9.6,24 9.6,20.6 11.7,20.2 	"/>
	<polygon class="st0" points="14.1,23.2 12,23.5 12,20.1 14.1,19.8 	"/>
	<polygon class="st0" points="16.6,22.7 14.5,23.1 14.5,19.7 16.6,19.3 	"/>
	<polygon class="st0" points="19.1,22.3 16.9,22.7 16.9,19.3 19.1,18.9 	"/>
	<polygon class="st0" points="21.6,21.9 19.4,22.3 19.4,18.8 21.6,18.5 	"/>
	<polygon class="st0" points="24.1,21.5 21.9,21.8 21.9,18.4 24.1,18 	"/>
	<polygon class="st0" points="26.6,21 24.4,21.4 24.4,18 26.6,17.6 	"/>
	<polygon class="st0" points="29.1,20.6 26.9,21 26.9,17.5 29.1,17.1 	"/>
	<polygon class="st0" points="34.2,19.7 32,20.1 32,16.6 34.2,16.2 	"/>
	<polygon class="st0" points="2.1,33.1 0,33.4 0,30.1 2.1,29.7 	"/>
	<polygon class="st0" points="4.5,32.7 2.4,33 2.4,29.7 4.5,29.3 	"/>
	<polygon class="st0" points="6.9,32.3 4.8,32.6 4.8,29.3 6.9,28.9 	"/>
	<polygon class="st0" points="11.7,31.5 9.6,31.8 9.6,28.5 11.7,28.1 	"/>
	<polygon class="st0" points="14.1,31.1 12,31.4 12,28.1 14.1,27.7 	"/>
	<polygon class="st0" points="16.6,30.7 14.5,31 14.5,27.6 16.6,27.3 	"/>
	<polygon class="st0" points="19.1,30.3 16.9,30.6 16.9,27.2 19.1,26.9 	"/>
	<polygon class="st0" points="21.6,29.9 19.4,30.2 19.4,26.8 21.6,26.5 	"/>
	<polygon class="st0" points="24.1,29.5 21.9,29.8 21.9,26.4 24.1,26 	"/>
	<polygon class="st0" points="26.6,29.1 24.4,29.4 24.4,26 26.6,25.6 	"/>
	<polygon class="st0" points="29.1,28.7 26.9,29 26.9,25.6 29.1,25.2 	"/>
	<polygon class="st0" points="31.7,28.2 29.4,28.6 29.4,25.1 31.7,24.8 	"/>
	<polygon class="st0" points="34.2,27.8 32,28.2 32,24.7 34.2,24.3 	"/>
	<polygon class="st0" points="4.5,40.5 2.4,40.8 2.4,37.5 4.5,37.2 	"/>
	<polygon class="st0" points="6.9,40.2 4.8,40.5 4.8,37.1 6.9,36.8 	"/>
	<polygon class="st0" points="9.3,39.8 7.2,40.1 7.2,36.7 9.3,36.4 	"/>
	<polygon class="st0" points="14.1,39 12,39.4 12,36 14.1,35.6 	"/>
	<polygon class="st0" points="16.6,38.7 14.5,39 14.5,35.6 16.6,35.2 	"/>
	<polygon class="st0" points="19.1,38.3 16.9,38.6 16.9,35.2 19.1,34.9 	"/>
	<polygon class="st0" points="21.6,37.9 19.4,38.2 19.4,34.8 21.6,34.5 	"/>
	<polygon class="st0" points="26.6,37.1 24.4,37.5 24.4,34 26.6,33.7 	"/>
	<polygon class="st0" points="29.1,36.7 26.9,37.1 26.9,33.6 29.1,33.3 	"/>
	<polygon class="st0" points="31.7,36.3 29.4,36.7 29.4,33.2 31.7,32.9 	"/>
	<polygon class="st0" points="34.2,35.9 32,36.3 32,32.8 34.2,32.5 	"/>
	<polygon class="st0" points="2.1,48.7 0,49 0,45.7 2.1,45.4 	"/>
	<polygon class="st0" points="4.5,48.4 2.4,48.7 2.4,45.3 4.5,45 	"/>
	<polygon class="st0" points="9.3,47.7 7.2,48 7.2,44.6 9.3,44.3 	"/>
	<polygon class="st0" points="14.1,47 12,47.3 12,43.9 14.1,43.6 	"/>
	<polygon class="st0" points="16.6,46.6 14.5,46.9 14.5,43.5 16.6,43.2 	"/>
	<polygon class="st0" points="21.6,45.9 19.4,46.2 19.4,42.8 21.6,42.5 	"/>
	<polygon class="st0" points="24.1,45.5 21.9,45.8 21.9,42.4 24.1,42.1 	"/>
	<polygon class="st0" points="26.6,45.2 24.4,45.5 24.4,42 26.6,41.7 	"/>
	<polygon class="st0" points="29.1,44.8 26.9,45.1 26.9,41.7 29.1,41.3 	"/>
	<polygon class="st0" points="34.2,44.1 32,44.4 32,40.9 34.2,40.6 	"/>
	<polygon class="st0" points="2.1,56.5 0,56.8 0,53.5 2.1,53.2 	"/>
	<polygon class="st0" points="4.5,56.2 2.4,56.5 2.4,53.1 4.5,52.8 	"/>
	<polygon class="st0" points="6.9,55.9 4.8,56.2 4.8,52.8 6.9,52.5 	"/>
	<polygon class="st0" points="11.7,55.2 9.6,55.5 9.6,52.1 11.7,51.8 	"/>
	<polygon class="st0" points="14.1,54.9 12,55.2 12,51.8 14.1,51.5 	"/>
	<polygon class="st0" points="21.6,53.9 19.4,54.2 19.4,50.8 21.6,50.5 	"/>
	<polygon class="st0" points="29.1,52.9 26.9,53.2 26.9,49.7 29.1,49.4 	"/>
	<polygon class="st0" points="34.2,52.2 32,52.5 32,49 34.2,48.7 	"/>
	<polygon class="st0" points="2.1,64.3 0,64.6 0,61.3 2.1,61 	"/>
	<polygon class="st0" points="4.5,64 2.4,64.3 2.4,61 4.5,60.7 	"/>
	<polygon class="st0" points="6.9,63.7 4.8,64 4.8,60.6 6.9,60.4 	"/>
	<polygon class="st0" points="14.1,62.8 12,63.1 12,59.7 14.1,59.4 	"/>
	<polygon class="st0" points="16.6,62.5 14.5,62.8 14.5,59.4 16.6,59.1 	"/>
	<polygon class="st0" points="19.1,62.2 16.9,62.5 16.9,59.1 19.1,58.8 	"/>
	<polygon class="st0" points="21.6,61.9 19.4,62.2 19.4,58.7 21.6,58.5 	"/>
	<polygon class="st0" points="26.6,61.2 24.4,61.5 24.4,58.1 26.6,57.8 	"/>
	<polygon class="st0" points="29.1,60.9 26.9,61.2 26.9,57.8 29.1,57.5 	"/>
	<polygon class="st0" points="4.5,71.9 2.4,72.1 2.4,68.8 4.5,68.5 	"/>
	<polygon class="st0" points="6.9,71.6 4.8,71.8 4.8,68.5 6.9,68.2 	"/>
	<polygon class="st0" points="9.3,71.3 7.2,71.6 7.2,68.2 9.3,67.9 	"/>
	<polygon class="st0" points="21.6,69.9 19.4,70.1 19.4,66.7 21.6,66.5 	"/>
	<polygon class="st0" points="24.1,69.6 21.9,69.8 21.9,66.4 24.1,66.2 	"/>
	<polygon class="st0" points="31.7,68.7 29.4,69 29.4,65.5 31.7,65.2 	"/>
	<polygon class="st0" points="2.1,80 0,80.2 0,76.9 2.1,76.6 	"/>
	<polygon class="st0" points="4.5,79.7 2.4,79.9 2.4,76.6 4.5,76.4 	"/>
	<polygon class="st0" points="9.3,79.2 7.2,79.4 7.2,76.1 9.3,75.8 	"/>
	<polygon class="st0" points="11.7,78.9 9.6,79.2 9.6,75.8 11.7,75.6 	"/>
	<polygon class="st0" points="14.1,78.7 12,78.9 12,75.5 14.1,75.3 	"/>
	<polygon class="st0" points="16.6,78.4 14.5,78.6 14.5,75.2 16.6,75 	"/>
	<polygon class="st0" points="21.6,77.9 19.4,78.1 19.4,74.7 21.6,74.5 	"/>
	<polygon class="st0" points="24.1,77.6 21.9,77.8 21.9,74.4 24.1,74.2 	"/>
	<polygon class="st0" points="26.6,77.3 24.4,77.6 24.4,74.1 26.6,73.9 	"/>
	<polygon class="st0" points="29.1,77.1 26.9,77.3 26.9,73.9 29.1,73.6 	"/>
	<polygon class="st0" points="31.7,76.8 29.4,77 29.4,73.6 31.7,73.3 	"/>
	<polygon class="st0" points="34.2,76.5 32,76.8 32,73.3 34.2,73 	"/>
	<polygon class="st0" points="4.5,87.6 2.4,87.8 2.4,84.4 4.5,84.2 	"/>
	<polygon class="st0" points="6.9,87.3 4.8,87.5 4.8,84.2 6.9,84 	"/>
	<polygon class="st0" points="24.1,85.6 21.9,85.8 21.9,82.4 24.1,82.2 	"/>
	<polygon class="st0" points="34.2,84.6 32,84.8 32,81.4 34.2,81.2 	"/>
	<polygon class="st0" points="2.1,95.6 0,95.8 0,92.5 2.1,92.3 	"/>
	<polygon class="st0" points="11.7,94.8 9.6,94.9 9.6,91.6 11.7,91.4 	"/>
	<polygon class="st0" points="14.1,94.5 12,94.7 12,91.3 14.1,91.1 	"/>
	<polygon class="st0" points="16.6,94.3 14.5,94.5 14.5,91.1 16.6,90.9 	"/>
	<polygon class="st0" points="21.6,93.9 19.4,94.1 19.4,90.7 21.6,90.4 	"/>
	<polygon class="st0" points="24.1,93.7 21.9,93.8 21.9,90.4 24.1,90.2 	"/>
	<polygon class="st0" points="34.2,92.7 32,92.9 32,89.5 34.2,89.3 	"/>
	<polygon class="st0" points="2.1,103.4 0,103.6 0,100.3 2.1,100.1 	"/>
	<polygon class="st0" points="9.3,102.9 7.2,103 7.2,99.7 9.3,99.5 	"/>
	<polygon class="st0" points="24.1,101.7 21.9,101.8 21.9,98.4 24.1,98.2 	"/>
	<polygon class="st0" points="9.3,110.7 7.2,110.9 7.2,107.5 9.3,107.4 	"/>
	<polygon class="st0" points="14.1,110.4 12,110.6 12,107.2 14.1,107 	"/>
	<polygon class="st0" points="19.1,110 16.9,110.2 16.9,106.8 19.1,106.6 	"/>
	<polygon class="st0" points="34.2,109 32,109.1 32,105.7 34.2,105.5 	"/>
	<polygon class="st0" points="2.1,119.1 0,119.2 0,115.9 2.1,115.7 	"/>
	<polygon class="st0" points="9.3,118.6 7.2,118.8 7.2,115.4 9.3,115.3 	"/>
	<polygon class="st0" points="26.6,117.6 24.4,117.7 24.4,114.3 26.6,114.1 	"/>
	<polygon class="st0" points="24.1,125.7 21.9,125.9 21.9,122.4 24.1,122.3 	"/>
	<polygon class="st0" points="2.1,134.7 0,134.8 0,131.5 2.1,131.4 	"/>
	<polygon class="st0" points="19.1,134 16.9,134.1 16.9,130.7 19.1,130.6 	"/>
	<polygon class="st0" points="29.1,133.5 26.9,133.6 26.9,130.2 29.1,130.1 	"/>
	<polygon class="st0" points="16.6,142 14.5,142.1 14.5,138.7 16.6,138.6 	"/>
	<polygon class="st0" points="41,4 36.7,3.6 36.7,0.1 41,0.5 	"/>
	<polygon class="st0" points="46,4.5 41.7,4.1 41.7,0.6 46,1 	"/>
	<polygon class="st0" points="50.8,5 46.6,4.6 46.6,1.1 50.8,1.5 	"/>
	<polygon class="st0" points="41,12.1 36.7,11.7 36.7,8.2 41,8.6 	"/>
	<polygon class="st0" points="50.8,13 46.6,12.6 46.6,9.2 50.8,9.6 	"/>
	<polygon class="st0" points="55.7,13.5 51.5,13.1 51.5,9.6 55.7,10 	"/>
	<polygon class="st0" points="41,20.2 36.7,19.8 36.7,16.3 41,16.7 	"/>
	<polygon class="st0" points="46,20.6 41.7,20.3 41.7,16.8 46,17.2 	"/>
	<polygon class="st0" points="55.7,21.5 51.5,21.1 51.5,17.7 55.7,18.1 	"/>
	<polygon class="st0" points="41,28.3 36.7,27.9 36.7,24.4 41,24.8 	"/>
	<polygon class="st0" points="46,28.7 41.7,28.3 41.7,24.9 46,25.2 	"/>
	<polygon class="st0" points="50.8,29.1 46.6,28.8 46.6,25.3 50.8,25.7 	"/>
	<polygon class="st0" points="55.7,29.5 51.5,29.2 51.5,25.7 55.7,26.1 	"/>
	<polygon class="st0" points="41,36.4 36.7,36 36.7,32.6 41,32.9 	"/>
	<polygon class="st0" points="46,36.8 41.7,36.4 41.7,33 46,33.3 	"/>
	<polygon class="st0" points="55.7,37.5 51.5,37.2 51.5,33.8 55.7,34.1 	"/>
	<polygon class="st0" points="46,44.8 41.7,44.5 41.7,41 46,41.4 	"/>
	<polygon class="st0" points="50.8,45.2 46.6,44.9 46.6,41.4 50.8,41.7 	"/>
	<polygon class="st0" points="55.7,45.6 51.5,45.2 51.5,41.8 55.7,42.1 	"/>
	<polygon class="st0" points="41,52.6 36.7,52.2 36.7,48.8 41,49.1 	"/>
	<polygon class="st0" points="55.7,53.6 51.5,53.3 51.5,49.8 55.7,50.1 	"/>
	<polygon class="st0" points="41,60.6 36.7,60.4 36.7,56.9 41,57.2 	"/>
	<polygon class="st0" points="46,61 41.7,60.7 41.7,57.2 46,57.5 	"/>
	<polygon class="st0" points="50.8,61.3 46.6,61 46.6,57.5 50.8,57.8 	"/>
	<polygon class="st0" points="46,69 41.7,68.8 41.7,65.3 46,65.6 	"/>
	<polygon class="st0" points="55.7,69.6 51.5,69.4 51.5,65.9 55.7,66.2 	"/>
	<polygon class="st0" points="46,77.1 41.7,76.9 41.7,73.4 46,73.6 	"/>
	<polygon class="st0" points="50.8,77.4 46.6,77.1 46.6,73.7 50.8,73.9 	"/>
	<polygon class="st0" points="55.7,77.6 51.5,77.4 51.5,74 55.7,74.2 	"/>
	<polygon class="st0" points="41,84.9 36.7,84.7 36.7,81.2 41,81.4 	"/>
	<polygon class="st0" points="46,85.2 41.7,84.9 41.7,81.5 46,81.7 	"/>
	<polygon class="st0" points="41,93 36.7,92.8 36.7,89.3 41,89.5 	"/>
	<polygon class="st0" points="46,93.2 41.7,93 41.7,89.6 46,89.8 	"/>
	<polygon class="st0" points="55.7,93.7 51.5,93.5 51.5,90 55.7,90.2 	"/>
	<polygon class="st0" points="50.8,101.5 46.6,101.3 46.6,97.9 50.8,98 	"/>
	<polygon class="st0" points="41,109.2 36.7,109 36.7,105.5 41,105.7 	"/>
	<polygon class="st0" points="55.7,109.7 51.5,109.6 51.5,106.1 55.7,106.3 	"/>
	<polygon class="st0" points="46,117.4 41.7,117.3 41.7,113.8 46,114 	"/>
	<polygon class="st0" points="50.8,117.6 46.6,117.4 46.6,114 50.8,114.1 	"/>
	<polygon class="st0" points="55.7,125.8 51.5,125.6 51.5,122.2 55.7,122.3 	"/>
	<polygon class="st0" points="50.8,133.7 46.6,133.6 46.6,130.1 50.8,130.2 	"/>
	<polygon class="st0" points="41,141.5 36.7,141.5 36.7,138 41,138.1 	"/>
</g>
</svg>
