<?xml version="1.0" encoding="utf-8"?>
<!-- Generator: Adobe Illustrator 24.2.1, SVG Export Plug-In . SVG Version: 6.00 Build 0)  -->
<svg version="1.1" id="header" xmlns="http://www.w3.org/2000/svg" xmlns:xlink="http://www.w3.org/1999/xlink" x="0px" y="0px"
	 viewBox="0 0 61 105.4" style="enable-background:new 0 0 61 105.4;" xml:space="preserve">
<style type="text/css">
	.st0{fill:#268D7D;}
	.st1{fill:#FFAD00;}
	.st2{fill:#FFFFFF;}
	.st3{fill:#F8FFDF;}
	.st4{fill:#FFD100;}
</style>
<g>
	<ellipse class="st0" cx="30" cy="104" rx="30.1" ry="1.4"/>
	<path class="st1" d="M52.7,104.2H6.2c-3.4,0-6.2-2.8-6.2-6.2V6.2C0,2.8,2.8,0,6.2,0h46.4c3.4,0,6.2,2.8,6.2,6.2v91.7
		C58.9,101.4,56.1,104.2,52.7,104.2z"/>
	<circle class="st2" cx="29.5" cy="97.2" r="4.3"/>
	<path class="st3" d="M47.8,90.5H11.2c-3.4,0-6.2-2.8-6.2-6.2V11.4c0-3.4,2.8-6.2,6.2-6.2h36.6c3.4,0,6.2,2.8,6.2,6.2v72.8
		C54,87.7,51.2,90.5,47.8,90.5z"/>
	<circle class="st1" cx="29.5" cy="97.2" r="3.8"/>
	<circle class="st4" cx="29.8" cy="48.7" r="17"/>
	<g>
		<path class="st2" d="M35.4,55c-0.5,0.7-1.1,1.2-2,1.6c-0.8,0.4-1.8,0.6-2.9,0.7V59c0,0.2-0.1,0.4-0.2,0.5
			c-0.1,0.1-0.3,0.2-0.5,0.2c-0.2,0-0.4-0.1-0.5-0.2C29.1,59.4,29,59.2,29,59v-1.7c-1.7-0.1-3.3-0.5-4.8-1.1
			c-0.2-0.1-0.4-0.2-0.5-0.4c-0.1-0.2-0.2-0.4-0.2-0.6c0-0.3,0.1-0.5,0.3-0.7s0.4-0.3,0.7-0.3c0.2,0,0.3,0,0.5,0.1
			c1.3,0.6,2.6,0.9,4,1v-5.4c-1.1-0.3-2-0.6-2.7-0.9c-0.9-0.4-1.5-0.9-2-1.5c-0.4-0.6-0.7-1.4-0.7-2.2c0-0.8,0.2-1.6,0.6-2.3
			c0.4-0.7,1-1.3,1.9-1.8c0.8-0.4,1.8-0.7,2.8-0.8v-1.6c0-0.2,0.1-0.4,0.2-0.5c0.1-0.2,0.3-0.2,0.5-0.2c0.2,0,0.4,0.1,0.5,0.2
			s0.2,0.3,0.2,0.5v1.6c1.6,0.1,2.9,0.3,4.1,0.8c0.5,0.2,0.7,0.5,0.7,1c0,0.3-0.1,0.5-0.3,0.7c-0.2,0.2-0.4,0.3-0.7,0.3
			c-0.1,0-0.2,0-0.4-0.1c-1-0.4-2.2-0.6-3.5-0.6v5.6c1.1,0.3,2,0.5,2.8,0.9c0.8,0.3,1.5,0.8,2,1.5c0.5,0.6,0.7,1.5,0.7,2.4
			C36,53.5,35.8,54.3,35.4,55z M26.7,46.5c0.5,0.4,1.3,0.7,2.4,1v-5.2c-1,0.1-1.8,0.4-2.3,0.9c-0.5,0.5-0.8,1-0.8,1.7
			C25.9,45.6,26.2,46.1,26.7,46.5z M33.8,52.5c0-0.6-0.3-1-0.8-1.4s-1.4-0.7-2.5-1v5.1C32.7,55,33.8,54.2,33.8,52.5z"/>
	</g>
</g>
</svg>
