<?xml version="1.0" encoding="utf-8"?>
<!-- Generator: Adobe Illustrator 24.2.1, SVG Export Plug-In . SVG Version: 6.00 Build 0)  -->
<svg version="1.1" id="header" xmlns="http://www.w3.org/2000/svg" xmlns:xlink="http://www.w3.org/1999/xlink" x="0px" y="0px"
	 viewBox="0 0 295.4 309.3" style="enable-background:new 0 0 295.4 309.3;" xml:space="preserve">
<style type="text/css">
	.st0{fill:#FFB215;}
	.st1{fill:#009058;}
</style>
<path class="st0" d="M31.3,309.3c0,0-83.2-140.8,21.7-147.4c61.4-3.8,54.3-66,94.3-71.3c15.7-2-18.5-6.3,0-19.5
	c20.8-14.8,33-5.1,50.5-7.3c112.2-13.7,96.9,89.1,96.9,89.1L31.3,309.3z"/>
<path class="st1" d="M131.9,179.2c0,0-34.9-96.2,38.9-134.9c0,0,9.1-40.4,43.7-24.4c0,0,26.4-34.5,56.9-12.6
	c30.5,21.9,15,52.8,15,52.8L131.9,179.2z"/>
</svg>
