<?xml version="1.0" encoding="utf-8"?>
<!-- Generator: Adobe Illustrator 24.2.3, SVG Export Plug-In . SVG Version: 6.00 Build 0)  -->
<svg version="1.1" id="圖層_1" xmlns="http://www.w3.org/2000/svg" xmlns:xlink="http://www.w3.org/1999/xlink" x="0px" y="0px"
	 viewBox="0 0 277.6 115" style="enable-background:new 0 0 277.6 115;" xml:space="preserve">
<style type="text/css">
	.st0{fill-rule:evenodd;clip-rule:evenodd;fill:#00A456;}
	.st1{fill:#FFFFFF;}
</style>
<g>
	<path class="st0" d="M30.1,66.1c-0.2,0-0.4,0-0.6,0C29.7,53.9,20,37.2,0.6,16l0,0c-0.8-0.9-0.7-2.2,0.1-3c0.4-0.4,0.9-0.6,1.5-0.6
		h49.1C61.1,4.6,73.5,0,86.9,0h133.1c31.8,0,57.5,25.7,57.5,57.5c0,31.8-25.7,57.5-57.5,57.5H86.9C58.1,115,34.2,93.8,30.1,66.1z"/>
	<g>
		<g>
			<path class="st1" d="M82.8,34.8c-0.5,0-0.8-0.3-0.8-0.9c0-0.5,0.3-0.7,0.8-0.8c0.4,0,0.7-0.2,0.9-0.4c0.2-0.2,0.3-0.5,0.3-0.9
				c0-1.1-0.4-2.2-1.3-3.4c-0.2-0.3-0.3-0.6-0.3-0.8c0-0.2,0.2-0.7,0.5-1.5c0.1-0.2,0.1-0.3,0.2-0.5c0.1-0.1,0.1-0.3,0.2-0.4
				c0.1-0.3,0.2-0.6,0.4-0.9l0.2-0.5l0.2-0.7v-0.1c0-0.1,0-0.2-0.1-0.2c-0.1,0-0.2-0.1-0.4-0.1h-1.1c-0.4,0-0.6,0.2-0.6,0.6v14.8
				c0,0.6-0.3,0.9-0.8,0.9c-0.3,0-0.4-0.1-0.6-0.2c-0.1-0.1-0.2-0.4-0.2-0.7V23.2c0-0.6,0.1-1.1,0.4-1.4c0.3-0.3,0.7-0.4,1.3-0.4
				h2.4c1,0,1.4,0.3,1.4,1c0,0.4-0.6,1.8-1.7,4.2c-0.2,0.5-0.4,0.9-0.4,1.1c0,0,0,0.1,0.1,0.2c0.1,0.1,0.1,0.1,0.1,0.2
				c1,1.4,1.5,2.7,1.5,4C85.5,33.9,84.6,34.8,82.8,34.8z M98.1,37.9c0,0.5-0.6,0.8-1.8,0.8h-1.4c-2.5,0-4.1-0.1-4.9-0.4
				c-0.8-0.3-1.5-0.8-2-1.4c-1.4,1.2-2.3,1.8-2.6,1.8c-0.5,0-0.8-0.3-0.8-0.9c0-0.1,0.1-0.3,0.3-0.5c0.2-0.2,0.5-0.4,1-0.7l1.3-0.8
				V32c0-0.2-0.1-0.3-0.2-0.4c-0.1-0.1-0.3-0.1-0.6-0.1c-0.3,0-0.6-0.1-0.7-0.2c-0.1-0.1-0.2-0.3-0.2-0.5c0-0.5,0.3-0.7,0.9-0.7h0.8
				c1,0,1.5,0.5,1.5,1.5v4.1c0.3,0.5,0.9,0.9,1.7,1.1c0.7,0.2,2,0.4,3.9,0.4l3-0.1C97.8,37.1,98.1,37.3,98.1,37.9z M86.1,25.9
				c0.2,0,0.5,0.2,1.1,0.6c0.6,0.4,0.8,0.7,0.8,1c0,0.5-0.3,0.8-0.8,0.8c-0.2,0-0.4-0.1-0.6-0.3l-0.5-0.4c-0.3-0.3-0.5-0.5-0.7-0.6
				c-0.1-0.1-0.2-0.3-0.2-0.4C85.3,26.1,85.6,25.9,86.1,25.9z M86.2,22.2c0-0.4,0.3-0.7,0.8-0.7c0.2,0,0.6,0.2,1.1,0.6
				c0.5,0.4,0.8,0.8,0.8,1.1c0,0.5-0.2,0.8-0.7,0.8c-0.2,0-0.4-0.1-0.7-0.4l-0.6-0.5C86.4,22.8,86.2,22.5,86.2,22.2z M89.5,23.2
				c-0.1-0.1-0.2-0.3-0.2-0.4c0-0.2,0.1-0.3,0.2-0.4c0.1-0.1,0.3-0.2,0.5-0.2h1.7l0.3-0.8c0.2-0.5,0.4-0.7,0.8-0.7
				c0.5,0,0.7,0.2,0.7,0.6c0,0.2-0.1,0.5-0.3,0.9h4c0.2,0,0.4,0.1,0.5,0.2c0.1,0.1,0.2,0.3,0.2,0.4c0,0.4-0.2,0.6-0.7,0.6h-4.6
				l-0.6,1h4.6c0.4,0,0.6,0.2,0.6,0.6c0,0.4-0.2,0.6-0.6,0.6h-2.2v1.2h2.8c0.4,0,0.7,0.2,0.7,0.6c0,0.4-0.2,0.6-0.7,0.6H91
				c-0.2,0-0.4-0.1-0.5-0.2c-0.1-0.1-0.2-0.2-0.2-0.4c0-0.4,0.2-0.6,0.7-0.6h2v-1.2h-1.9c-1,1.3-1.7,2-2.1,2c-0.5,0-0.7-0.2-0.7-0.7
				c0-0.2,0.1-0.5,0.4-0.7c1-0.8,1.7-1.7,2.3-2.7H90C89.8,23.4,89.7,23.3,89.5,23.2z M95.7,34.4v-0.7h-4.3v1.9
				c0,0.5-0.2,0.8-0.7,0.8c-0.2,0-0.4-0.1-0.5-0.2C90,36.1,90,36,90,35.7v-5.8c0-0.9,0.5-1.4,1.4-1.4h4.3c0.9,0,1.4,0.5,1.4,1.4v4.9
				c0,0.6-0.1,1-0.4,1.3c-0.3,0.3-0.7,0.4-1.3,0.3h-0.9c-0.5,0-0.7-0.2-0.7-0.7c0-0.5,0.2-0.7,0.7-0.7h0.7
				C95.5,35.1,95.7,34.9,95.7,34.4z M91.4,30.6h4.3v-0.3c0-0.3-0.2-0.5-0.5-0.5h-3.3c-0.3,0-0.5,0.2-0.5,0.5V30.6z M91.4,32.6h4.3
				v-0.9h-4.3V32.6z"/>
			<path class="st1" d="M105.5,23.3c-0.3,0.6-0.6,1.3-0.9,2v12.8c0,0.3-0.1,0.6-0.2,0.8c-0.1,0.2-0.3,0.2-0.6,0.2
				c-0.3,0-0.5-0.1-0.6-0.2c-0.1-0.2-0.2-0.4-0.2-0.8v-9.7c-0.4,0.6-0.8,1.2-1.3,1.9c-0.2,0.3-0.5,0.4-0.7,0.4
				c-0.1,0-0.3-0.1-0.4-0.2c-0.2-0.2-0.3-0.4-0.3-0.6c0-0.2,0.1-0.4,0.2-0.6c0.6-0.9,1.1-1.7,1.5-2.3c0.4-0.6,0.7-1.4,1.1-2.2
				c0.4-0.9,0.9-2.1,1.3-3.5c0.1-0.4,0.4-0.6,0.8-0.6c0.1,0,0.2,0,0.3,0c0.4,0.1,0.6,0.3,0.6,0.7c0,0.1,0,0.2-0.1,0.4
				C105.9,22.2,105.7,22.7,105.5,23.3z M118.7,34.1c0,0.4-0.3,0.7-0.8,0.7h-2v2.5c0,0.7-0.1,1.1-0.4,1.4c-0.3,0.3-0.7,0.4-1.4,0.4
				h-1.5c-0.6,0-0.9-0.3-0.9-0.8c0-0.5,0.3-0.8,0.9-0.8h1c0.2,0,0.4-0.1,0.5-0.2c0.1-0.1,0.2-0.3,0.2-0.5v-2.1h-8.5
				c-0.5,0-0.8-0.2-0.8-0.7c0-0.4,0.3-0.7,0.8-0.7h8.5v-1.2c-2.1,0.2-4.7,0.3-8,0.4c-0.6,0-0.8-0.2-0.8-0.7c0-0.2,0.1-0.4,0.2-0.5
				c0.1-0.1,0.3-0.2,0.5-0.2c1,0,2.6,0,4.8-0.1v-1h-3.6c-1,0-1.5-0.5-1.5-1.6V26c0-1,0.5-1.5,1.5-1.5h3.6v-0.9h-4.5
				c-0.5,0-0.8-0.2-0.8-0.7c0-0.4,0.3-0.7,0.8-0.7h4.5v-0.7c0-0.6,0.3-0.8,0.8-0.8c0.5,0,0.8,0.3,0.8,0.8v0.7h4.9
				c0.5,0,0.8,0.2,0.8,0.7c0,0.4-0.3,0.7-0.8,0.7h-4.9v0.9h3.6c1,0,1.5,0.5,1.5,1.6v2.5c0,0.5-0.1,0.9-0.4,1.1s-0.7,0.4-1.3,0.4
				c0.4,0.2,0.9,0.6,1.7,1.2c0.3,0.2,0.4,0.5,0.4,0.7c0,0.2-0.1,0.3-0.2,0.4c-0.1,0.1-0.3,0.2-0.4,0.2c-0.2,0-0.6-0.2-1.1-0.6
				l-0.7,0.1v1.3h2C118.5,33.5,118.7,33.7,118.7,34.1z M107.6,26.7h3.6v-1h-3.1c-0.4,0-0.5,0.2-0.5,0.5V26.7z M111.2,28.9v-1.1h-3.6
				v0.5c0,0.2,0,0.3,0.1,0.4c0.1,0.1,0.2,0.1,0.4,0.1H111.2z M109.8,36c0.5,0.6,0.8,1,0.8,1.2c0,0.5-0.3,0.8-0.8,0.8
				c-0.1,0-0.3-0.1-0.4-0.2c-0.1-0.1-0.3-0.3-0.5-0.5l-0.6-0.8c-0.2-0.3-0.3-0.5-0.3-0.6c0-0.5,0.3-0.7,0.8-0.7
				C108.8,35.2,109.2,35.5,109.8,36z M112.8,26.7h3.6v-0.5c0-0.4-0.2-0.5-0.5-0.5h-3.1V26.7z M112.8,28.9h3.1c0.2,0,0.3,0,0.4-0.1
				c0.1-0.1,0.1-0.2,0.1-0.4v-0.5h-3.6V28.9z M112.8,31.1l2.7-0.1c-0.2-0.1-0.3-0.3-0.3-0.4c0-0.1-0.1-0.2,0-0.3
				c0-0.1,0.1-0.2,0.1-0.2h-2.4V31.1z"/>
			<path class="st1" d="M124.4,34.8c-0.5,0-0.8-0.3-0.8-0.9c0-0.5,0.3-0.7,0.8-0.8c0.4,0,0.7-0.2,0.9-0.4c0.2-0.2,0.3-0.5,0.3-0.9
				c0-1.1-0.4-2.2-1.3-3.4c-0.2-0.3-0.3-0.6-0.3-0.8c0-0.2,0.2-0.7,0.5-1.5c0.1-0.2,0.1-0.3,0.2-0.5c0.1-0.1,0.1-0.3,0.2-0.4
				c0.1-0.3,0.2-0.6,0.4-0.9l0.2-0.5l0.2-0.7v-0.1c0-0.1,0-0.2-0.1-0.2c-0.1,0-0.2-0.1-0.4-0.1H124c-0.4,0-0.6,0.2-0.6,0.6v14.8
				c0,0.6-0.3,0.9-0.8,0.9c-0.3,0-0.4-0.1-0.6-0.2c-0.1-0.1-0.2-0.4-0.2-0.7V23.2c0-0.6,0.1-1.1,0.4-1.4c0.3-0.3,0.7-0.4,1.3-0.4
				h2.4c1,0,1.4,0.3,1.4,1c0,0.4-0.6,1.8-1.7,4.2c-0.2,0.5-0.4,0.9-0.4,1.1c0,0,0,0.1,0.1,0.2c0.1,0.1,0.1,0.1,0.1,0.2
				c1,1.4,1.5,2.7,1.5,4C127.1,33.9,126.2,34.8,124.4,34.8z M139.6,37.9c0,0.5-0.6,0.8-1.8,0.8h-1.4c-2.5,0-4.1-0.1-4.9-0.4
				c-0.8-0.3-1.5-0.8-2-1.4c-1.4,1.2-2.3,1.8-2.6,1.8c-0.5,0-0.8-0.3-0.8-0.9c0-0.1,0.1-0.3,0.3-0.5c0.2-0.2,0.5-0.4,1-0.7l1.3-0.8
				V32c0-0.2-0.1-0.3-0.2-0.4c-0.1-0.1-0.3-0.1-0.6-0.1c-0.3,0-0.6-0.1-0.7-0.2c-0.1-0.1-0.2-0.3-0.2-0.5c0-0.5,0.3-0.7,0.9-0.7h0.8
				c1,0,1.5,0.5,1.5,1.5v4.1c0.3,0.5,0.9,0.9,1.7,1.1c0.7,0.2,2,0.4,3.9,0.4l3-0.1C139.4,37.1,139.6,37.3,139.6,37.9z M127.7,25.9
				c0.2,0,0.5,0.2,1.1,0.6c0.6,0.4,0.8,0.7,0.8,1c0,0.5-0.3,0.8-0.8,0.8c-0.2,0-0.4-0.1-0.6-0.3l-0.5-0.4c-0.3-0.3-0.5-0.5-0.7-0.6
				c-0.1-0.1-0.2-0.3-0.2-0.4C126.9,26.1,127.2,25.9,127.7,25.9z M127.8,22.2c0-0.4,0.3-0.7,0.8-0.7c0.2,0,0.6,0.2,1.1,0.6
				c0.5,0.4,0.8,0.8,0.8,1.1c0,0.5-0.2,0.8-0.7,0.8c-0.2,0-0.4-0.1-0.7-0.4l-0.6-0.5C128,22.8,127.8,22.5,127.8,22.2z M131.1,23.2
				c-0.1-0.1-0.2-0.3-0.2-0.4c0-0.2,0.1-0.3,0.2-0.4c0.1-0.1,0.3-0.2,0.5-0.2h1.7l0.3-0.8c0.2-0.5,0.4-0.7,0.8-0.7
				c0.5,0,0.7,0.2,0.7,0.6c0,0.2-0.1,0.5-0.3,0.9h4c0.2,0,0.4,0.1,0.5,0.2c0.1,0.1,0.2,0.3,0.2,0.4c0,0.4-0.2,0.6-0.7,0.6h-4.6
				l-0.6,1h4.6c0.4,0,0.6,0.2,0.6,0.6c0,0.4-0.2,0.6-0.6,0.6h-2.2v1.2h2.8c0.4,0,0.7,0.2,0.7,0.6c0,0.4-0.2,0.6-0.7,0.6h-6.3
				c-0.2,0-0.4-0.1-0.5-0.2c-0.1-0.1-0.2-0.2-0.2-0.4c0-0.4,0.2-0.6,0.7-0.6h2v-1.2h-1.9c-1,1.3-1.7,2-2.1,2c-0.5,0-0.7-0.2-0.7-0.7
				c0-0.2,0.1-0.5,0.4-0.7c1-0.8,1.7-1.7,2.3-2.7h-1.1C131.4,23.4,131.2,23.3,131.1,23.2z M137.3,34.4v-0.7h-4.3v1.9
				c0,0.5-0.2,0.8-0.7,0.8c-0.2,0-0.4-0.1-0.5-0.2c-0.1-0.1-0.2-0.3-0.2-0.6v-5.8c0-0.9,0.5-1.4,1.4-1.4h4.3c0.9,0,1.4,0.5,1.4,1.4
				v4.9c0,0.6-0.1,1-0.4,1.3c-0.3,0.3-0.7,0.4-1.3,0.3h-0.9c-0.5,0-0.7-0.2-0.7-0.7c0-0.5,0.2-0.7,0.7-0.7h0.7
				C137.1,35.1,137.3,34.9,137.3,34.4z M132.9,30.6h4.3v-0.3c0-0.3-0.2-0.5-0.5-0.5h-3.3c-0.3,0-0.5,0.2-0.5,0.5V30.6z M132.9,32.6
				h4.3v-0.9h-4.3V32.6z"/>
			<path class="st1" d="M150.4,28.5c-0.3,0-0.6,0.1-0.9,0.1c-0.3,0.1-0.7,0.1-1.1,0.1v2.9h3c0.6,0,1,0.3,1,0.8c0,0.5-0.3,0.8-1,0.8
				h-3v3.2l3.9-0.4c0.6-0.1,0.8,0.2,0.8,0.7c0,0.2-0.1,0.3-0.2,0.5c-0.1,0.1-0.3,0.2-0.5,0.2c-2.5,0.4-5.7,0.8-9.5,1.2l-0.2,0
				c-0.5,0-0.8-0.3-0.8-0.8c0-0.2,0.1-0.4,0.2-0.6c0.1-0.1,0.3-0.2,0.6-0.3l4-0.4v-3.4h-3.2c-0.6,0-0.9-0.3-0.9-0.8
				c0-0.5,0.3-0.7,0.9-0.7h3.2V29c-1.5,0.2-2.7,0.3-3.7,0.4c-0.4,0-0.6,0-0.8-0.2c-0.2-0.1-0.3-0.4-0.3-0.7c0-0.2,0.1-0.4,0.2-0.6
				c0.1-0.1,0.4-0.2,0.7-0.2c0.3,0,0.7,0,1.4-0.1c0.6-1.8,1.1-3.2,1.3-4.2h-2.6c-0.3,0-0.5-0.1-0.7-0.2c-0.2-0.1-0.2-0.3-0.2-0.6
				c0-0.3,0.1-0.4,0.2-0.6c0.2-0.1,0.4-0.2,0.7-0.2h8.8c0.6,0,1,0.3,1,0.8c0,0.5-0.3,0.8-1,0.8h-4.4c-0.5,1.5-1,2.9-1.6,4.1
				c1.7-0.1,3.2-0.3,4.3-0.4l-0.4-0.6c-0.1-0.2-0.2-0.4-0.3-0.5c-0.1-0.1-0.1-0.3-0.1-0.4c0-0.4,0.2-0.6,0.7-0.6
				c0.3,0,0.9,0.6,1.7,1.8c0.8,1.2,1.2,2,1.2,2.3c0,0.5-0.3,0.8-0.9,0.8c-0.2,0-0.3-0.1-0.4-0.2c-0.1-0.1-0.3-0.3-0.4-0.6l-0.4-0.7
				L150.4,28.5z M154.8,35.2c-0.5,0-0.8-0.3-0.8-0.9V23.5c0-0.6,0.3-0.9,0.8-0.9c0.5,0,0.8,0.3,0.8,0.9v10.8
				C155.6,34.9,155.4,35.2,154.8,35.2z M159.5,21.8V37c0,0.7-0.2,1.2-0.5,1.5c-0.3,0.4-0.8,0.5-1.5,0.5h-1.9c-0.7,0-1-0.3-1-0.8
				c0-0.6,0.3-0.8,1-0.8h1.3c0.3,0,0.5-0.1,0.7-0.2c0.1-0.1,0.2-0.4,0.2-0.6V21.8c0-0.6,0.3-0.9,0.8-0.9
				C159.2,20.9,159.5,21.2,159.5,21.8z"/>
			<path class="st1" d="M168.7,37.8c0-0.1,0.1-0.4,0.2-0.7c0.6-1.5,1-3.5,1.2-6.2c0-0.5,0.3-0.8,0.8-0.8c0.5,0,0.7,0.2,0.7,0.7
				l-0.2,2.5c0.4,0.8,0.9,1.5,1.5,2.1v-6.7h-3.1c-0.6,0-0.9-0.2-0.9-0.7c0-0.5,0.3-0.7,0.9-0.7h3v-2.3h-2.5c-0.6,0-0.9-0.2-0.9-0.7
				c0-0.5,0.3-0.8,0.9-0.8h2.5v-2c0-0.5,0.3-0.8,0.8-0.8c0.3,0,0.5,0.1,0.6,0.2c0.1,0.1,0.2,0.3,0.2,0.6v2h1.6
				c0.6,0,0.9,0.3,0.9,0.8c0,0.5-0.3,0.7-0.9,0.7h-1.6v2.3h1.9c0.6,0,0.9,0.2,0.9,0.7c0,0.5-0.3,0.7-0.9,0.7h-1.9v2.4h1.6
				c0.5,0,0.8,0.2,0.8,0.7c0,0.5-0.3,0.8-0.8,0.8h-1.6v3.7c1.2,0.5,3.4,0.7,6.6,0.7l5.5-0.1c0.5,0,0.8,0.2,0.8,0.8
				c0,0.6-0.5,0.9-1.4,0.9l-5.4,0c-3,0-5.2-0.3-6.6-0.9c-1.1-0.4-2-1.3-2.8-2.7c-0.5,2.4-1,3.7-1.5,3.7
				C169,38.7,168.7,38.4,168.7,37.8z M177.4,28.1c0-0.3,0.2-0.5,0.6-0.7c0.8-0.4,1.3-1,1.7-1.6c0.3-0.7,0.5-1.6,0.5-2.7h-1.9
				c-0.6,0-1-0.2-1-0.7c0-0.5,0.3-0.7,1-0.7h6.7c1.1,0,1.7,0.6,1.7,1.8c0,1.7-0.2,3-0.5,3.9c-0.4,0.9-1.4,1.4-3.2,1.4
				c-0.6,0-0.9-0.3-0.9-0.8c0-0.5,0.4-0.7,1.1-0.8c0.7,0,1.2-0.2,1.4-0.4c0.3-0.4,0.5-1.4,0.5-3c0-0.4-0.2-0.6-0.6-0.6h-2.7
				c0,1.3-0.2,2.3-0.5,3.1c-0.3,0.8-0.8,1.5-1.5,2c-0.4,0.3-0.7,0.5-0.9,0.6c-0.2,0.1-0.5,0.2-0.7,0.2
				C177.6,28.9,177.4,28.7,177.4,28.1z M177.8,35.4c-0.3-0.3-0.4-0.7-0.4-1.2v-3c0-0.6,0.1-1,0.4-1.3c0.3-0.3,0.7-0.4,1.2-0.4h5.5
				c0.6,0,1,0.1,1.3,0.4c0.3,0.3,0.4,0.7,0.4,1.3v3c0,0.6-0.1,1-0.4,1.3c-0.3,0.3-0.7,0.4-1.2,0.4h-5.5
				C178.5,35.8,178.1,35.6,177.8,35.4z M184.5,34.1c0.1-0.1,0.2-0.3,0.2-0.5v-2c0-0.5-0.2-0.7-0.7-0.7h-4.3c-0.2,0-0.4,0.1-0.5,0.2
				c-0.1,0.1-0.2,0.3-0.2,0.5v2c0,0.2,0.1,0.4,0.2,0.5s0.3,0.2,0.5,0.2h4.3C184.3,34.3,184.4,34.2,184.5,34.1z"/>
			<path class="st1" d="M192.4,38.4v-7.8l-2.2,0.2c-0.2,0-0.4-0.1-0.5-0.2c-0.1-0.1-0.2-0.3-0.2-0.6c0-0.5,0.5-0.8,1.5-0.8l0.2,0
				l1.3-2c-0.8-0.6-1.6-1.2-2.4-1.8c-0.3-0.2-0.5-0.5-0.5-0.7c0-0.5,0.2-0.8,0.7-0.8c0.2,0,0.4,0.1,0.8,0.3c0.5-0.8,1-1.7,1.3-2.7
				c0.2-0.6,0.6-1,1-1c0.6,0,0.9,0.3,0.9,0.8c0,0.5-0.7,1.7-2.1,3.7l0,0l1.1,0.9l1.2-2.1c0.3-0.5,0.6-0.7,0.9-0.7
				c0.6,0,0.8,0.3,0.8,0.8c0,0.2-0.5,1-1.4,2.4c-0.6,0.9-1.3,1.9-2.1,2.9l2.1-0.1c-0.2-0.6-0.4-0.9-0.4-1c0-0.4,0.2-0.6,0.7-0.6
				c0.3,0,0.6,0.3,0.9,0.8l0.4,1l0.2,0.5c0.2,0.4,0.2,0.7,0.2,0.9c0,0.4-0.2,0.7-0.7,0.7c-0.4,0-0.7-0.3-0.9-1l-1.3,0.2h0v7.9
				c0,0.6-0.3,0.9-0.8,0.9C192.7,39.2,192.4,38.9,192.4,38.4z M189.6,37.1c-0.1-0.1-0.2-0.3-0.2-0.5c0-0.2,0.1-0.4,0.2-0.7
				c0.4-1,0.6-2,0.6-3c0-0.4,0.1-0.7,0.2-0.9c0.1-0.2,0.3-0.3,0.5-0.3c0.2,0,0.4,0.1,0.5,0.2s0.2,0.3,0.2,0.6c0,1-0.2,2.3-0.6,3.8
				c-0.2,0.7-0.5,1-0.9,1C190,37.3,189.8,37.2,189.6,37.1z M195.3,36.5l-0.1-0.2l-0.6-4.1c0-0.2,0-0.3,0.1-0.4
				c0.1-0.1,0.3-0.1,0.5-0.1c0.4,0,0.7,0.3,0.8,0.8c0.4,1.9,0.7,3.1,0.7,3.7c0,0.5-0.3,0.7-0.8,0.7
				C195.7,36.8,195.5,36.7,195.3,36.5z M196.2,27.9c0-0.2,0.4-0.7,1.1-1.3c1.6-1.4,2.8-3.1,3.7-5.1c0.3-0.6,0.6-0.9,0.9-0.9
				c0.3,0,0.5,0.1,0.6,0.2c0.1,0.1,0.2,0.3,0.2,0.5c0,0.1,0,0.3-0.1,0.5c1.2,2.2,2.8,3.8,4.6,4.9c0.5,0.3,0.8,0.6,0.8,1
				c0,0.6-0.3,0.9-0.9,0.9c-0.6,0-1.4-0.6-2.6-1.9c-1.2-1.2-2-2.4-2.6-3.5c-0.7,1.3-1.6,2.5-2.6,3.6c-1.1,1.2-1.9,1.8-2.4,1.8
				C196.5,28.7,196.2,28.4,196.2,27.9z M197.9,38.1c-0.3-0.3-0.4-0.7-0.4-1.3v-3.9c0-0.6,0.1-1.1,0.4-1.4c0.3-0.3,0.7-0.4,1.3-0.4
				h5.6c0.6,0,1.1,0.1,1.4,0.4c0.3,0.3,0.4,0.7,0.4,1.4v3.8c0,0.6-0.1,1.1-0.4,1.4c-0.3,0.3-0.7,0.4-1.3,0.4h-5.6
				C198.7,38.5,198.2,38.4,197.9,38.1z M198.5,28.2c0-0.5,0.3-0.8,0.9-0.8h5.3c0.6,0,0.9,0.3,0.9,0.8c0,0.5-0.3,0.8-0.9,0.8h-5.3
				C198.8,29,198.5,28.7,198.5,28.2z M205.1,36.3v-3c0-0.2-0.1-0.4-0.2-0.5c-0.1-0.1-0.3-0.2-0.6-0.2h-4.4c-0.2,0-0.4,0.1-0.5,0.2
				c-0.1,0.1-0.2,0.3-0.2,0.5v3c0,0.2,0.1,0.4,0.2,0.5c0.1,0.1,0.3,0.2,0.5,0.2h4.4C204.8,37,205.1,36.8,205.1,36.3z"/>
			<path class="st1" d="M221.1,37.8c0-0.3,0.1-0.5,0.2-0.6c0.1-0.1,0.6-0.2,1.3-0.3c1.2-0.1,1.9-0.2,2.2-0.5
				c0.2-0.2,0.3-0.6,0.5-1.5c0.1-0.8,0.2-1.9,0.3-3.3l0.2-4.3c0-0.4-0.1-0.6-0.3-0.8c-0.2-0.2-0.5-0.3-0.8-0.3h-6
				c-0.2,3.3-0.8,5.8-1.9,7.6c-1.1,1.9-2.5,3.3-4.3,4.3c-0.4,0.2-0.6,0.4-0.9,0.4s-0.4,0.1-0.5,0.1c-0.6,0-0.9-0.3-0.9-1
				c0-0.4,0.2-0.6,0.6-0.8c2.4-1.2,4.1-2.9,5.1-5.2c0.3-0.6,0.5-1.3,0.6-2.2c0.1-0.9,0.3-2,0.3-3.4h-5c-0.4,0-0.6-0.1-0.8-0.2
				c-0.2-0.1-0.2-0.4-0.2-0.6c0-0.5,0.3-0.8,1-0.8h5.1l0-2.8c0-0.6,0.3-1,0.9-1c0.6,0,0.9,0.4,0.9,1.1c0,0.6,0,1.5,0,2.7h6.5
				c0.8,0,1.4,0.2,1.7,0.5c0.3,0.3,0.5,0.9,0.5,1.7c0,1.5-0.1,3.6-0.3,6.4c-0.2,2-0.4,3.3-0.6,4c-0.4,1.2-1.9,1.8-4.4,1.8
				C221.5,38.8,221.1,38.4,221.1,37.8z"/>
			<path class="st1" d="M97.2,59.3c0.2,0.2,0.3,0.4,0.3,0.7c0,0.4-0.2,0.7-0.5,1.1c-0.7,0.8-1.4,1.5-2,2c-1.7,1.4-3.6,2.5-5.8,3.4
				c-2.1,0.8-4.7,1.4-7.9,1.6l-0.7,0c-0.3,0-0.6-0.1-0.7-0.2c-0.2-0.1-0.3-0.4-0.3-0.7c0-0.5,0.4-0.8,1.1-0.8
				c2.8-0.1,5.4-0.6,7.9-1.5c-0.5-0.4-1.2-1-2.2-1.7C86.2,63,86,62.8,86,62.6c0-0.2,0.1-0.4,0.2-0.6c0.1-0.1,0.3-0.2,0.5-0.2
				c0.4,0,0.8,0.2,1.4,0.6c0.6,0.4,1.3,1,2.3,1.8c1.4-0.7,2.6-1.5,3.6-2.3l0.6-0.4c0.5-0.4,0.8-0.6,0.8-0.7c0-0.1-0.1-0.2-0.2-0.2
				h-7.5c-0.9,0.6-2,1.1-3.3,1.7c-1.2,0.5-2.1,0.8-2.5,0.8c-0.3,0-0.4-0.1-0.6-0.2c-0.1-0.1-0.2-0.3-0.2-0.6c0-0.4,0.3-0.7,1-0.9
				c2.8-0.8,5.1-2,6.8-3.6c0.2-0.2,0.4-0.3,0.5-0.4c0.1-0.1,0.3-0.2,0.5-0.2c0.2-0.1,0.4,0,0.6,0.1c0.2,0.1,0.3,0.3,0.3,0.5
				c0,0.2-0.1,0.4-0.3,0.6c-0.2,0.2-0.5,0.5-0.8,0.7h6.6C96.7,59.1,97,59.2,97.2,59.3z M79.8,58.7c0-0.3,0.1-0.5,0.4-0.6
				c0.3-0.2,0.7-0.3,1.3-0.3c1.7-0.2,3.5-0.6,5.5-1.3l-1.7-1.3c-0.2-0.1-0.3-0.3-0.4-0.3c-0.1-0.1-0.1-0.2-0.1-0.3
				c0-0.2,0.1-0.3,0.2-0.4c0.1-0.1,0.3-0.2,0.4-0.2c0.3,0,0.6,0.1,1.1,0.4c0.4,0.3,1.1,0.7,1.9,1.3l0.2,0.2c0.6-0.2,1.4-0.7,2.5-1.3
				c1.1-0.6,1.7-1.1,2.1-1.5c0,0,0.1-0.1,0.1-0.1c0-0.1-0.1-0.1-0.2-0.1h-7.5c-0.8,0.5-1.7,0.9-2.6,1.4c-0.9,0.4-1.5,0.6-1.8,0.6
				c-0.5,0-0.8-0.3-0.8-0.8c0-0.2,0.1-0.4,0.2-0.5c0.1-0.1,0.3-0.2,0.8-0.3l0.6-0.2c1.6-0.6,3.1-1.5,4.5-2.6
				c0.2-0.1,0.3-0.3,0.5-0.4l0.5-0.4c0.1-0.1,0.3-0.2,0.5-0.2c0.2,0,0.4,0.1,0.6,0.2c0.2,0.1,0.3,0.3,0.3,0.5c0,0.2-0.1,0.4-0.3,0.6
				c-0.2,0.2-0.5,0.5-0.8,0.8h6.7c0.4,0,0.8,0.1,1.1,0.3c0.3,0.2,0.4,0.4,0.4,0.7c0,0.3-0.2,0.6-0.5,0.9c-0.8,0.8-1.8,1.5-2.9,2.2
				c-1.1,0.7-2.3,1.3-3.4,1.8c-1.8,0.8-4.3,1.5-7.4,2.2c-0.5,0.1-0.8,0.1-1,0.1C80.1,59.6,79.8,59.3,79.8,58.7z"/>
			<path class="st1" d="M103,67.3v-8.5c-0.4,1.5-0.7,2.6-1,3.3c-0.3,0.7-0.7,1.1-1,1.1c-0.4,0-0.6-0.3-0.6-0.9
				c0-0.2,0.1-0.4,0.3-0.7c1.1-1.8,1.9-4,2.3-6.4h-1.5c-0.6,0-0.9-0.3-0.9-0.8c0-0.5,0.3-0.8,0.9-0.8h1.7v-3.4
				c0-0.5,0.3-0.8,0.8-0.8c0.5,0,0.8,0.3,0.8,0.8v3.4h1.6c0.7,0,1,0.3,1,0.8c0,0.5-0.3,0.8-1,0.8h-1.6v2.6c0.1-0.1,0.3-0.2,0.4-0.2
				c0.1,0,0.3,0.1,0.5,0.3c0.2,0.2,0.4,0.5,0.7,1c0.5,0.9,0.8,1.5,0.8,1.7c0,0.4-0.2,0.6-0.6,0.6c-0.2,0-0.4-0.1-0.5-0.3l-1.2-2.5
				v8.8c0,0.5-0.3,0.8-0.8,0.8C103.2,68.2,103,67.9,103,67.3z M105.4,66.7c0-0.3,0.4-0.6,1.1-0.9c0.7-0.3,1.4-0.6,2-1.1
				c0.6-0.5,0.9-0.8,0.9-1c0-0.1-0.1-0.1-0.2-0.1h-2.7c-0.4,0-0.7-0.2-0.7-0.6c0-0.4,0.2-0.6,0.7-0.6h3.5c0.6,0,1,0.3,1,0.8
				c0,0.5-0.3,1-0.8,1.6c-0.6,0.7-1.3,1.4-2.1,1.9c-0.9,0.6-1.6,0.9-2,0.9C105.7,67.5,105.4,67.2,105.4,66.7z M106.3,57.3
				c0-0.4,0.2-0.6,0.7-0.6h4.5v-1.2h-3.4c-0.5,0-0.7-0.2-0.7-0.6c0-0.4,0.2-0.6,0.7-0.6h3.4v-1.1h-4.1c-0.5,0-0.7-0.2-0.7-0.7
				c0-0.4,0.2-0.7,0.7-0.7h1.7l-0.2-0.5c0-0.1-0.1-0.2-0.2-0.4c-0.1-0.2-0.1-0.3-0.1-0.4c0-0.5,0.3-0.7,0.8-0.7c0.5,0,1,0.7,1.5,2.1
				h2.9l0.5-1.4c0.2-0.5,0.5-0.8,0.9-0.8c0.3,0,0.5,0.1,0.6,0.2c0.1,0.1,0.2,0.3,0.2,0.5c0,0.2-0.2,0.7-0.6,1.4v0h2.3
				c0.2,0,0.4,0.1,0.6,0.2c0.1,0.1,0.2,0.3,0.2,0.5c0,0.5-0.3,0.7-0.8,0.7h-4.6v1.1h3.7c0.2,0,0.4,0.1,0.5,0.2
				c0.1,0.1,0.2,0.3,0.2,0.5c0,0.4-0.2,0.6-0.7,0.6h-3.7v1.2h4.9c0.5,0,0.7,0.2,0.7,0.6s-0.2,0.6-0.7,0.6h-11
				C106.6,57.9,106.3,57.7,106.3,57.3z M109.8,67.3c0-0.5,0.3-0.8,0.9-0.8h0.7c0.4,0,0.6-0.2,0.6-0.6V62c0-0.4-0.2-0.6-0.6-0.6h-3.4
				c-0.5,0-0.7-0.2-0.7-0.6c0-0.4,0.2-0.6,0.7-0.6h3.9c1,0,1.6,0.5,1.6,1.6c0.3,0.4,0.5,0.8,0.7,1c1-0.7,1.7-1.4,2.2-1.9
				c0.2-0.2,0.4-0.4,0.6-0.5c0.2-0.1,0.3-0.2,0.5-0.2c0.5,0,0.8,0.3,0.8,0.8c0,0.4-1.1,1.3-3.2,2.7c0.7,0.7,1.7,1.4,3,2
				c0.2,0.1,0.4,0.2,0.5,0.3s0.2,0.3,0.2,0.4c0,0.6-0.3,0.9-0.8,0.9c-0.5,0-1.3-0.4-2.3-1.2c-0.9-0.8-1.7-1.6-2.2-2.5v2.5
				c0,0.7-0.1,1.2-0.4,1.5c-0.3,0.3-0.8,0.4-1.4,0.4h-0.9C110.1,68.1,109.8,67.8,109.8,67.3z M112.3,59.7c-0.2-0.1-0.5-0.1-0.6-0.2
				c-0.2,0-0.3-0.1-0.5-0.1l-0.8-0.2c-0.3-0.1-0.4-0.1-0.6-0.2c-0.1-0.1-0.2-0.2-0.2-0.3c0-0.4,0.3-0.6,0.8-0.6l2.5,0.4
				c1,0.2,1.6,0.3,1.7,0.4c0.2,0.1,0.2,0.3,0.2,0.5c0,0.2-0.1,0.4-0.2,0.6c-0.1,0.1-0.3,0.2-0.5,0.1C113.6,60,112.9,59.9,112.3,59.7
				z"/>
			<path class="st1" d="M139.4,61c0,0.5-0.3,0.8-1,0.8h-7.3v5.3c0,0.4-0.1,0.6-0.2,0.8c-0.1,0.2-0.4,0.2-0.7,0.2
				c-0.6,0-0.9-0.3-0.9-1v-5.3h-7.1c-0.3,0-0.6-0.1-0.7-0.2c-0.2-0.1-0.2-0.3-0.2-0.6c0-0.5,0.3-0.8,1-0.8h7.1v-7.9h-6.2
				c-0.6,0-0.9-0.3-0.9-0.8c0-0.5,0.3-0.8,0.9-0.8h14c0.7,0,1,0.3,1,0.8c0,0.5-0.3,0.8-1,0.8h-6.1v7.9h7.3
				C139.1,60.2,139.4,60.5,139.4,61z M124.5,57.8c-0.2-0.6-0.5-1.3-0.9-2.1c-0.1-0.3-0.2-0.5-0.3-0.7c-0.1-0.2-0.1-0.4-0.1-0.5
				c0-0.2,0.1-0.3,0.2-0.5c0.2-0.1,0.3-0.2,0.6-0.2c0.2,0,0.4,0.1,0.6,0.2c0.2,0.1,0.3,0.3,0.5,0.6c0.9,1.8,1.4,2.9,1.4,3.3
				c0,0.3-0.1,0.5-0.3,0.6c-0.2,0.1-0.4,0.2-0.7,0.2C125.1,58.9,124.8,58.5,124.5,57.8z M137.1,54c0.2,0.1,0.3,0.3,0.3,0.5
				c0,0.4-0.4,1.4-1.2,3c-0.4,0.8-0.8,1.3-1.2,1.3c-0.3,0-0.6-0.1-0.7-0.2c-0.2-0.1-0.2-0.3-0.2-0.6c0-0.2,0.1-0.5,0.3-0.9l1.2-2.8
				c0.2-0.4,0.5-0.6,0.8-0.6C136.7,53.8,136.9,53.9,137.1,54z"/>
			<path class="st1" d="M158.1,57.1l-0.4-0.5l-14.7,0.8c-0.3,0-0.5-0.1-0.7-0.2c-0.2-0.1-0.2-0.4-0.2-0.7c0-0.4,0.2-0.7,0.7-0.8
				l1.1-0.1l1.5,0c0.9-1.4,1.8-3.1,2.6-5.1c0.1-0.4,0.3-0.6,0.5-0.8c0.2-0.2,0.4-0.3,0.7-0.3c0.6,0,0.9,0.3,0.9,0.8
				c0,0.4-0.5,1.4-1.6,3.1l-1.4,2.2c4.7-0.1,7.7-0.2,9.1-0.3l0.4,0c-1-1.1-1.7-1.8-2.2-2.1c-0.4-0.3-0.7-0.6-0.7-0.9
				c0-0.2,0.1-0.4,0.2-0.5c0.1-0.1,0.3-0.2,0.6-0.2c0.3,0,1.4,0.8,3.2,2.5c1.8,1.7,2.6,2.8,2.6,3.2c0,0.5-0.3,0.8-0.9,0.8
				C159,58.2,158.6,57.8,158.1,57.1z M144.4,67c-0.4-0.4-0.5-0.9-0.5-1.7v-3.9c-0.1-1.5,0.6-2.3,2.2-2.2h10c1.6-0.1,2.3,0.6,2.2,2.2
				v3.9c0.1,1.5-0.6,2.3-2.2,2.2h-10C145.3,67.5,144.8,67.4,144.4,67z M156.6,64.9v-3c0-0.7-0.4-1.1-1.1-1.1h-8.8
				c-0.7,0-1.1,0.4-1.1,1.1v3c0,0.7,0.4,1.1,1.1,1.1h8.8C156.2,66,156.6,65.6,156.6,64.9z"/>
			<path class="st1" d="M168.7,66.7c0-0.1,0.1-0.4,0.2-0.7c0.6-1.5,1-3.5,1.2-6.2c0-0.5,0.3-0.8,0.8-0.8c0.5,0,0.7,0.2,0.7,0.7
				l-0.2,2.5c0.4,0.8,0.9,1.5,1.5,2.1v-6.7h-3.1c-0.6,0-0.9-0.2-0.9-0.7s0.3-0.7,0.9-0.7h3v-2.3h-2.5c-0.6,0-0.9-0.2-0.9-0.7
				c0-0.5,0.3-0.8,0.9-0.8h2.5v-2c0-0.5,0.3-0.8,0.8-0.8c0.3,0,0.5,0.1,0.6,0.2c0.1,0.1,0.2,0.3,0.2,0.6v2h1.6
				c0.6,0,0.9,0.3,0.9,0.8c0,0.5-0.3,0.7-0.9,0.7h-1.6v2.3h1.9c0.6,0,0.9,0.2,0.9,0.7s-0.3,0.7-0.9,0.7h-1.9v2.4h1.6
				c0.5,0,0.8,0.2,0.8,0.7c0,0.5-0.3,0.8-0.8,0.8h-1.6v3.7c1.2,0.5,3.4,0.7,6.6,0.7l5.5-0.1c0.5,0,0.8,0.2,0.8,0.8
				c0,0.6-0.5,0.9-1.4,0.9l-5.4,0c-3,0-5.2-0.3-6.6-0.9c-1.1-0.4-2-1.3-2.8-2.7c-0.5,2.4-1,3.7-1.5,3.7
				C169,67.6,168.7,67.3,168.7,66.7z M177.4,57.1c0-0.3,0.2-0.5,0.6-0.7c0.8-0.4,1.3-1,1.7-1.6c0.3-0.7,0.5-1.6,0.5-2.7h-1.9
				c-0.6,0-1-0.2-1-0.7c0-0.5,0.3-0.7,1-0.7h6.7c1.1,0,1.7,0.6,1.7,1.8c0,1.7-0.2,3-0.5,3.9c-0.4,0.9-1.4,1.4-3.2,1.4
				c-0.6,0-0.9-0.3-0.9-0.8c0-0.5,0.4-0.7,1.1-0.8c0.7,0,1.2-0.2,1.4-0.4c0.3-0.4,0.5-1.4,0.5-3c0-0.4-0.2-0.6-0.6-0.6h-2.7
				c0,1.3-0.2,2.3-0.5,3.1c-0.3,0.8-0.8,1.5-1.5,2c-0.4,0.3-0.7,0.5-0.9,0.6c-0.2,0.1-0.5,0.2-0.7,0.2
				C177.6,57.9,177.4,57.6,177.4,57.1z M177.8,64.3c-0.3-0.3-0.4-0.7-0.4-1.2v-3c0-0.6,0.1-1,0.4-1.3c0.3-0.3,0.7-0.4,1.2-0.4h5.5
				c0.6,0,1,0.1,1.3,0.4c0.3,0.3,0.4,0.7,0.4,1.3v3c0,0.6-0.1,1-0.4,1.3c-0.3,0.3-0.7,0.4-1.2,0.4h-5.5
				C178.5,64.7,178.1,64.6,177.8,64.3z M184.5,63.1c0.1-0.1,0.2-0.3,0.2-0.5v-2c0-0.5-0.2-0.7-0.7-0.7h-4.3c-0.2,0-0.4,0.1-0.5,0.2
				c-0.1,0.1-0.2,0.3-0.2,0.5v2c0,0.2,0.1,0.4,0.2,0.5s0.3,0.2,0.5,0.2h4.3C184.3,63.2,184.4,63.2,184.5,63.1z"/>
			<path class="st1" d="M195.1,50.4c0,0.1-0.1,0.3-0.2,0.5l-1.2,2.9v13.3c0,0.7-0.3,1-0.8,1c-0.5,0-0.8-0.3-0.8-1v-9.7
				c-0.9,1.9-1.5,2.8-1.9,2.8c-0.5,0-0.8-0.3-0.8-1c0-0.2,0.1-0.4,0.3-0.7c1.4-2.2,2.6-4.9,3.7-8.2c0.1-0.2,0.2-0.4,0.3-0.5
				c0.1-0.1,0.3-0.2,0.5-0.2C194.8,49.6,195.1,49.8,195.1,50.4L195.1,50.4z M208.1,67c0,0.6-0.3,0.9-0.9,0.9c-0.7,0-1.8-0.3-3.4-0.8
				c-1.5-0.5-2.7-1-3.8-1.6c-0.7,0.7-1.7,1.3-2.8,1.8c-1,0.4-1.7,0.6-2.1,0.6c-0.6,0-0.9-0.3-0.9-0.9c0-0.4,0.4-0.7,1.1-0.9
				c1.2-0.3,2.3-0.8,3.3-1.6c-1.4-1.1-2-1.9-2-2.5c0-0.4,0.3-0.6,0.8-0.6c0.2,0,0.5,0.2,0.9,0.6c0.5,0.6,0.9,1,1.4,1.3
				c0.3-0.4,0.6-1.2,0.8-2.3h-2.9c-1.1,0-1.7-0.6-1.7-1.7v-4.3c0-1.1,0.6-1.7,1.7-1.7h3.2l0-1.5h-4.5c-0.6,0-0.9-0.3-0.9-0.8
				c0-0.2,0.1-0.4,0.2-0.6c0.1-0.1,0.4-0.2,0.7-0.2H207c0.6,0,1,0.3,1,0.8s-0.3,0.8-1,0.8h-4.8l0,1.5h3.3c1.2,0,1.8,0.6,1.7,1.7v4.3
				c0,0.6-0.1,1.1-0.4,1.4s-0.7,0.4-1.3,0.4h-3.5c-0.2,1.4-0.6,2.4-1,3.1c1.8,0.9,3.9,1.5,6.2,1.8C207.7,66.2,208.1,66.5,208.1,67z
				 M200.7,55H198c-0.4,0-0.6,0.2-0.6,0.6v1h3.2L200.7,55z M200.6,58.1h-3.2v1.1c0,0.4,0.2,0.6,0.6,0.6h2.5L200.6,58.1z M205.5,58.1
				h-3.4l-0.1,1.7h2.8c0.4,0,0.6-0.2,0.6-0.6V58.1z M202.2,55v1.7h3.3v-1c0-0.4-0.2-0.7-0.6-0.7H202.2z"/>
			<path class="st1" d="M214.8,67.2v-7.8c-0.5,1.4-1.2,2.6-2,3.7c-0.8,1.2-1.4,1.8-1.7,1.8c-0.5,0-0.8-0.3-0.8-0.9
				c0-0.3,0.2-0.6,0.6-1.1c1.6-1.8,2.9-3.9,3.7-6.3h-3.2c-0.7,0-1-0.3-1-0.8c0-0.5,0.3-0.8,1-0.8h3.3v-2.9l-3.1,0.3
				c-0.3,0-0.5,0-0.6-0.2c-0.1-0.1-0.2-0.4-0.2-0.6c0-0.3,0.1-0.4,0.3-0.6c0.1-0.1,0.6-0.2,1.3-0.2c1.9-0.1,3.8-0.4,5.7-1l0.4-0.1
				c0.6,0,0.9,0.3,0.9,0.9c0,0.3-0.2,0.5-0.5,0.6c-0.3,0.1-1.1,0.3-2.5,0.6v3.1h2.6c0.7,0,1,0.3,1,0.8c0,0.5-0.3,0.8-1,0.8h-2.6V59
				c0.1-0.2,0.3-0.3,0.6-0.3c0.1,0,0.3,0.1,0.6,0.4c0.3,0.3,0.6,0.6,1,1.1c0.9,1.1,1.3,1.8,1.3,2c0,0.5-0.3,0.8-0.8,0.8
				c-0.3,0-0.6-0.3-1-0.9c-0.2-0.3-0.6-0.9-1.4-1.9l-0.4-0.5v7.5c0,0.6-0.3,0.9-0.8,0.9C215,68.1,214.8,67.8,214.8,67.2z
				 M221.2,62.7V52.5c0-0.6,0.3-1,0.8-1c0.6,0,0.8,0.3,0.8,1v10.2c0,0.6-0.3,0.9-0.8,0.9C221.5,63.7,221.2,63.4,221.2,62.7z
				 M223,67.1c0-0.6,0.3-0.9,1-0.9h1.1c0.3,0,0.6-0.1,0.8-0.3c0.2-0.2,0.3-0.4,0.3-0.8V50.9c0-0.6,0.3-0.9,0.8-0.9
				c0.6,0,0.8,0.3,0.8,0.9v14.8c0,0.8-0.2,1.5-0.6,1.8c-0.4,0.4-1,0.6-1.8,0.5H224C223.4,68,223,67.7,223,67.1z"/>
			<path class="st1" d="M82.8,96.3V83.1h-0.7c-0.3,0-0.4,0.1-0.4,0.4v8.6c0,0.5-0.2,0.8-0.7,0.8c-0.5,0-0.7-0.3-0.7-0.8v-9
				c0-0.6,0.1-1,0.4-1.3c0.3-0.3,0.7-0.4,1.3-0.4h0.8v-2c0-0.6,0.3-1,0.8-1c0.5,0,0.8,0.3,0.8,1v2h0.9c0.6,0,1,0.1,1.3,0.4
				c0.3,0.3,0.4,0.7,0.4,1.3v8.1c0,0.6-0.1,1-0.4,1.2c-0.3,0.3-0.7,0.4-1.3,0.4c-0.6,0-0.9-0.3-0.9-0.8s0.2-0.8,0.6-0.8
				c0.3,0,0.5-0.1,0.5-0.4v-7.3c0-0.3-0.1-0.4-0.4-0.4h-0.8v13.2c0,0.6-0.2,0.8-0.7,0.8S82.8,96.9,82.8,96.3z M86.1,95.9
				c0-0.5,0.4-0.8,1.2-0.9l0.9-0.2v-5.5h-0.5c-0.5,0-0.7-0.3-0.7-0.8c0-0.5,0.2-0.7,0.7-0.7h0.5v-6.6c0-1.2,0.6-1.8,1.8-1.8h6.4
				c0.6,0,0.9,0.3,0.9,0.8c0,0.5-0.3,0.8-0.9,0.8h-6.1c-0.3,0-0.5,0.2-0.5,0.5v0.8h6c0.5,0,0.8,0.2,0.8,0.7c0,0.4-0.3,0.7-0.8,0.7
				h-6v1.4h6c0.5,0,0.8,0.2,0.8,0.7c0,0.4-0.3,0.7-0.8,0.7h-6v1.4h7.4c0.6,0,0.9,0.2,0.9,0.7c0,0.5-0.3,0.8-0.9,0.8H93
				c0.1,1.1,0.4,2,0.9,2.8c0.4-0.4,0.8-0.8,1.2-1.2l0.4-0.4c0.5-0.5,0.8-0.7,1.1-0.7c0.6,0,0.9,0.3,0.9,0.8c0,0.4-0.9,1.2-2.7,2.5
				c0.6,0.7,1.4,1.3,2.5,1.7c0.6,0.3,0.9,0.6,0.9,1c0,0.6-0.3,0.9-0.9,0.9c-0.8,0-1.9-0.7-3.2-2.2c-1.4-1.5-2.2-3.2-2.5-5.3h-1.7
				v5.1l2.4-0.8l0.1,0c0.2,0,0.4,0,0.5,0.2C93,93.8,93,94,93,94.3c0,0.3-0.2,0.6-0.6,0.8c-0.3,0.1-1.8,0.7-4.6,1.5
				c-0.5,0.1-0.8,0.2-0.9,0.2C86.4,96.8,86.1,96.5,86.1,95.9z"/>
			<path class="st1" d="M101.5,96.1c0-0.5,0.3-0.8,0.8-0.8h0.8c0.5,0,0.7-0.2,0.7-0.7v-5.5c-0.4,1.1-0.9,2.1-1.6,3
				c-0.6,0.9-1.1,1.4-1.4,1.4c-0.5,0-0.7-0.3-0.7-0.8c0-0.2,0.3-0.6,0.8-1.3c1.2-1.3,2-2.8,2.5-4.4h-2.4c-0.5,0-0.8-0.2-0.8-0.7
				c0-0.5,0.3-0.7,0.8-0.7h6.5c0.8,0,1.3,0.3,1.3,0.8c0,0.2-0.3,0.9-0.9,2c-0.6,1.1-1,1.6-1.3,1.6c-0.5,0-0.8-0.2-0.8-0.7
				c0-0.1,0.2-0.5,0.6-1.1c0.4-0.6,0.6-0.9,0.6-1.1c0-0.1-0.1-0.2-0.2-0.2h-1.4v7.9c0.1,1.4-0.6,2.1-2,2h-1
				C101.8,96.9,101.5,96.6,101.5,96.1z M104,85c-0.4-0.4-0.7-0.7-1.1-1c-0.4-0.3-0.7-0.5-0.9-0.7c-0.4-0.3-0.6-0.5-0.6-0.8
				c0-0.4,0.2-0.7,0.7-0.7c0.4,0,1,0.4,2.1,1.3c1.3-1.3,2-2,2-2.3c0-0.1-0.1-0.1-0.3-0.1h-4.6c-0.5,0-0.8-0.2-0.8-0.7
				c0-0.5,0.3-0.7,0.8-0.7h5.8c0.9,0,1.3,0.3,1.3,0.9c0,0.1,0,0.2-0.1,0.3c-0.1,0.1-0.2,0.3-0.4,0.5c-1.1,1.3-2,2.2-2.8,2.9
				c0.4,0.4,0.6,0.7,0.6,0.9c0,0.5-0.3,0.7-0.8,0.7C104.7,85.5,104.4,85.4,104,85z M112.7,96c0-0.5,0.3-0.8,0.8-0.8l1,0
				c0.7,0,1.1-0.2,1.3-0.5c0.2-0.4,0.3-1.2,0.5-2.4l0-0.6c0-0.3-0.2-0.5-0.6-0.5h-2.6c-0.4,2.3-1.6,3.9-3.8,5
				c-0.8,0.4-1.4,0.6-1.7,0.6c-0.5,0-0.7-0.3-0.7-0.9c0-0.3,0.3-0.6,0.8-0.7c2.2-0.7,3.5-2,4-3.9h-3c-0.5,0-0.8-0.2-0.8-0.7
				c0-0.5,0.3-0.7,0.8-0.7h3.1l0-0.3c0-0.7,0.1-1.1,0.2-1.3c0.1-0.1,0.3-0.2,0.6-0.2c0.5,0,0.8,0.2,0.8,0.7l-0.1,1.1v0.1h2.9
				c1.1,0,1.6,0.5,1.6,1.4c0,1.8-0.2,3.1-0.5,4.1c-0.4,1-1.4,1.5-3,1.5C113.2,96.9,112.7,96.6,112.7,96z M108.2,88.5
				c0-0.3,0.1-0.5,0.3-0.6c0.1-0.1,0.5-0.2,1.3-0.5c0.9-0.3,1.8-0.8,2.5-1.4c-0.9-0.9-1.5-2-2-3.3c-0.9,1.4-1.6,2.1-1.9,2.1
				c-0.5,0-0.7-0.3-0.7-0.8c0-0.2,0.1-0.4,0.4-0.7c1-1,1.8-2.3,2.4-4.2c0.1-0.4,0.4-0.7,0.8-0.7c0.5,0,0.8,0.2,0.8,0.7
				c0,0.2-0.2,0.6-0.5,1.4h6.4c0.6,0,0.8,0.3,0.8,0.8c0,0.5-0.3,0.7-0.8,0.7h-1.2c-0.6,1.6-1.3,2.9-2.3,3.9c0.9,0.6,2.1,1.1,3.6,1.6
				c0.5,0.2,0.7,0.4,0.7,0.8c0,0.6-0.3,0.9-0.8,0.9c-0.3,0-1-0.2-2.1-0.7c-1-0.5-1.9-1-2.6-1.5c-0.9,0.6-1.7,1.1-2.6,1.5
				c-0.9,0.5-1.6,0.7-1.9,0.7C108.4,89.3,108.2,89,108.2,88.5z M115.1,82.1h-3.6c0.5,1.4,1.1,2.4,1.9,3.1
				C114.2,84.2,114.8,83.2,115.1,82.1z"/>
			<path class="st1" d="M121.4,87.1c0-0.4,0.3-0.6,0.8-0.9c1.3-0.5,2.5-1.1,3.7-1.8c1.1-0.7,2.1-1.4,2.8-2.2H123c-0.6,0-1-0.3-1-0.8
				c0-0.3,0.1-0.5,0.2-0.6c0.1-0.1,0.4-0.2,0.7-0.2h6.7v-1.3c0-0.6,0.3-0.9,0.9-0.9c0.6,0,0.9,0.3,0.9,0.9v1.3h6.6
				c0.7,0,1,0.3,1,0.8c0,0.5-0.3,0.8-1,0.8h-5.5c1,0.8,2,1.5,3.1,2.1c1.1,0.6,2.2,1.2,3.2,1.6c0.6,0.2,0.9,0.5,0.9,0.9
				c0,0.6-0.3,0.9-0.9,0.9c-0.5,0-1.5-0.4-3-1.3c-0.8-0.4-1.6-1-2.3-1.6c-0.8-0.6-1.5-1.2-2-1.8v3c0,0.6-0.3,0.9-0.9,0.9
				c-0.6,0-0.9-0.3-0.9-0.9v-2.9c-1,0.9-1.8,1.6-2.4,2.2c-0.7,0.5-1.3,1-1.9,1.3c-1.6,0.9-2.6,1.3-3.1,1.3
				C121.7,88,121.4,87.7,121.4,87.1z M121.7,96.4c-0.2-0.1-0.2-0.3-0.2-0.6c0-0.3,0.1-0.5,0.2-0.6c0.2-0.1,0.4-0.2,0.8-0.2h15.8
				c0.3,0,0.6,0.1,0.7,0.2c0.2,0.1,0.2,0.3,0.2,0.6c0,0.3-0.1,0.5-0.2,0.6c-0.2,0.1-0.4,0.2-0.7,0.2h-15.8
				C122.2,96.6,121.9,96.5,121.7,96.4z M124.8,92.5v-3.6c0-1.1,0.6-1.6,1.8-1.6h8.1c1.2,0,1.8,0.5,1.8,1.6v3.6
				c0,1.1-0.6,1.6-1.8,1.6h-8.1C125.4,94,124.8,93.5,124.8,92.5z M134.8,89.3c0-0.5-0.2-0.7-0.7-0.7h-7c-0.5,0-0.7,0.2-0.7,0.7v0.6
				h8.4V89.3z M127.1,92.7h7c0.5,0,0.7-0.2,0.7-0.7v-0.7h-8.4V92C126.4,92.4,126.7,92.7,127.1,92.7z"/>
			<path class="st1" d="M142.7,83.7c-0.6,0-0.9-0.3-0.9-0.8c0-0.5,0.3-0.8,0.9-0.8h5.4c0.6,0,0.9,0.3,0.9,0.8c0,0.5-0.3,0.8-0.9,0.8
				H142.7z M142.5,80.1c0-0.5,0.3-0.8,0.9-0.8h4c0.6,0,0.9,0.3,0.9,0.8c0,0.5-0.3,0.8-0.9,0.8h-4C142.8,80.9,142.5,80.7,142.5,80.1z
				 M148.1,85.6c0,0.5-0.3,0.8-0.9,0.8h-3.8c-0.6,0-0.9-0.3-0.9-0.8c0-0.5,0.3-0.7,0.9-0.7h3.8C147.8,84.8,148.1,85.1,148.1,85.6z
				 M148.2,88.3c0,0.5-0.3,0.7-0.9,0.7h-3.9c-0.6,0-0.9-0.2-0.9-0.7c0-0.5,0.3-0.8,0.9-0.8h3.9C147.9,87.5,148.2,87.8,148.2,88.3z
				 M148.2,91.9v2.8c0,1.1-0.6,1.7-1.7,1.7h-2.3c-0.5,0-1-0.1-1.2-0.4c-0.3-0.3-0.4-0.7-0.4-1.2v-2.8c0-1.1,0.6-1.6,1.7-1.6h2.3
				C147.7,90.2,148.2,90.8,148.2,91.9z M146.7,92.1c0-0.3-0.2-0.5-0.5-0.5h-1.6c-0.3,0-0.5,0.2-0.5,0.5v2.2c0,0.3,0.2,0.5,0.5,0.5
				h1.6c0.3,0,0.5-0.2,0.5-0.5V92.1z M159.8,83.2c0,0.4,0,0.9,0,1.7c0,0.5,0,0.9,0,1.2c0,1.2-0.1,2.2-0.1,2.9
				c-0.2,3.2-0.4,5.3-0.8,6.4c-0.3,1-1.5,1.5-3.4,1.5c-0.7,0-1.1-0.3-1.1-0.9c0-0.6,0.4-0.9,1.2-0.9c0.5,0,0.9-0.1,1.2-0.2
				c0.3-0.1,0.5-0.4,0.6-0.8c0.2-0.6,0.3-1.7,0.4-3.4c0.1-1.7,0.2-4.1,0.3-7.1c0-0.3-0.1-0.4-0.2-0.6c-0.2-0.1-0.4-0.2-0.7-0.2h-6.2
				c-1.1,2.2-1.8,3.3-2.3,3.3c-0.5,0-0.7-0.3-0.7-0.8c0-0.1,0-0.2,0.1-0.3c0.1-0.1,0.1-0.2,0.2-0.3c0.9-1.3,1.7-3.2,2.4-5.5
				c0.1-0.5,0.4-0.8,0.9-0.8c0.6,0,0.8,0.2,0.8,0.7c0,0.2-0.1,0.5-0.2,0.9l-0.4,1.2h5.9C159.2,81.4,159.8,82,159.8,83.2z
				 M155.8,93.4c-0.3,0.3-0.7,0.4-1.3,0.4h-3.1c-0.6,0-1-0.1-1.3-0.4c-0.3-0.3-0.4-0.7-0.4-1.3v-5.6c0-0.6,0.1-1,0.4-1.3
				c0.3-0.3,0.7-0.4,1.3-0.4h3.1c0.6,0,1,0.1,1.3,0.4c0.3,0.3,0.4,0.7,0.4,1.3v5.6C156.2,92.7,156.1,93.1,155.8,93.4z M151.3,88.5
				h3.4v-1.6c0-0.4-0.2-0.6-0.6-0.6h-2.2c-0.4,0-0.6,0.2-0.6,0.6V88.5z M154.7,91.7v-1.8h-3.4v1.8c0,0.4,0.2,0.6,0.6,0.6h2.2
				C154.5,92.3,154.7,92.1,154.7,91.7z"/>
			<path class="st1" d="M168.7,95.7c0-0.1,0.1-0.4,0.2-0.7c0.6-1.5,1-3.5,1.2-6.2c0-0.5,0.3-0.8,0.8-0.8c0.5,0,0.7,0.2,0.7,0.7
				l-0.2,2.5c0.4,0.8,0.9,1.5,1.5,2.1v-6.7h-3.1c-0.6,0-0.9-0.2-0.9-0.7s0.3-0.7,0.9-0.7h3v-2.3h-2.5c-0.6,0-0.9-0.2-0.9-0.7
				c0-0.5,0.3-0.8,0.9-0.8h2.5v-2c0-0.5,0.3-0.8,0.8-0.8c0.3,0,0.5,0.1,0.6,0.2c0.1,0.1,0.2,0.3,0.2,0.6v2h1.6
				c0.6,0,0.9,0.3,0.9,0.8c0,0.5-0.3,0.7-0.9,0.7h-1.6v2.3h1.9c0.6,0,0.9,0.2,0.9,0.7s-0.3,0.7-0.9,0.7h-1.9V89h1.6
				c0.5,0,0.8,0.2,0.8,0.7c0,0.5-0.3,0.8-0.8,0.8h-1.6v3.7c1.2,0.5,3.4,0.7,6.6,0.7l5.5-0.1c0.5,0,0.8,0.2,0.8,0.8
				c0,0.6-0.5,0.9-1.4,0.9l-5.4,0c-3,0-5.2-0.3-6.6-0.9c-1.1-0.4-2-1.3-2.8-2.7c-0.5,2.4-1,3.7-1.5,3.7
				C169,96.6,168.7,96.3,168.7,95.7z M177.4,86c0-0.3,0.2-0.5,0.6-0.7c0.8-0.4,1.3-1,1.7-1.6c0.3-0.7,0.5-1.6,0.5-2.7h-1.9
				c-0.6,0-1-0.2-1-0.7c0-0.5,0.3-0.7,1-0.7h6.7c1.1,0,1.7,0.6,1.7,1.8c0,1.7-0.2,3-0.5,3.9c-0.4,0.9-1.4,1.4-3.2,1.4
				c-0.6,0-0.9-0.3-0.9-0.8c0-0.5,0.4-0.7,1.1-0.8c0.7,0,1.2-0.2,1.4-0.4c0.3-0.4,0.5-1.4,0.5-3c0-0.4-0.2-0.6-0.6-0.6h-2.7
				c0,1.3-0.2,2.3-0.5,3.1c-0.3,0.8-0.8,1.5-1.5,2c-0.4,0.3-0.7,0.5-0.9,0.6c-0.2,0.1-0.5,0.2-0.7,0.2
				C177.6,86.8,177.4,86.6,177.4,86z M177.8,93.3c-0.3-0.3-0.4-0.7-0.4-1.2v-3c0-0.6,0.1-1,0.4-1.3c0.3-0.3,0.7-0.4,1.2-0.4h5.5
				c0.6,0,1,0.1,1.3,0.4c0.3,0.3,0.4,0.7,0.4,1.3v3c0,0.6-0.1,1-0.4,1.3c-0.3,0.3-0.7,0.4-1.2,0.4h-5.5
				C178.5,93.6,178.1,93.5,177.8,93.3z M184.5,92c0.1-0.1,0.2-0.3,0.2-0.5v-2c0-0.5-0.2-0.7-0.7-0.7h-4.3c-0.2,0-0.4,0.1-0.5,0.2
				s-0.2,0.3-0.2,0.5v2c0,0.2,0.1,0.4,0.2,0.5c0.1,0.1,0.3,0.2,0.5,0.2h4.3C184.3,92.2,184.4,92.1,184.5,92z"/>
			<path class="st1" d="M189.5,83.2c0-0.3,0.5-0.7,1.4-1.2c0.9-0.5,1.9-1.1,3-1.9c0.3-0.2,0.6-0.4,0.8-0.4c0.6,0,0.8,0.3,0.8,0.8
				c0,0.4-0.8,1.2-2.3,2.1c-1.5,1-2.5,1.5-2.9,1.5C189.8,84,189.5,83.8,189.5,83.2z M193.2,96c-0.4-0.3-0.5-0.8-0.4-1.5v-5.9
				c0-0.5,0.1-0.9,0.2-1.2c-1.3,0.3-2.2,0.5-2.7,0.5c-0.5,0-0.8-0.3-0.8-0.8c0-0.2,0.1-0.4,0.3-0.6c0.2-0.1,0.5-0.2,0.9-0.3
				c5.3-0.6,9.3-1.7,11.8-3.5c0.5-0.4,0.9-0.6,1.2-0.6c0.3,0,0.5,0.1,0.7,0.2c0.2,0.1,0.2,0.3,0.2,0.6c0,0.4-0.8,0.9-2.2,1.7
				c-1.3,0.7-3.2,1.3-5.8,1.9h8.1c0.8,0,1.4,0.2,1.7,0.5c0.4,0.3,0.5,0.8,0.4,1.6v5.9c0.1,1.4-0.6,2.1-2.2,2h-9.7
				C194.1,96.4,193.5,96.3,193.2,96z M205.1,88.6c0-0.5-0.3-0.7-0.9-0.7h-9.2c-0.4,0-0.7,0.2-0.7,0.6v0.9h10.7V88.6z M205.1,92.1
				v-1.5h-10.7v1.5H205.1z M205.1,94.3v-0.9h-10.7v0.9c0,0.5,0.3,0.7,0.9,0.7h9C204.8,95,205.1,94.8,205.1,94.3z M195.4,83.7
				c0-0.5,0.3-0.8,1-0.8h0.8c0.6,0,0.9-0.3,0.9-0.8v-2.5c0-0.6,0.3-1,0.9-1c0.6,0,0.9,0.3,0.9,1v2.8c0,0.7-0.2,1.3-0.7,1.6
				c-0.4,0.3-1,0.5-1.8,0.5h-1C195.8,84.5,195.4,84.2,195.4,83.7z M205.9,82.8c-0.6-0.4-1.5-0.9-2.9-1.6c-0.6-0.3-1-0.6-1-0.9
				c0-0.5,0.3-0.8,0.8-0.8c0.3,0,1.1,0.3,2.3,1c1.2,0.6,2,1.1,2.4,1.4c0.3,0.2,0.4,0.4,0.4,0.7c0,0.6-0.3,0.9-0.9,0.9
				C207,83.4,206.6,83.2,205.9,82.8z"/>
			<path class="st1" d="M221.1,95.7c0-0.3,0.1-0.5,0.2-0.6c0.1-0.1,0.6-0.2,1.3-0.3c1.2-0.1,1.9-0.2,2.2-0.5
				c0.2-0.2,0.3-0.6,0.5-1.5c0.1-0.8,0.2-1.9,0.3-3.3l0.2-4.3c0-0.4-0.1-0.6-0.3-0.8c-0.2-0.2-0.5-0.3-0.8-0.3h-6
				c-0.2,3.3-0.8,5.8-1.9,7.6c-1.1,1.9-2.5,3.3-4.3,4.3c-0.4,0.2-0.6,0.4-0.9,0.4c-0.2,0.1-0.4,0.1-0.5,0.1c-0.6,0-0.9-0.3-0.9-1
				c0-0.4,0.2-0.6,0.6-0.8c2.4-1.2,4.1-2.9,5.1-5.2c0.3-0.6,0.5-1.3,0.6-2.2c0.1-0.9,0.3-2,0.3-3.4h-5c-0.4,0-0.6-0.1-0.8-0.2
				c-0.2-0.1-0.2-0.4-0.2-0.6c0-0.5,0.3-0.8,1-0.8h5.1l0-2.8c0-0.6,0.3-1,0.9-1c0.6,0,0.9,0.4,0.9,1.1c0,0.6,0,1.5,0,2.7h6.5
				c0.8,0,1.4,0.2,1.7,0.5c0.3,0.3,0.5,0.9,0.5,1.7c0,1.5-0.1,3.6-0.3,6.4c-0.2,2-0.4,3.3-0.6,4c-0.4,1.2-1.9,1.8-4.4,1.8
				C221.5,96.7,221.1,96.3,221.1,95.7z"/>
		</g>
	</g>
</g>
</svg>
