<?xml version="1.0" encoding="utf-8"?>
<!-- Generator: Adobe Illustrator 24.2.1, SVG Export Plug-In . SVG Version: 6.00 Build 0)  -->
<svg version="1.1" id="圖層_1" xmlns="http://www.w3.org/2000/svg" xmlns:xlink="http://www.w3.org/1999/xlink" x="0px" y="0px"
	 viewBox="0 0 807 169" style="enable-background:new 0 0 807 169;" xml:space="preserve">
<style type="text/css">
	.st0{fill:#6ACEBA;}
	.st1{fill:#FFC000;}
	.st2{fill:#FFAD00;}
	.st3{fill:#C0698E;}
	.st4{fill:#268D7D;}
</style>
<g>
	<path class="st0" d="M0.6,169c-1.1-7.5-4.8-66.2,58.1-61.9c0,0,32.2-29.4,60-3.1c0,0,54.7-75.7,117.3-16.6c0,0,115.2-28,111.9,81.6
		C347.9,169,181.4,169,0.6,169z"/>
	<path class="st1" d="M676.7,4c0,0-107-17.7-174.9,31.7c-55.6,40.5-59.8,73.1-185.2,70.1c-125.5-3-212.9,14.4-235,63.1H807
		C807,169,810.3,42.4,676.7,4z"/>
	<g>
		<path class="st2" d="M29,136.4c0,16.3-6.5,22.7-14.5,22.7S0,152.7,0,136.4s14.5-36.2,14.5-36.2S29,120.2,29,136.4z"/>
		<path class="st3" d="M15.4,117.8v48.8c0,0.1-0.1,0.1-0.1,0.1h-1.5c-0.1,0-0.1,0-0.1-0.1v-48.8c0-0.1,0.1-0.1,0.1-0.1h1.5
			C15.3,117.7,15.4,117.8,15.4,117.8z"/>
		<path class="st3" d="M14.5,142.2L14.5,142.2c-0.5-0.2-0.7-0.7-0.3-1l5.5-6.2c0.2-0.2,0.6-0.3,1-0.2l0,0c0.5,0.2,0.7,0.7,0.3,1
			l-5.5,6.2C15.2,142.2,14.8,142.3,14.5,142.2z"/>
		<path class="st3" d="M14.6,147.1L14.6,147.1c-0.3,0.1-0.7,0.1-0.9-0.1L8,142.5c-0.4-0.3-0.3-0.8,0.1-1l0,0
			c0.3-0.1,0.7-0.1,0.9,0.1l5.7,4.5C15.1,146.4,15.1,146.9,14.6,147.1z"/>
		<path class="st3" d="M20.2,149.9l-4.8,3l-0.5,0.3c-0.3,0.2-0.8,0.2-1.1,0l0,0c-0.1-0.1-0.2-0.2-0.2-0.3v-0.3
			c0-0.1,0.1-0.2,0.2-0.3l1.6-1l4-2.5c0,0,0.1,0,0.2,0l0.6,0.4C20.5,149.5,20.5,149.8,20.2,149.9z"/>
	</g>
	<g>
		<path class="st2" d="M53.9,127.9c0,29.4-7,32-15.6,32s-15.6-2.7-15.6-32c0-29.4,15.6-52.8,15.6-52.8S53.9,98.5,53.9,127.9z"/>
		<path class="st3" d="M39.3,113.2v55.2c0,0.1-0.1,0.1-0.1,0.1h-1.7c-0.1,0-0.1-0.1-0.1-0.1v-55.2c0-0.1,0.1-0.1,0.1-0.1L39.3,113.2
			C39.2,113.1,39.3,113.1,39.3,113.2z"/>
		<path class="st3" d="M38.3,140.7L38.3,140.7c-0.5-0.2-0.7-0.7-0.4-1.1l6.2-7c0.2-0.3,0.7-0.4,1.1-0.3l0,0c0.5,0.2,0.7,0.7,0.4,1.1
			l-6.2,7C39.1,140.8,38.7,140.9,38.3,140.7z"/>
		<path class="st3" d="M38.4,146.3L38.4,146.3c-0.3,0.2-0.8,0.1-1-0.1l-6.5-5.1c-0.4-0.3-0.3-0.9,0.2-1.1l0,0c0.3-0.2,0.8-0.1,1,0.1
			l6.5,5.1C39,145.4,38.9,146,38.4,146.3z"/>
		<path class="st3" d="M44.7,149.5l-5.4,3.4l-0.6,0.4c-0.3,0.2-0.9,0.2-1.2,0l0,0c-0.1-0.1-0.2-0.2-0.2-0.3v-0.4
			c0-0.1,0.1-0.2,0.2-0.3l1.8-1.1l4.5-2.8c0.1,0,0.1,0,0.2,0l0.7,0.4C45,149,45,149.3,44.7,149.5z"/>
	</g>
	<g>
		<path class="st2" d="M484.6,107.7c0,31.6-11.3,44.1-25.3,44.1S434,139.3,434,107.7s25.3-70.3,25.3-70.3S484.6,76.1,484.6,107.7z"
			/>
		<path class="st3" d="M461.2,88.2v80.6c0,0.1-0.1,0.2-0.3,0.2h-3.3c-0.1,0-0.3-0.1-0.3-0.2V88.2c0-0.1,0.1-0.2,0.3-0.2h3.3
			C461,88,461.2,88.1,461.2,88.2z"/>
		<path class="st4" d="M459.7,111.5l-1.5-0.8c-0.2-0.1-0.3-0.4-0.2-0.6l9.2-16.6c0.1-0.2,0.4-0.3,0.6-0.2l1.5,0.8
			c0.2,0.1,0.3,0.4,0.2,0.6l-9.2,16.6C460.2,111.5,459.9,111.6,459.7,111.5z"/>
		<path class="st4" d="M460.4,122.2l-1.3,1c-0.2,0.2-0.5,0.1-0.7-0.1l-9.7-12.2c-0.2-0.2-0.1-0.5,0.1-0.7l1.3-1
			c0.2-0.2,0.5-0.1,0.7,0.1l9.7,12.2C460.6,121.7,460.6,122,460.4,122.2z"/>
		<path class="st4" d="M468.4,129.1l-7.8,7.8l-1.4,1.4c-0.1,0.1-0.2,0.1-0.2,0l-0.9-0.9v-1.6l2.6-2.6l6-5.9c0.1-0.1,0.2-0.1,0.2,0
			l1.6,1.6C468.4,128.9,468.4,129.1,468.4,129.1z"/>
	</g>
	<g>
		<path class="st2" d="M437.7,128.6c0,25.6-8.2,35.7-18.3,35.7c-10.1,0-18.3-10.1-18.3-35.7s18.3-56.8,18.3-56.8
			S437.7,103.1,437.7,128.6z"/>
		<path class="st3" d="M420.7,112.9v56c0,0.1-0.1,0.1-0.2,0.1h-2.2c-0.1,0-0.2-0.1-0.2-0.1v-56c0-0.1,0.1-0.1,0.2-0.1h2.2
			C420.6,112.8,420.7,112.8,420.7,112.9z"/>
		<path class="st3" d="M419.6,131.6l-0.8-0.4c-0.4-0.2-0.5-0.6-0.3-0.9l8.6-12.9c0.2-0.3,0.7-0.4,1.1-0.3l0.8,0.4
			c0.4,0.2,0.5,0.6,0.3,0.9l-8.6,12.9C420.5,131.7,420,131.8,419.6,131.6z"/>
		<path class="st3" d="M420.2,140.6l-0.7,0.5c-0.4,0.2-0.9,0.2-1.2-0.1l-9-9.4c-0.3-0.3-0.2-0.7,0.1-1l0.7-0.5
			c0.4-0.2,0.9-0.2,1.2,0.1l9,9.4C420.7,139.9,420.6,140.3,420.2,140.6z"/>
		<path class="st3" d="M428.3,146l-7.6,6.3l-1.4,1.2c-0.1,0.1-0.2,0.1-0.2,0l-0.9-0.8v-1.3l2.5-2.1l5.8-4.8c0.1-0.1,0.2-0.1,0.2,0
			l1.6,1.3C428.4,145.8,428.4,145.9,428.3,146z"/>
	</g>
</g>
</svg>
