<?xml version="1.0" encoding="utf-8"?>
<!-- Generator: Adobe Illustrator 24.2.1, SVG Export Plug-In . SVG Version: 6.00 Build 0)  -->
<svg version="1.1" id="header" xmlns="http://www.w3.org/2000/svg" xmlns:xlink="http://www.w3.org/1999/xlink" x="0px" y="0px"
	 viewBox="0 0 87.7 138.1" style="enable-background:new 0 0 87.7 138.1;" xml:space="preserve">
<style type="text/css">
	.st0{fill:#268D7D;}
	.st1{fill:#FFFFFF;}
	.st2{fill:#437E7D;}
	.st3{fill:#C0698E;}
	.st4{fill:#4269B2;}
</style>
<g>
	<g>
		<rect x="24.3" class="st0" width="22.3" height="11.9"/>
		<g>
			<rect y="8.3" class="st1" width="30.7" height="124.3"/>
			<rect x="30.7" y="8.3" class="st0" width="22.3" height="124.3"/>
		</g>
		<g>
			<g>
				<rect x="4.7" y="29.6" class="st2" width="2" height="95"/>
			</g>
			<g>
				<rect x="11.1" y="29.6" class="st2" width="2" height="95"/>
			</g>
			<g>
				<rect x="17.6" y="29.6" class="st2" width="2" height="95"/>
			</g>
			<g>
				<rect x="24" y="29.6" class="st2" width="2" height="95"/>
			</g>
		</g>
		<rect x="5.9" class="st1" width="19" height="11.9"/>
		<g>
			<g>
				<rect x="5.1" y="22.3" class="st2" width="20.5" height="2"/>
			</g>
			<g>
				<rect x="5.1" y="18" class="st2" width="20.5" height="2"/>
			</g>
			<g>
				<rect x="5.1" y="13.6" class="st2" width="20.5" height="2"/>
			</g>
		</g>
	</g>
	<g>
		<polygon class="st3" points="87.7,32.3 87.7,138.1 57.3,138.1 57.3,32.3 66.7,32.3 		"/>
		<polygon class="st1" points="66.7,32.3 66.7,32.3 66.7,138.1 45.8,138.1 45.8,32.3 45.8,32.3 		"/>
		<path class="st4" d="M59.8,45.6L59.8,45.6c0,1.9-1.6,3.5-3.6,3.5l0,0c-2,0-3.6-1.6-3.6-3.6l0,0.1c0-2,1.6-3.6,3.6-3.6h0
			C58.2,42,59.8,43.6,59.8,45.6z"/>
		<rect x="55.2" y="56.9" class="st4" width="1.8" height="7.2"/>
		<rect x="55.2" y="69" class="st4" width="1.8" height="7.2"/>
		<rect x="55.2" y="81.2" class="st4" width="1.8" height="7.2"/>
		<rect x="55.2" y="93.3" class="st4" width="1.8" height="7.2"/>
		<rect x="55.2" y="105.4" class="st4" width="1.8" height="7.2"/>
		<rect x="55.2" y="117.6" class="st4" width="1.8" height="7.2"/>
	</g>
</g>
</svg>
