<?xml version="1.0" encoding="utf-8"?>
<!-- Generator: Adobe Illustrator 24.2.1, SVG Export Plug-In . SVG Version: 6.00 Build 0)  -->
<svg version="1.1" id="header" xmlns="http://www.w3.org/2000/svg" xmlns:xlink="http://www.w3.org/1999/xlink" x="0px" y="0px"
	 viewBox="0 0 1157.3 297" style="enable-background:new 0 0 1157.3 297;" xml:space="preserve">
<style type="text/css">
	.st0{fill:#C1E5DB;}
	.st1{fill:#84CDBC;}
	.st2{fill:#FFFFFF;}
</style>
<path class="st0" d="M692.3,46.8c0,0-525.5-191.8-692.3,201.4l417.5-42.1L692.3,46.8z"/>
<path class="st1" d="M802.9,58.8c10.8-22.4-13.1-19.4-13.1-19.4c-22.1-18.3-40.7,5.2-40.7,5.2c-14.5-0.7-14.9,9.3-14.9,9.3L821,74.2
	C824.6,54,802.9,58.8,802.9,58.8z"/>
<path class="st1" d="M1157.3,297H39.9c2.6-9.5,9.7-28.2,25.6-54.3c0.2-0.3,0.4-0.6,0.6-0.9c0.1-0.1,0.1-0.2,0.2-0.3
	c0.5-0.8,1-1.6,1.5-2.4c1.2-1.9,2.4-3.8,3.7-5.8c1.1-1.6,2.2-3.2,3.3-4.8c0.9-1.3,1.8-2.5,2.7-3.8c2.7-3.8,5.6-7.7,8.7-11.6
	c0,0,0,0,0,0c3.5-4.4,7.3-9,11.3-13.5c0,0,0,0,0,0c0,0,0,0,0,0c0,0,0,0,0,0c5.5-6.2,11.6-12.5,18.1-18.9
	c11.9-11.4,25.5-22.9,41.2-34.2c5.2-3.7,10.6-7.4,16.3-11.1c11.1-7.2,23.1-14.2,36.1-21c1-0.5,2.1-1.1,3.2-1.6
	c1.5-0.8,3-1.5,4.5-2.3c1.1-0.6,2.2-1.1,3.4-1.7c1.5-0.7,3.1-1.5,4.6-2.2c0.6-0.3,1.2-0.6,1.7-0.8c0.6-0.3,1.1-0.5,1.7-0.8
	c1.6-0.7,3.1-1.4,4.7-2.2c1.2-0.5,2.3-1.1,3.5-1.6c1.6-0.7,3.2-1.4,4.8-2.1c1.2-0.5,2.4-1,3.6-1.5c1.6-0.7,3.2-1.4,4.9-2h0
	c0.9-0.4,1.7-0.7,2.6-1.1c0,0,0,0,0,0c18.7-7.6,39.1-14.7,61.1-21.1c4-1.1,8-2.3,12.1-3.3c5.9-1.6,11.9-3.1,18-4.6
	c0.7-0.2,1.4-0.3,2.1-0.5c10-2.4,20.4-4.6,31.1-6.7c1-0.2,2.1-0.4,3.1-0.6c36-6.8,75.7-11.9,119.5-14.6c3.9-0.2,7.8-0.5,11.8-0.7h0
	c10.2-0.5,20.5-0.9,31.1-1.2c4.5-0.1,9-0.2,13.5-0.3c3.7-0.1,7.4-0.1,11.1-0.1c3.4,0,6.8,0,10.3,0c10.3,0,20.3,0.1,30.2,0.3
	c6.9,0.2,13.8,0.4,20.6,0.6c1.9,0.1,3.8,0.2,5.7,0.2c2.1,0.1,4.1,0.2,6.1,0.3c0.2,0,0.5,0,0.7,0c5.6,0.3,11.2,0.6,16.7,0.9
	c0.7,0,1.3,0.1,2,0.1c21.8,1.4,42.7,3.4,62.7,5.8c25.1,3.1,48.9,7,71.3,11.5c4.1,0.8,8.2,1.7,12.3,2.6c7.3,1.6,14.5,3.3,21.6,5
	c0.8,0.2,1.7,0.4,2.5,0.6c3.9,1,7.8,2,11.6,3c2.7,0.7,5.3,1.4,7.9,2.2c4.3,1.2,8.5,2.4,12.7,3.6c0.6,0.2,1.1,0.3,1.7,0.5
	c3,0.9,5.9,1.8,8.9,2.7c0.1,0,0.1,0,0.2,0.1c48.2,15.1,88.7,33.3,122.6,52.8h0c1.3,0.8,2.6,1.5,3.9,2.3c0.4,0.2,0.8,0.5,1.2,0.7
	c3.4,2,6.6,4,9.9,6c31,19.2,55.9,39.3,75.8,58.5c2.7,2.6,5.4,5.2,7.9,7.8c6.7,6.8,12.7,13.4,18.2,19.8c4,4.6,7.6,9.2,11,13.5
	c0.3,0.4,0.5,0.7,0.8,1.1c1.1,1.4,2.1,2.8,3.1,4.2c1.5,2.1,3,4.1,4.4,6.1C1146.9,275.4,1154.4,290,1157.3,297z"/>
<path class="st2" d="M567.6,125.6c-1.1,0.6-2.2,1.3-3.4,1.9c-0.6,0.3-1.2,0.6-1.8,0.9c-0.9,0.4-1.7,0.9-2.6,1.3
	c-3.8,1.9-8,3.7-12.3,5.5c-1.9,0.8-3.9,1.6-5.9,2.4c-6.1,2.4-12.4,4.6-18.7,6.7c-0.3,0.1-0.5,0.2-0.8,0.3c-0.5,0.2-1,0.3-1.5,0.5
	c-0.5,0.2-1,0.3-1.5,0.5c-6,2-11.7,3.8-17.1,5.4c-8.3,2.6-15.5,4.7-20.2,6.2c-1.4,0.4-2.5,0.8-3.5,1.2c-8.4,3-24,8.8-24.4,15
	c-1.5,23.2,47.3,17.4,45.2,45.2c-6.4,36.4-74.4,78.5-100.3,78.5c0,0-272,0-272,0c80.7-8.2,242.4-54.9,258.4-69.5
	c25.9-23.6-34.6-27-47.8-57.4c-11.1-25.5,93.7-41.9,154.3-53.9c10.9-2.2,20.3-4.2,27.4-6.1c1.4-0.4,2.6-0.7,3.8-1.1
	c4.5-1.4,7.7-2.7,9.2-3.9c0.1-0.1,0.2-0.1,0.2-0.2c0,0,0,0,0,0c3-2.8-1.2-5.4-9.5-7.7c-1.2-0.3-2.5-0.7-3.8-1
	c-7.5-1.9-17.4-3.7-28-5.5c-32.5-5.5-71.7-10.8-71-18.5c1-9.7,50-21.3,78.6-27.3c4.8-1,9-1.8,12.3-2.5h0c5-1,8-1.5,8-1.5h50.2
	c-0.8,0.1-1.6,0.2-2.4,0.3c-8.1,1.1-16,2.1-23.6,3.3c-17.9,2.6-34.2,5.4-46.6,8.3c-16.4,3.8-26.2,7.9-25,12.2
	c1.1,3.7,9.3,4.8,21.3,6.1c7.5,0.8,16.6,1.7,26.2,3.4c1.3,0.2,2.5,0.5,3.8,0.7c7.2,1.4,14.8,3.3,22.3,5.9c1.8,0.6,3.6,1.3,5.4,2
	c4.6,1.9,9.2,4.1,13.6,6.7c1.1,0.7,2.3,1.3,3.4,2c0.1,0,0.1,0.1,0.2,0.1c3.7,2.4,7.3,5.1,10.8,8.1
	C588.3,108.6,581.5,117.4,567.6,125.6z"/>
</svg>
