<?xml version="1.0" encoding="utf-8"?>
<!-- Generator: Adobe Illustrator 24.2.1, SVG Export Plug-In . SVG Version: 6.00 Build 0)  -->
<svg version="1.1" id="header" xmlns="http://www.w3.org/2000/svg" xmlns:xlink="http://www.w3.org/1999/xlink" x="0px" y="0px"
	 viewBox="0 0 105.3 124.2" style="enable-background:new 0 0 105.3 124.2;" xml:space="preserve">
<style type="text/css">
	.st0{fill:#488C7D;}
	.st1{fill:#9DCBC1;}
</style>
<g>
	<polygon class="st0" points="105.4,0 105.3,0.1 105.3,124.2 32.3,124.2 32.3,0 46.7,0 	"/>
	<polygon class="st1" points="58.6,0 58.6,0.1 58.6,124.2 0,124.2 0,0 0,0 	"/>
	<polygon class="st0" points="43.6,6.6 43.6,6.6 43.6,16.9 35.5,16.9 35.5,6.6 35.5,6.6 	"/>
	<polygon class="st0" points="24.3,6.6 24.3,6.6 24.3,16.9 16.2,16.9 16.2,6.6 16.2,6.6 	"/>
	<polygon class="st0" points="43.6,26.1 43.6,26.1 43.6,36.4 35.5,36.4 35.5,26.1 35.5,26.1 	"/>
	<polygon class="st0" points="24.3,26.1 24.3,26.1 24.3,36.4 16.2,36.4 16.2,26.1 16.2,26.1 	"/>
	<polygon class="st0" points="43.6,45.6 43.6,45.6 43.6,55.9 35.5,55.9 35.5,45.6 35.5,45.6 	"/>
	<polygon class="st0" points="24.3,45.6 24.3,45.6 24.3,55.9 16.2,55.9 16.2,45.6 16.2,45.6 	"/>
	<polygon class="st0" points="43.6,65.1 43.6,65.1 43.6,75.4 35.5,75.4 35.5,65.1 35.5,65.1 	"/>
	<polygon class="st0" points="24.3,65.1 24.3,65.1 24.3,75.4 16.2,75.4 16.2,65.1 16.2,65.1 	"/>
</g>
</svg>
