<?xml version="1.0" encoding="utf-8"?>
<!-- Generator: Adobe Illustrator 24.2.1, SVG Export Plug-In . SVG Version: 6.00 Build 0)  -->
<svg version="1.1" id="分離模式" xmlns="http://www.w3.org/2000/svg" xmlns:xlink="http://www.w3.org/1999/xlink" x="0px"
	 y="0px" viewBox="0 0 41.7 40.5" style="enable-background:new 0 0 41.7 40.5;" xml:space="preserve">
<style type="text/css">
	.st0{opacity:0.15;fill:#FFFFFF;}
	.st1{opacity:0.35;fill:#FFFFFF;}
	.st2{opacity:0.35;}
	.st3{fill:#FFFFFF;}
	.st4{filter:url(#Adobe_OpacityMaskFilter);}
	.st5{filter:url(#Adobe_OpacityMaskFilter_1_);}
	.st6{mask:url(#SVGID_1_);fill:url(#SVGID_2_);}
	.st7{fill:url(#SVGID_3_);}
</style>
<g>
	<rect x="13.7" y="13.8" class="st0" width="14.4" height="14.4"/>
	<rect x="17.3" y="17.4" class="st1" width="7.1" height="7.1"/>
	<g class="st2">
		<path class="st3" d="M20.9,40.5C10.1,40.5,1.3,31.7,1.3,21c0-10.8,8.8-19.6,19.6-19.6c10.8,0,19.6,8.8,19.6,19.6
			C40.4,31.7,31.7,40.5,20.9,40.5z M20.9,5.4c-8.6,0-15.6,7-15.6,15.6c0,8.6,7,15.6,15.6,15.6c8.6,0,15.6-7,15.6-15.6
			C36.4,12.4,29.4,5.4,20.9,5.4z"/>
	</g>
	<g>
		<g>
			<path class="st3" d="M2.3,20.9H0c0-3.4,0.8-6.7,2.4-9.7c1-2,2.4-3.8,4-5.3c1.1-1,2.3-2,3.5-2.7L11.1,5C10,5.7,8.9,6.5,8,7.5
				c-1.4,1.4-2.6,3-3.6,4.7C3,14.8,2.3,17.8,2.3,20.9z"/>
		</g>
		<g>
			<path class="st3" d="M10.1,38.7c-2.7-1.6-5-3.8-6.7-6.5l1.9-1.2c1.5,2.3,3.6,4.3,6,5.8L10.1,38.7z"/>
		</g>
		<g>
			<path class="st3" d="M30.3,39.5l-1-2c2.4-1.2,4.5-2.9,6.1-5c2.6-3.3,4-7.3,4-11.6c0-3.7-1.1-7.3-3.1-10.3l1.9-1.3
				c2.3,3.4,3.5,7.4,3.5,11.6c0,4.8-1.6,9.3-4.5,13C35.4,36.2,33,38.1,30.3,39.5z"/>
		</g>
		<g>
			<path class="st3" d="M29.8,4.5c-2.7-1.5-5.8-2.3-9-2.3V0c3.5,0,7,0.9,10,2.6L29.8,4.5z"/>
		</g>
	</g>
	<g>
		<defs>
			<filter id="Adobe_OpacityMaskFilter" filterUnits="userSpaceOnUse" x="5" y="5.1" width="31.7" height="31.7">
				<feFlood  style="flood-color:white;flood-opacity:1" result="back"/>
				<feBlend  in="SourceGraphic" in2="back" mode="normal"/>
			</filter>
		</defs>
		<mask maskUnits="userSpaceOnUse" x="5" y="5.1" width="31.7" height="31.7" id="SVGID_1_">
			<g class="st4">
				<defs>
					<filter id="Adobe_OpacityMaskFilter_1_" filterUnits="userSpaceOnUse" x="5" y="5.1" width="31.7" height="31.7">
						<feFlood  style="flood-color:white;flood-opacity:1" result="back"/>
						<feBlend  in="SourceGraphic" in2="back" mode="normal"/>
					</filter>
				</defs>
				<mask maskUnits="userSpaceOnUse" x="5" y="5.1" width="31.7" height="31.7" id="SVGID_1_">
					<g class="st5">
					</g>
				</mask>
				<linearGradient id="SVGID_2_" gradientUnits="userSpaceOnUse" x1="33.0527" y1="31.0457" x2="8.7289" y2="10.9075">
					<stop  offset="0" style="stop-color:#FFFFFF"/>
					<stop  offset="0.5294" style="stop-color:#FFFFFF"/>
					<stop  offset="0.5312" style="stop-color:#F7F7F7"/>
					<stop  offset="0.5339" style="stop-color:#E2E2E2"/>
					<stop  offset="0.5373" style="stop-color:#C0C0C0"/>
					<stop  offset="0.541" style="stop-color:#909090"/>
					<stop  offset="0.5452" style="stop-color:#525252"/>
					<stop  offset="0.5497" style="stop-color:#080808"/>
					<stop  offset="0.5502" style="stop-color:#000000"/>
					<stop  offset="0.9913" style="stop-color:#000000"/>
				</linearGradient>
				<path class="st6" d="M20.9,36.8C12.1,36.8,5,29.7,5,21c0-8.7,7.1-15.8,15.8-15.8S36.7,12.2,36.7,21
					C36.7,29.7,29.6,36.8,20.9,36.8z M20.9,5.8C12.5,5.8,5.7,12.6,5.7,21c0,8.4,6.8,15.2,15.2,15.2S36.1,29.3,36.1,21
					C36.1,12.6,29.2,5.8,20.9,5.8z"/>
			</g>
		</mask>
		<linearGradient id="SVGID_3_" gradientUnits="userSpaceOnUse" x1="33.0527" y1="31.0457" x2="8.7289" y2="10.9075">
			<stop  offset="0" style="stop-color:#FFFFFF"/>
			<stop  offset="0.5294" style="stop-color:#FFFFFF"/>
			<stop  offset="0.5312" style="stop-color:#F7F7F7"/>
			<stop  offset="0.5339" style="stop-color:#E2E2E2"/>
			<stop  offset="0.5373" style="stop-color:#C0C0C0"/>
			<stop  offset="0.541" style="stop-color:#909090"/>
			<stop  offset="0.5452" style="stop-color:#525252"/>
			<stop  offset="0.5497" style="stop-color:#080808"/>
			<stop  offset="0.5502" style="stop-color:#000000"/>
			<stop  offset="0.9913" style="stop-color:#000000"/>
		</linearGradient>
		<path class="st7" d="M20.9,36.8C12.1,36.8,5,29.7,5,21c0-8.7,7.1-15.8,15.8-15.8S36.7,12.2,36.7,21C36.7,29.7,29.6,36.8,20.9,36.8
			z M20.9,5.8C12.5,5.8,5.7,12.6,5.7,21c0,8.4,6.8,15.2,15.2,15.2S36.1,29.3,36.1,21C36.1,12.6,29.2,5.8,20.9,5.8z"/>
	</g>
</g>
</svg>
