<?xml version="1.0" encoding="utf-8"?>
<!-- Generator: Adobe Illustrator 24.2.1, SVG Export Plug-In . SVG Version: 6.00 Build 0)  -->
<svg version="1.1" id="funtion" xmlns="http://www.w3.org/2000/svg" xmlns:xlink="http://www.w3.org/1999/xlink" x="0px" y="0px"
	 viewBox="0 0 103.1 175.6" style="enable-background:new 0 0 103.1 175.6;" xml:space="preserve">
<style type="text/css">
	.st0{opacity:0.3;fill:#5BC568;}
	.st1{opacity:0.5;fill:#52B434;}
	.st2{fill:#FFFFFF;}
	.st3{fill:url(#SVGID_1_);}
	.st4{opacity:0.6;fill:url(#SVGID_2_);}
	.st5{fill:url(#SVGID_3_);}
	.st6{fill:url(#SVGID_4_);}
</style>
<g>
	<g>
		<path class="st0" d="M88,166.9c-20.1,11.6-52.8,11.6-72.9,0c-20.1-11.6-20.1-30.5,0-42.1c20.1-11.6,52.8-11.6,72.9,0
			C108.1,136.5,108.2,155.3,88,166.9z"/>
		<path class="st1" d="M75.7,159.8c-13.3,7.7-34.9,7.7-48.2,0c-13.3-7.7-13.3-20.2,0-27.8c13.3-7.7,34.9-7.7,48.2,0
			C89,139.6,89,152.1,75.7,159.8z"/>
		<path class="st2" d="M63.4,152.8c-6.6,3.8-17.2,3.8-23.8,0c-6.6-3.8-6.6-9.9,0-13.7c6.6-3.8,17.2-3.8,23.8,0
			C70,142.8,70,149,63.4,152.8z"/>
		<path class="st1" d="M58.7,149.6c-3.9,2.3-10.4,2.3-14.3,0c-3.9-2.3-3.9-6,0-8.3c4-2.3,10.4-2.3,14.3,0
			C62.7,143.6,62.7,147.3,58.7,149.6z"/>
		<path class="st2" d="M54.6,147.2c-1.7,1-4.4,1-6.1,0c-1.7-1-1.7-2.5,0-3.5c1.7-1,4.4-1,6.1,0C56.3,144.7,56.3,146.2,54.6,147.2z"
			/>
	</g>
	<g>
		<linearGradient id="SVGID_1_" gradientUnits="userSpaceOnUse" x1="0.4856" y1="-23.3663" x2="80.6563" y2="115.4935">
			<stop  offset="0" style="stop-color:#E94958"/>
			<stop  offset="1" style="stop-color:#EF9491"/>
		</linearGradient>
		<path class="st3" d="M51.8,3.4c-8.8-4.1-20.2-4.5-25.7-1.2l0,0L13.3,8.6l20.9,103.6l15.1-5.1c0,0,22.1-17.9,27.7-47.5
			C82.1,33.1,68.5,11.2,51.8,3.4z M44.8,53.2c-0.7-0.3-1.4-0.6-2.1-1c-6.8-3.9-12.3-13.5-12.3-21.4c0-0.2,0-0.5,0-0.7
			c0.7,0.3,1.4,0.6,2.1,1c6.8,3.9,12.3,13.5,12.4,21.4C44.8,52.7,44.8,52.9,44.8,53.2z"/>
		<linearGradient id="SVGID_2_" gradientUnits="userSpaceOnUse" x1="5.8486" y1="58.5491" x2="66.1242" y2="58.5491">
			<stop  offset="0.1845" style="stop-color:#E15CE3"/>
			<stop  offset="1" style="stop-color:#E9AB73"/>
		</linearGradient>
		<path class="st4" d="M36,8.4C18.1,1.3,5.8,8.6,5.8,27.8C5.8,47,36,111.4,36,111.4s30.1-30.8,30.1-53.5C66.1,38.6,54.3,15.7,36,8.4
			z M36,57C29.2,53,23.6,43.4,23.6,35.6s5.5-11.1,12.4-7.1c6.8,3.9,12.3,13.5,12.4,21.4C48.3,57.7,42.8,60.9,36,57z"/>
		<linearGradient id="SVGID_3_" gradientUnits="userSpaceOnUse" x1="4.0853" y1="60.0773" x2="64.1038" y2="60.0773">
			<stop  offset="0" style="stop-color:#E94958"/>
			<stop  offset="1" style="stop-color:#EF9491"/>
		</linearGradient>
		<path class="st5" d="M34.2,10.3C16,4.2,4.1,9.5,4.1,28.7c0,19.2,30.1,83.5,30.1,83.5s29.9-32.9,29.9-54.4
			C64.1,38.6,51.9,16.2,34.2,10.3z M42.7,52.2c-6.8-3.9-12.3-13.5-12.3-21.4c0-0.2,0-0.5,0-0.7c0.7,0.3,1.4,0.6,2.1,1
			c6.8,3.9,12.3,13.5,12.4,21.4c0,0.2,0,0.5,0,0.7C44.1,52.9,43.4,52.6,42.7,52.2z"/>
		<linearGradient id="SVGID_4_" gradientUnits="userSpaceOnUse" x1="22.2863" y1="31.0554" x2="39.7429" y2="61.2912">
			<stop  offset="0" style="stop-color:#E94958"/>
			<stop  offset="1" style="stop-color:#EF9436"/>
		</linearGradient>
		<path class="st6" d="M42.7,52.2c-6.8-3.9-12.3-13.5-12.3-21.4c0-0.2,0-0.5,0-0.7c0.3,0.1,0.7,0.3,1,0.4c-6.3-3-11.3,0.2-11.3,7.7
			c0,7.9,5.5,17.4,12.3,21.4c6.6,3.8,12,0.9,12.3-6.4C44.1,52.9,43.4,52.6,42.7,52.2z"/>
	</g>
</g>
</svg>
