<?xml version="1.0" encoding="utf-8"?>
<!-- Generator: Adobe Illustrator 24.2.1, SVG Export Plug-In . SVG Version: 6.00 Build 0)  -->
<svg version="1.1" id="header" xmlns="http://www.w3.org/2000/svg" xmlns:xlink="http://www.w3.org/1999/xlink" x="0px" y="0px"
	 viewBox="0 0 1096.8 127.4" style="enable-background:new 0 0 1096.8 127.4;" xml:space="preserve">
<style type="text/css">
	.st0{fill:#27AE58;}
	.st1{fill:#488C7D;}
</style>
<path class="st0" d="M1096.8,127.4H481.4L0,125.1l17.6-20.4l13.9-16.1c7.6-5.4,20.3-10.8,35.3-15.5c0,0,0,0,0,0h0
	c11-3.5,23.2-6.6,35.7-9.2c5.3-1.1,10.7-2.1,16-3c1.5-0.3,3.1-0.5,4.6-0.8c0.2,0,0.5-0.1,0.7-0.1c2.1-0.3,4.2-0.6,6.3-0.9
	c1.1-0.2,2.2-0.3,3.3-0.4c0.4,0,0.7-0.1,1.1-0.1h0c0.5-0.1,1.1-0.1,1.6-0.2c1-0.1,2.1-0.3,3.1-0.4h0c4.6-0.5,9.1-0.9,13.5-1.2h0
	c4.3-0.3,8.4-0.5,12.3-0.5c3,0,6.1,0,9.3,0c7.2,0,15,0.1,23.4,0.2c3.4,0.1,7,0.1,10.6,0.2c0.5,0,1,0,1.5,0c0.3,0,0.5,0,0.8,0h0
	c0.5,0,1,0,1.6,0c1.1,0,2.2,0.1,3.3,0.1c2.2,0.1,4.5,0.1,6.8,0.2c0.6,0,1.3,0,1.9,0.1c0.8,0,1.6,0,2.5,0.1h0
	c3.6,0.1,7.3,0.2,10.9,0.2c17.7,0.3,35.6,0.4,53.6,0.2c8.2-0.1,16.4-0.2,24.6-0.3c1.8,0,3.7-0.1,5.5-0.1c0.6,0,1.2,0,1.7,0
	c0.1,0,0.2,0,0.3,0c0.7,0,1.5,0,2.2,0c0.6,0,1.2,0,1.8,0c3.3-0.1,6.5-0.2,9.7-0.2c0.8,0,1.5,0,2.3-0.1c7.5-0.2,14.9-0.4,22.2-0.7
	c15.4-0.5,30.3-1.1,44.6-1.8c0,0,0,0,0,0h0c8.4-0.4,16.6-0.8,24.5-1.3c4.3-0.2,8.5-0.5,12.7-0.7c23.3-1.3,43.7-2.7,59.5-3.9
	c16.1-1.2,40.2-3.1,69.1-5.1c0.8-0.1,1.7-0.1,2.5-0.2h0c13.1-0.9,27.2-1.8,41.9-2.7c12.7-0.8,25.9-1.5,39.5-2.1
	c48.9-2.3,102.3-3.8,152.2-2.7h0c12,0.3,23.8,0.7,35.3,1.3c7,0.4,13.6,0.8,19.9,1.2c6.9,0.5,13.4,1,19.5,1.5h0
	c15.1,1.4,27.8,2.9,38.3,4.6c3.5,0.5,6.7,1.1,9.8,1.7c0.1,0,0.1,0,0.2,0c1.3,0.3,2.6,0.5,3.9,0.8c10.1,2,17.6,4.1,23.1,6
	c0.3,0.1,0.6,0.2,0.9,0.3h0c0.3,0.1,0.5,0.2,0.8,0.3c0.8,0.3,1.5,0.6,2.1,0.8c6.2,2.5,9.1,4.6,10.5,6c0.9,0.9,1.1,1.4,1.1,1.4
	l8.2,2.2l14.1,3.7l19.1,5.1l0.2,0.1l42.5,11.3l6.4,1.7L1096.8,127.4z"/>
<path class="st1" d="M326.6,62c0,0,1.4-17,17.2-12c0,0,12.3-29.3,39.1-13.1c0,0,17.6-10.1,30.4,9c0,0,25.8,1.5,20.6,12
	C428.8,68.4,326.6,62,326.6,62z"/>
<path class="st0" d="M659.2,50.5c-0.7-4.5-2.8-27.8,34.8-25.2c0,0,19.3-17.6,35.9-1.9c0,0,32.8-45.3,70.2-10
	c0,0,68.9-26.1,66.9,39.5C867,53,767.5,48.9,659.2,50.5z"/>
</svg>
