<?xml version="1.0" encoding="utf-8"?>
<!-- Generator: Adobe Illustrator 24.2.1, SVG Export Plug-In . SVG Version: 6.00 Build 0)  -->
<svg version="1.1" id="header" xmlns="http://www.w3.org/2000/svg" xmlns:xlink="http://www.w3.org/1999/xlink" x="0px" y="0px"
	 viewBox="0 0 441.9 96.2" style="enable-background:new 0 0 441.9 96.2;" xml:space="preserve">
<style type="text/css">
	.st0{fill:#F9C300;}
</style>
<path class="st0" d="M441.9,96.2C438,86,425.9,67,393.1,81.9c-8.8-9.1-18.2-15.6-27.7-20c-47.9-22.3-99.7,6.6-99.7,6.6
	s0.1-5.7-2.2-13.7c-0.1-0.4-0.2-0.7-0.3-1.1c-1-3.4-2.5-7.2-4.6-11.2c-0.1-0.2-0.2-0.4-0.3-0.5c-0.3-0.5-0.5-1-0.8-1.5
	c-0.4-0.7-0.8-1.4-1.3-2.1c-0.8-1.3-1.6-2.5-2.6-3.8c-0.2-0.3-0.5-0.6-0.7-0.9c-1.4-1.9-3-3.8-4.8-5.6c-0.9-1-1.9-2-3-3
	c-10.3-9.6-25.6-18.1-48.7-22.3C187,1,176.2,0,164,0c-16.9,0-29.7,3.7-39.5,9.6c-16.7,10.2-24.5,27-27.7,43.7
	c-9.7-6.1-21.2-9.7-33.5-9.7C28.5,43.7,0,61.4,0,96.2H441.9z"/>
</svg>
