<?xml version="1.0" encoding="utf-8"?>
<!-- Generator: Adobe Illustrator 24.2.1, SVG Export Plug-In . SVG Version: 6.00 Build 0)  -->
<svg version="1.1" id="header" xmlns="http://www.w3.org/2000/svg" xmlns:xlink="http://www.w3.org/1999/xlink" x="0px" y="0px"
	 viewBox="0 0 364.9 144.7" style="enable-background:new 0 0 364.9 144.7;" xml:space="preserve">
<style type="text/css">
	.st0{fill:#FFAD00;}
	.st1{fill:#C0698E;}
	.st2{fill:#6ACEBA;}
	.st3{fill:#8FCCC0;}
</style>
<g>
	<path class="st0" d="M36.6,94.3c0,25.5-8.2,35.7-18.3,35.7C8.2,130,0,119.9,0,94.3s18.3-56.8,18.3-56.8S36.6,68.8,36.6,94.3z"/>
	<path class="st1" d="M19.6,78.6v66c0,0.1-0.1,0.1-0.2,0.1h-2.2c-0.1,0-0.2-0.1-0.2-0.1v-66c0-0.1,0.1-0.1,0.2-0.1h2.2
		C19.5,78.5,19.6,78.5,19.6,78.6z"/>
	<path class="st1" d="M18.4,97.3l-0.8-0.4c-0.4-0.2-0.5-0.6-0.3-0.9l8.6-12.9c0.2-0.3,0.7-0.4,1.1-0.3l0.8,0.4
		c0.4,0.2,0.5,0.6,0.3,0.9L19.5,97C19.3,97.3,18.8,97.5,18.4,97.3z"/>
	<path class="st1" d="M19.1,106.3l-0.7,0.5c-0.4,0.2-0.9,0.2-1.2-0.1l-9-9.4c-0.3-0.3-0.2-0.7,0.1-1l0.7-0.5
		c0.4-0.2,0.9-0.2,1.2,0.1l9,9.4C19.5,105.6,19.5,106,19.1,106.3z"/>
	<path class="st1" d="M27.2,111.7l-7.6,6.3l-1.4,1.2c-0.1,0.1-0.2,0.1-0.2,0l-0.9-0.8v-1.3l2.5-2.1l5.8-4.8c0.1-0.1,0.2-0.1,0.2,0
		l1.6,1.3C27.2,111.5,27.2,111.6,27.2,111.7z"/>
</g>
<g>
	<path class="st2" d="M364.9,45.6c0,20.5-6.6,28.6-14.7,28.6s-14.7-8.1-14.7-28.6c0-20.5,14.7-45.6,14.7-45.6S364.9,25.1,364.9,45.6
		z"/>
</g>
<g>
	<path class="st3" d="M324.8,52.9c0,14.8-4.8,20.7-10.6,20.7c-5.9,0-10.6-5.9-10.6-20.7s10.6-33,10.6-33S324.8,38,324.8,52.9z"/>
</g>
</svg>
