<?xml version="1.0" encoding="utf-8"?>
<!-- Generator: Adobe Illustrator 24.2.1, SVG Export Plug-In . SVG Version: 6.00 Build 0)  -->
<svg version="1.1" id="header" xmlns="http://www.w3.org/2000/svg" xmlns:xlink="http://www.w3.org/1999/xlink" x="0px" y="0px"
	 viewBox="0 0 61 105.4" style="enable-background:new 0 0 61 105.4;" xml:space="preserve">
<style type="text/css">
	.st0{fill:#268D7D;}
	.st1{fill:#FFAD00;}
	.st2{fill:#FFFFFF;}
	.st3{fill:#F8FFDF;}
	.st4{fill:#FFB800;}
	.st5{fill:#FFD100;}
	.st6{clip-path:url(#SVGID_2_);fill:#B0EAA1;}
	.st7{clip-path:url(#SVGID_2_);}
	.st8{fill:#FFCF00;}
	.st9{fill:url(#SVGID_3_);}
	.st10{fill:url(#SVGID_4_);}
</style>
<g>
	<g>
		<ellipse class="st0" cx="30" cy="104" rx="30.1" ry="1.4"/>
		<path class="st1" d="M52.7,104.2H6.2c-3.4,0-6.2-2.8-6.2-6.2V6.2C0,2.8,2.8,0,6.2,0h46.4c3.4,0,6.2,2.8,6.2,6.2v91.7
			C58.9,101.4,56.1,104.2,52.7,104.2z"/>
		<circle class="st2" cx="29.5" cy="97.2" r="4.3"/>
		<path class="st3" d="M47.8,90.5H11.2c-3.4,0-6.2-2.8-6.2-6.2V11.4c0-3.4,2.8-6.2,6.2-6.2h36.6c3.4,0,6.2,2.8,6.2,6.2v72.8
			C54,87.7,51.2,90.5,47.8,90.5z"/>
		<circle class="st1" cx="29.5" cy="97.2" r="3.8"/>
	</g>
	<g>
		<path class="st4" d="M45.6,48.5l-26,12.8c-1.4,0.7-3.2,0.1-3.9-1.3L8.3,44.8c-0.7-1.4-0.1-3.2,1.3-3.9l26-12.8
			c1.4-0.7,3.2-0.1,3.9,1.3l7.4,15.2C47.7,46.1,47.1,47.8,45.6,48.5z"/>
	</g>
	<g>
		<path class="st5" d="M47.5,58.1l-28.2,6.8c-1.5,0.4-3.1-0.6-3.5-2.1l-3.9-16.4c-0.4-1.5,0.6-3.1,2.1-3.5l28.2-6.8
			c1.5-0.4,3.1,0.6,3.5,2.1l3.9,16.4C50,56.2,49,57.8,47.5,58.1z"/>
	</g>
	<g>
		<defs>
			<path id="SVGID_1_" d="M46,67.4H17c-1.6,0-2.9-1.3-2.9-2.9V47.6c0-1.6,1.3-2.9,2.9-2.9h29c1.6,0,2.9,1.3,2.9,2.9v16.9
				C48.9,66.1,47.6,67.4,46,67.4z"/>
		</defs>
		<clipPath id="SVGID_2_">
			<use xlink:href="#SVGID_1_"  style="overflow:visible;"/>
		</clipPath>
		<path class="st6" d="M46,67.4H17c-1.6,0-2.9-1.3-2.9-2.9V47.6c0-1.6,1.3-2.9,2.9-2.9h29c1.6,0,2.9,1.3,2.9,2.9v16.9
			C48.9,66.1,47.6,67.4,46,67.4z"/>
		<g class="st7">
			<path class="st8" d="M47.8,60.4c-0.7-0.6-1.1-1.5-1.2-2.4c0-0.3-0.1-0.6-0.1-0.8l0,0c-0.5-1.8-1.8-3.3-3.6-3.9
				c-0.1,0-0.3-0.1-0.4-0.2l0,0c-0.7-0.3-1.3-0.9-1.8-1.5c-1.1-2-3.4-3.2-5.6-2.9c-0.9,0.1-1.9-0.1-2.6-0.6c-1.9-1.3-4.5-1.3-6.4,0
				c-0.8,0.5-1.7,0.7-2.6,0.6c-2.3-0.3-4.5,0.8-5.6,2.9c-0.5,0.8-1.2,1.4-2.1,1.7c-2.1,0.7-3.5,2.6-3.7,4.7
				c-0.1,0.9-0.5,1.8-1.2,2.4c-1.2,1.1-1.8,2.7-1.8,4.4v0.1c0,3,2.3,5.6,5.3,6l0,0c0.3,0,0.6,0.1,0.8,0.1h8.8c0.8,0,1.5,0.7,1.5,1.5
				v0.4c0,0.8-0.6,1.5-1.4,1.6l-7.1,1.2c-0.3,0-0.5,0.2-0.5,0.5v0.9h26V76c0-0.3-0.2-0.5-0.5-0.5l-7.2-1.2c-0.8-0.1-1.4-0.8-1.4-1.6
				v-0.3c0-0.8,0.7-1.5,1.5-1.5h8.8c3.4,0,6.1-2.7,6.1-6.1c0,0,0,0,0,0C49.6,63.1,48.9,61.5,47.8,60.4z"/>
			
				<linearGradient id="SVGID_3_" gradientUnits="userSpaceOnUse" x1="34.3632" y1="783.9077" x2="14.9889" y2="807.829" gradientTransform="matrix(1 0 0 1 0 -738)">
				<stop  offset="0" style="stop-color:#FFF700"/>
				<stop  offset="1" style="stop-color:#FFCF00"/>
			</linearGradient>
			<path class="st9" d="M26,48.1c-0.8,0.5-1.7,0.7-2.6,0.6c-2.3-0.3-4.5,0.8-5.6,2.9c-0.5,0.8-1.2,1.4-2.1,1.7
				c-2.1,0.7-3.5,2.5-3.7,4.7c-0.1,0.9-0.5,1.8-1.2,2.4c-1.2,1.1-1.9,2.7-1.8,4.4v0.1c3.6-3.6,7.8-6.5,12.5-8.6
				c7.5-3.4,15.2-4.4,21.1-3.2c-0.7-0.3-1.3-0.9-1.8-1.5c-1.1-2-3.4-3.2-5.6-2.9c-0.9,0.1-1.9-0.1-2.6-0.6
				C30.5,46.8,27.9,46.8,26,48.1"/>
			
				<linearGradient id="SVGID_4_" gradientUnits="userSpaceOnUse" x1="40.0726" y1="783.5984" x2="16.8769" y2="812.2504" gradientTransform="matrix(1 0 0 1 0 -738)">
				<stop  offset="0" style="stop-color:#FFEF00"/>
				<stop  offset="1.000000e-02" style="stop-color:#FFEE00"/>
				<stop  offset="0.29" style="stop-color:#FFE100"/>
				<stop  offset="0.56" style="stop-color:#FFD700"/>
				<stop  offset="0.8" style="stop-color:#FFD100"/>
				<stop  offset="1" style="stop-color:#FFCF00"/>
			</linearGradient>
			<path class="st10" d="M21.3,56.2c-4.7,2-8.9,5-12.5,8.6c0,3,2.3,5.6,5.3,6c3.3-3.9,8.1-7.5,13.9-10.1c6.4-2.9,13-4,18.4-3.5
				c-0.5-1.8-1.8-3.3-3.6-3.9c-0.1,0-0.3-0.1-0.4-0.2c-1.7-0.3-3.4-0.5-5.2-0.5C31.7,52.7,26.3,53.9,21.3,56.2"/>
			<path class="st8" d="M47.8,60.4c-0.7-0.6-1.1-1.5-1.2-2.4c0-0.3-0.1-0.6-0.1-0.8c-5.4-0.5-12,0.6-18.4,3.5
				c-5.8,2.6-10.6,6.2-13.9,10.1c0.3,0,0.6,0.1,0.8,0.1h8.8c0.8,0,1.5,0.7,1.5,1.5v0.4c0,0.8-0.6,1.5-1.4,1.6l-7.1,1.2
				c-0.3,0-0.5,0.2-0.5,0.5v0.9h26V76c0-0.3-0.2-0.5-0.5-0.5l-7.1-1.2c-0.8-0.1-1.4-0.8-1.4-1.6v-0.3c0-0.8,0.7-1.5,1.5-1.5h8.8
				c3.4,0,6.1-2.7,6.1-6.1c0,0,0,0,0,0C49.6,63.1,48.9,61.5,47.8,60.4"/>
		</g>
		<g class="st7">
			<path class="st2" d="M20.6,48.5c-0.1-0.1-0.1-0.2-0.1-0.2c0,0,0-0.1,0-0.1l0,0c0-0.2-0.2-0.3-0.4-0.4c0,0,0,0,0,0l0,0
				c-0.1,0-0.1-0.1-0.2-0.2c-0.1-0.2-0.3-0.3-0.6-0.3c-0.1,0-0.2,0-0.3-0.1c-0.2-0.1-0.5-0.1-0.7,0c-0.1,0.1-0.2,0.1-0.3,0.1
				c-0.2,0-0.5,0.1-0.6,0.3c0,0.1-0.1,0.1-0.2,0.2c-0.2,0.1-0.4,0.3-0.4,0.5c0,0.1-0.1,0.2-0.1,0.2c-0.1,0.1-0.2,0.3-0.2,0.4v0
				c0,0.3,0.2,0.6,0.5,0.6l0,0c0,0,0.1,0,0.1,0h0.9c0.1,0,0.2,0.1,0.2,0.2v0c0,0.1-0.1,0.2-0.1,0.2l-0.7,0.1c0,0,0,0,0,0v0.1h2.7
				v-0.1c0,0,0,0,0,0l-0.7-0.1c-0.1,0-0.1-0.1-0.1-0.2v0c0-0.1,0.1-0.2,0.2-0.2h0.9c0.3,0,0.6-0.3,0.6-0.6c0,0,0,0,0,0
				C20.8,48.8,20.8,48.6,20.6,48.5z"/>
			<path class="st2" d="M18.4,47.3c-0.1,0.1-0.2,0.1-0.3,0.1c-0.2,0-0.5,0.1-0.6,0.3c0,0.1-0.1,0.1-0.2,0.2
				c-0.2,0.1-0.4,0.3-0.4,0.5c0,0.1-0.1,0.2-0.1,0.2c-0.1,0.1-0.2,0.3-0.2,0.4v0c0.4-0.4,0.8-0.7,1.3-0.9c0.8-0.3,1.5-0.4,2.1-0.3
				c-0.1,0-0.1-0.1-0.2-0.2c-0.1-0.2-0.3-0.3-0.6-0.3c-0.1,0-0.2,0-0.3-0.1C18.9,47.1,18.6,47.1,18.4,47.3"/>
			<path class="st2" d="M17.9,48.1c-0.5,0.2-0.9,0.5-1.3,0.9c0,0.3,0.2,0.6,0.5,0.6c0.3-0.4,0.8-0.8,1.4-1c0.7-0.3,1.3-0.4,1.9-0.4
				c0-0.2-0.2-0.3-0.4-0.4c0,0,0,0,0,0c-0.2,0-0.4-0.1-0.5-0.1C19,47.7,18.4,47.9,17.9,48.1"/>
			<path class="st2" d="M20.6,48.5c-0.1-0.1-0.1-0.2-0.1-0.2c0,0,0-0.1,0-0.1c-0.6,0-1.2,0.1-1.9,0.4c-0.6,0.3-1.1,0.6-1.4,1
				c0,0,0.1,0,0.1,0h0.9c0.1,0,0.2,0.1,0.2,0.2v0c0,0.1-0.1,0.2-0.1,0.2l-0.7,0.1c0,0,0,0,0,0v0.1h2.7v-0.1c0,0,0,0,0,0l-0.7-0.1
				c-0.1,0-0.1-0.1-0.1-0.2v0c0-0.1,0.1-0.2,0.2-0.2h0.9c0.3,0,0.6-0.3,0.6-0.6c0,0,0,0,0,0C20.8,48.8,20.8,48.6,20.6,48.5"/>
		</g>
	</g>
</g>
</svg>
