<?xml version="1.0" encoding="utf-8"?>
<!-- Generator: Adobe Illustrator 24.2.1, SVG Export Plug-In . SVG Version: 6.00 Build 0)  -->
<svg version="1.1" id="header" xmlns="http://www.w3.org/2000/svg" xmlns:xlink="http://www.w3.org/1999/xlink" x="0px" y="0px"
	 viewBox="0 0 706.4 181.2" style="enable-background:new 0 0 706.4 181.2;" xml:space="preserve">
<style type="text/css">
	.st0{fill:#B56E8E;}
	.st1{fill:#FFFFFF;}
	.st2{fill:#9AD3D6;}
	.st3{fill:#488C7D;}
	.st4{fill:#F89C46;}
</style>
<g>
	<polygon class="st0" points="179.5,31.6 179.4,31.6 179.4,101.6 46.6,101.6 46.6,31.6 	"/>
	<polygon class="st1" points="69.1,31.6 69.1,31.6 69.1,101.6 19,101.6 19,31.6 19,31.6 	"/>
	<polygon class="st0" points="215.7,52.9 215.6,53 215.6,181.2 50.5,181.2 50.5,52.9 	"/>
	<polygon class="st1" points="91.8,52.9 91.7,53 91.7,181.2 0,181.2 0,52.9 0,52.9 	"/>
	<rect x="113.9" y="117.8" class="st1" width="53.6" height="63.7"/>
	<rect x="167.5" y="117.7" class="st0" width="70.4" height="63.8"/>
	<polygon class="st0" points="151.2,137.6 151.2,157.8 130.2,157.8 130.2,137.5 	"/>
	<rect x="21.1" y="66" class="st0" width="8.9" height="8.9"/>
	<rect x="40.4" y="66" class="st0" width="8.9" height="8.9"/>
	<rect x="59.6" y="66" class="st0" width="8.9" height="8.9"/>
	<rect x="21.1" y="85.6" class="st0" width="8.9" height="8.9"/>
	<rect x="40.4" y="85.6" class="st0" width="8.9" height="8.9"/>
	<rect x="59.6" y="85.6" class="st0" width="8.9" height="8.9"/>
	<rect x="21.1" y="105.1" class="st0" width="8.9" height="8.9"/>
	<rect x="40.4" y="105.1" class="st0" width="8.9" height="8.9"/>
	<rect x="59.6" y="105.1" class="st0" width="8.9" height="8.9"/>
	<rect x="21.1" y="124.7" class="st0" width="8.9" height="8.9"/>
	<rect x="40.4" y="124.7" class="st0" width="8.9" height="8.9"/>
	<rect x="59.6" y="124.7" class="st0" width="8.9" height="8.9"/>
	<rect x="21.1" y="144.2" class="st0" width="8.9" height="8.9"/>
	<rect x="40.4" y="144.2" class="st0" width="8.9" height="8.9"/>
	<rect x="59.6" y="144.2" class="st0" width="8.9" height="8.9"/>
</g>
<g>
	<g>
		<polygon class="st2" points="685.9,-1.6 685.9,133 657.6,133 657.6,15.7 657.9,15.5 658.4,15.2 664.1,11.7 665,11.2 671.2,7.4 
			672.1,6.8 678.4,3 679.2,2.5 		"/>
		<rect x="685.9" y="-1.6" class="st3" width="20.5" height="134.6"/>
	</g>
	<polygon class="st1" points="665,11.2 665,133 664.1,133 664.1,11.7 	"/>
	<polygon class="st1" points="672.1,6.8 672.1,133 671.2,133 671.2,7.4 	"/>
	<polygon class="st1" points="679.2,2.5 679.2,133 678.4,133 678.4,3 	"/>
	<rect x="685.7" y="15.2" class="st4" width="20.8" height="0.9"/>
	<rect x="685.7" y="30.1" class="st4" width="20.8" height="0.9"/>
	<rect x="685.7" y="45" class="st4" width="20.8" height="0.9"/>
	<rect x="685.7" y="60" class="st4" width="20.8" height="0.9"/>
	<rect x="685.7" y="74.9" class="st4" width="20.8" height="0.9"/>
	<rect x="692.6" y="-1.6" class="st4" width="0.9" height="134.6"/>
	<rect x="699.7" y="-1.6" class="st4" width="0.9" height="134.6"/>
	<polygon class="st1" points="685.9,15.2 685.9,16.1 657.6,16.1 657.6,15.7 657.9,15.5 658.4,15.2 	"/>
	<rect x="657.6" y="30.1" class="st1" width="28.3" height="0.9"/>
	<rect x="657.6" y="45" class="st1" width="28.3" height="0.9"/>
	<rect x="657.6" y="60" class="st1" width="28.3" height="0.9"/>
	<rect x="657.6" y="74.9" class="st1" width="28.3" height="0.9"/>
	<rect x="685.7" y="90.2" class="st4" width="20.8" height="0.9"/>
	<rect x="685.7" y="105.1" class="st4" width="20.8" height="0.9"/>
	<rect x="657.6" y="90.2" class="st1" width="28.3" height="0.9"/>
	<rect x="657.6" y="105.1" class="st1" width="28.3" height="0.9"/>
</g>
<g>
	<g>
		<polygon class="st2" points="645.7,50.5 645.7,128.4 629.3,128.4 629.3,60.5 629.5,60.4 629.8,60.2 633.1,58.2 633.6,57.9 
			637.2,55.7 637.7,55.4 641.4,53.1 641.9,52.8 		"/>
		<rect x="645.7" y="50.5" class="st3" width="11.9" height="78"/>
	</g>
	<polygon class="st1" points="633.6,57.9 633.6,128.4 633.1,128.4 633.1,58.2 	"/>
	<polygon class="st1" points="637.7,55.4 637.7,128.4 637.2,128.4 637.2,55.7 	"/>
	<polygon class="st1" points="641.9,52.8 641.9,128.4 641.4,128.4 641.4,53.1 	"/>
	<rect x="645.6" y="60.2" class="st4" width="12" height="0.5"/>
	<rect x="645.6" y="68.8" class="st4" width="12" height="0.5"/>
	<rect x="645.6" y="77.5" class="st4" width="12" height="0.5"/>
	<rect x="645.6" y="86.1" class="st4" width="12" height="0.5"/>
	<rect x="645.6" y="94.8" class="st4" width="12" height="0.5"/>
	<rect x="649.6" y="50.5" class="st4" width="0.5" height="78"/>
	<rect x="653.7" y="50.5" class="st4" width="0.5" height="78"/>
	<polygon class="st1" points="645.7,60.2 645.7,60.7 629.3,60.7 629.3,60.5 629.5,60.4 629.8,60.2 	"/>
	<rect x="629.3" y="68.8" class="st1" width="16.4" height="0.5"/>
	<rect x="629.3" y="77.5" class="st1" width="16.4" height="0.5"/>
	<rect x="629.3" y="86.1" class="st1" width="16.4" height="0.5"/>
	<rect x="629.3" y="94.8" class="st1" width="16.4" height="0.5"/>
	<rect x="645.6" y="103.7" class="st4" width="12" height="0.5"/>
	<rect x="645.6" y="112.3" class="st4" width="12" height="0.5"/>
	<rect x="629.3" y="103.7" class="st1" width="16.4" height="0.5"/>
	<rect x="629.3" y="112.3" class="st1" width="16.4" height="0.5"/>
</g>
</svg>
