<?xml version="1.0" encoding="utf-8"?>
<!-- Generator: Adobe Illustrator 24.2.1, SVG Export Plug-In . SVG Version: 6.00 Build 0)  -->
<svg version="1.1" id="header" xmlns="http://www.w3.org/2000/svg" xmlns:xlink="http://www.w3.org/1999/xlink" x="0px" y="0px"
	 viewBox="0 0 47.1 77.2" style="enable-background:new 0 0 47.1 77.2;" xml:space="preserve">
<style type="text/css">
	.st0{fill:#FFFFFF;}
	.st1{fill:#FFB215;}
	.st2{fill:#F46C7B;}
	.st3{fill:#F892A0;}
</style>
<g>
	<path class="st0" d="M20.3,53.6v14c0,0.7-0.5,1.2-1.2,1.2h0c-0.7,0-1.2-0.5-1.2-1.2v-14c0-0.7,0.5-1.2,1.2-1.2h0
		C19.8,52.5,20.3,53,20.3,53.6z"/>
	<path class="st0" d="M23.7,54.1v14c0,0.7-0.5,1.2-1.2,1.2h0c-0.7,0-1.2-0.5-1.2-1.2v-14c0-0.7,0.5-1.2,1.2-1.2h0
		C23.2,52.9,23.7,53.5,23.7,54.1z"/>
	<path class="st0" d="M29.3,54.7v14c0,0.7-0.5,1.2-1.2,1.2h0c-0.7,0-1.2-0.5-1.2-1.2v-14c0-0.7,0.5-1.2,1.2-1.2h0
		C28.8,53.5,29.3,54.1,29.3,54.7z"/>
	<polygon class="st1" points="29.4,76.2 17.6,76.2 16.8,65.9 30.2,65.9 	"/>
	<path class="st0" d="M47,18.9c0.4,5.7-1.9,10.9-6,14.8c-5.5,5.2-8.7,11.9-8.7,18.9v0.8H14.8v-0.3c0-7.1-2.9-14-8.5-19.2
		C2.4,30.3,0,25.5,0,20.2C0,8.6,11.4-0.7,25,0C36.8,0.7,46.3,8.8,47,18.9z"/>
	<path class="st2" d="M42.4,18.9c0.3,5.7-1.5,10.9-4.8,14.8c-4.4,5.2-7,11.9-7,18.9v0.8H16.5v-0.3c0-7.1-2.3-14-6.8-19.2
		c-3.1-3.6-5.1-8.4-5.1-13.7C4.6,8.6,13.7-0.7,24.7,0C34.2,0.7,41.9,8.8,42.4,18.9z"/>
	<path class="st0" d="M36.1,18.9c0.2,5.7-1,10.9-3.2,14.8c-2.9,5.2-4.7,11.9-4.7,18.9v0.8h-9.4v-0.3c0-7.1-1.5-14-4.5-19.2
		c-2.1-3.6-3.4-8.4-3.4-13.7C11,8.6,17-0.7,24.3,0C30.6,0.7,35.7,8.8,36.1,18.9z"/>
	<path class="st2" d="M28.7,18.9c0.1,5.7-0.4,10.9-1.3,14.8c-1.2,5.2-1.9,11.9-1.9,18.9v0.8h-3.9v-0.3c0-7.1-0.6-14-1.9-19.2
		c-0.9-3.6-1.4-8.4-1.4-13.7c0-11.6,2.5-20.9,5.5-20.2C26.4,0.7,28.5,8.8,28.7,18.9z"/>
	<path class="st3" d="M31.9,55.6H15.1c-0.9,0-1.7-0.7-1.7-1.7l0,0c0-0.9,0.7-1.7,1.7-1.7h16.8c0.9,0,1.7,0.7,1.7,1.7l0,0
		C33.5,54.9,32.8,55.6,31.9,55.6z"/>
	<path class="st1" d="M30.1,66.6H16.8c-0.7,0-1.2-0.5-1.2-1.2l0,0c0-0.7,0.5-1.2,1.2-1.2h13.3c0.7,0,1.2,0.5,1.2,1.2l0,0
		C31.3,66.1,30.8,66.6,30.1,66.6z"/>
	<path class="st1" d="M29,77.2H17.9c-0.7,0-1.2-0.5-1.2-1.2l0,0c0-0.7,0.5-1.2,1.2-1.2H29c0.7,0,1.2,0.5,1.2,1.2l0,0
		C30.2,76.7,29.7,77.2,29,77.2z"/>
</g>
</svg>
