<?xml version="1.0" encoding="utf-8"?>
<!-- Generator: Adobe Illustrator 24.2.1, SVG Export Plug-In . SVG Version: 6.00 Build 0)  -->
<svg version="1.1" id="header" xmlns="http://www.w3.org/2000/svg" xmlns:xlink="http://www.w3.org/1999/xlink" x="0px" y="0px"
	 viewBox="0 0 90 224.6" style="enable-background:new 0 0 90 224.6;" xml:space="preserve">
<style type="text/css">
	.st0{fill:#84CDBC;}
	.st1{fill:#FFB215;}
</style>
<g>
	<polygon class="st0" points="81,55 84.4,55.2 84.4,52.2 81,51.9 	"/>
	<polygon class="st0" points="75.4,54.5 78.8,54.8 78.8,51.8 75.4,51.5 	"/>
	<polygon class="st0" points="69.7,54.1 73.1,54.4 73.1,51.3 69.7,51.1 	"/>
	<polygon class="st0" points="86.6,61.4 90,61.6 90,58.6 86.6,58.4 	"/>
	<polygon class="st0" points="75.4,60.6 78.8,60.8 78.8,57.8 75.4,57.6 	"/>
	<polygon class="st0" points="69.7,60.2 73.1,60.4 73.1,57.4 69.7,57.2 	"/>
	<polygon class="st0" points="86.6,67.4 90,67.7 90,64.7 86.6,64.4 	"/>
	<polygon class="st0" points="81,67.1 84.4,67.3 84.4,64.3 81,64 	"/>
	<polygon class="st0" points="75.4,66.7 78.8,66.9 78.8,63.9 75.4,63.6 	"/>
	<polygon class="st0" points="69.7,66.3 73.1,66.5 73.1,63.5 69.7,63.2 	"/>
	<polygon class="st0" points="86.6,73.5 90,73.7 90,70.7 86.6,70.5 	"/>
	<polygon class="st0" points="81,73.1 84.4,73.3 84.4,70.3 81,70.1 	"/>
	<polygon class="st0" points="75.4,72.8 78.8,73 78.8,69.9 75.4,69.7 	"/>
	<polygon class="st0" points="86.6,79.5 90,79.7 90,76.7 86.6,76.5 	"/>
	<polygon class="st0" points="75.4,78.8 78.8,79 78.8,76 75.4,75.8 	"/>
	<polygon class="st0" points="69.7,78.5 73.1,78.7 73.1,75.6 69.7,75.4 	"/>
	<polygon class="st0" points="86.6,85.5 90,85.7 90,82.7 86.6,82.5 	"/>
	<polygon class="st0" points="75.4,84.9 78.8,85.1 78.8,82.1 75.4,81.9 	"/>
	<polygon class="st0" points="69.7,84.6 73.1,84.8 73.1,81.7 69.7,81.5 	"/>
	<polygon class="st0" points="86.6,91.6 90,91.7 90,88.7 86.6,88.5 	"/>
	<polygon class="st0" points="81,91.3 84.4,91.4 84.4,88.4 81,88.2 	"/>
	<polygon class="st0" points="69.7,90.7 73.1,90.8 73.1,87.8 69.7,87.6 	"/>
	<polygon class="st0" points="86.6,97.6 90,97.8 90,94.7 86.6,94.6 	"/>
	<polygon class="st0" points="69.7,96.8 73.1,96.9 73.1,93.9 69.7,93.7 	"/>
	<polygon class="st0" points="81,103.4 84.4,103.5 84.4,100.5 81,100.3 	"/>
	<polygon class="st0" points="75.4,103.1 78.8,103.3 78.8,100.2 75.4,100.1 	"/>
	<polygon class="st0" points="86.6,109.6 90,109.8 90,106.8 86.6,106.6 	"/>
	<polygon class="st0" points="69.7,108.9 73.1,109.1 73.1,106 69.7,105.9 	"/>
	<polygon class="st0" points="86.6,115.7 90,115.8 90,112.8 86.6,112.7 	"/>
	<polygon class="st0" points="81,115.5 84.4,115.6 84.4,112.6 81,112.4 	"/>
	<polygon class="st0" points="86.6,121.7 90,121.8 90,118.8 86.6,118.7 	"/>
	<polygon class="st0" points="81,121.5 84.4,121.6 84.4,118.6 81,118.5 	"/>
	<polygon class="st0" points="69.7,121.1 73.1,121.2 73.1,118.2 69.7,118.1 	"/>
	<polygon class="st0" points="86.6,127.7 90,127.8 90,124.8 86.6,124.7 	"/>
	<polygon class="st0" points="75.4,127.4 78.8,127.5 78.8,124.5 75.4,124.4 	"/>
	<polygon class="st0" points="75.4,133.5 78.8,133.6 78.8,130.5 75.4,130.4 	"/>
	<polygon class="st0" points="69.7,133.3 73.1,133.4 73.1,130.4 69.7,130.3 	"/>
	<polygon class="st0" points="86.6,139.8 90,139.9 90,136.9 86.6,136.8 	"/>
	<polygon class="st0" points="69.7,139.4 73.1,139.5 73.1,136.4 69.7,136.4 	"/>
	<polygon class="st0" points="81,145.7 84.4,145.8 84.4,142.8 81,142.7 	"/>
	<polygon class="st0" points="75.4,145.6 78.8,145.7 78.8,142.6 75.4,142.6 	"/>
	<polygon class="st0" points="81,151.8 84.4,151.8 84.4,148.8 81,148.7 	"/>
	<polygon class="st0" points="69.7,151.6 73.1,151.6 73.1,148.6 69.7,148.6 	"/>
	<polygon class="st0" points="86.6,157.9 90,157.9 90,154.9 86.6,154.9 	"/>
	<polygon class="st0" points="86.6,163.9 90,163.9 90,160.9 86.6,160.9 	"/>
	<polygon class="st0" points="75.4,163.8 78.8,163.9 78.8,160.8 75.4,160.8 	"/>
	<polygon class="st0" points="69.7,169.9 73.1,169.9 73.1,166.9 69.7,166.8 	"/>
	<rect x="86.6" y="173" class="st0" width="3.3" height="3"/>
	<rect x="81" y="173" class="st0" width="3.4" height="3"/>
	<rect x="69.7" y="172.9" class="st0" width="3.4" height="3"/>
	<polygon class="st0" points="86.6,188 90,188 90,185 86.6,185 	"/>
	<polygon class="st0" points="75.4,188.1 78.8,188.1 78.8,185.1 75.4,185.1 	"/>
	<polygon class="st0" points="69.7,194.2 73.1,194.2 73.1,191.2 69.7,191.2 	"/>
	<polygon class="st0" points="81,200.2 84.4,200.1 84.4,197.1 81,197.1 	"/>
	<polygon class="st0" points="86.6,206.1 90,206.1 90,203.1 86.6,203.1 	"/>
	<polygon class="st0" points="75.4,206.3 78.8,206.3 78.8,203.2 75.4,203.3 	"/>
	<polygon class="st0" points="81,224.4 84.4,224.3 84.4,221.3 81,221.4 	"/>
	<polygon class="st0" points="63.8,55.8 64.7,55.6 64.7,52.6 63.8,52.8 	"/>
	<polygon class="st0" points="62.4,56.2 63.3,56 63.3,53 62.4,53.2 	"/>
	<polygon class="st0" points="59.6,57.1 60.4,56.8 60.4,53.8 59.6,54.1 	"/>
	<polygon class="st0" points="58.1,57.5 59,57.2 59,54.2 58.1,54.5 	"/>
	<polygon class="st0" points="56.8,57.9 57.6,57.6 57.6,54.7 56.8,54.9 	"/>
	<polygon class="st0" points="63.8,61.8 64.7,61.6 64.7,58.6 63.8,58.8 	"/>
	<polygon class="st0" points="62.4,62.2 63.3,62 63.3,59 62.4,59.2 	"/>
	<polygon class="st0" points="61,62.6 61.8,62.4 61.8,59.4 61,59.6 	"/>
	<polygon class="st0" points="59.6,63 60.4,62.8 60.4,59.8 59.6,60 	"/>
	<polygon class="st0" points="56.8,63.8 57.6,63.5 57.6,60.6 56.8,60.8 	"/>
	<polygon class="st0" points="55.4,64.2 56.2,63.9 56.2,61 55.4,61.2 	"/>
	<polygon class="st0" points="63.8,67.8 64.7,67.6 64.7,64.6 63.8,64.8 	"/>
	<polygon class="st0" points="62.4,68.2 63.3,68 63.3,65 62.4,65.2 	"/>
	<polygon class="st0" points="61,68.6 61.8,68.4 61.8,65.4 61,65.6 	"/>
	<polygon class="st0" points="59.6,68.9 60.4,68.7 60.4,65.7 59.6,66 	"/>
	<polygon class="st0" points="56.8,69.7 57.6,69.5 57.6,66.5 56.8,66.7 	"/>
	<polygon class="st0" points="55.4,70 56.2,69.8 56.2,66.9 55.4,67.1 	"/>
	<polygon class="st0" points="63.8,73.8 64.7,73.6 64.7,70.6 63.8,70.8 	"/>
	<polygon class="st0" points="61,74.5 61.8,74.3 61.8,71.3 61,71.6 	"/>
	<polygon class="st0" points="59.6,74.9 60.4,74.7 60.4,71.7 59.6,71.9 	"/>
	<polygon class="st0" points="58.1,75.2 59,75 59,72.1 58.1,72.3 	"/>
	<polygon class="st0" points="56.8,75.6 57.6,75.4 57.6,72.4 56.8,72.6 	"/>
	<polygon class="st0" points="55.4,75.9 56.2,75.7 56.2,72.8 55.4,73 	"/>
	<polygon class="st0" points="63.8,79.8 64.7,79.6 64.7,76.6 63.8,76.8 	"/>
	<polygon class="st0" points="61,80.5 61.8,80.3 61.8,77.3 61,77.5 	"/>
	<polygon class="st0" points="58.1,81.2 59,81 59,78 58.1,78.2 	"/>
	<polygon class="st0" points="56.8,81.5 57.6,81.3 57.6,78.3 56.8,78.5 	"/>
	<polygon class="st0" points="55.4,81.8 56.2,81.6 56.2,78.7 55.4,78.9 	"/>
	<polygon class="st0" points="63.8,85.9 64.7,85.7 64.7,82.7 63.8,82.9 	"/>
	<polygon class="st0" points="62.4,86.2 63.3,86 63.3,83 62.4,83.2 	"/>
	<polygon class="st0" points="59.6,86.8 60.4,86.6 60.4,83.6 59.6,83.8 	"/>
	<polygon class="st0" points="58.1,87.1 59,86.9 59,83.9 58.1,84.1 	"/>
	<polygon class="st0" points="55.4,87.7 56.2,87.5 56.2,84.6 55.4,84.8 	"/>
	<polygon class="st0" points="62.4,92.2 63.3,92 63.3,89 62.4,89.2 	"/>
	<polygon class="st0" points="61,92.4 61.8,92.3 61.8,89.3 61,89.5 	"/>
	<polygon class="st0" points="59.6,92.7 60.4,92.6 60.4,89.6 59.6,89.8 	"/>
	<polygon class="st0" points="58.1,93 59,92.8 59,89.9 58.1,90.1 	"/>
	<polygon class="st0" points="56.8,93.3 57.6,93.1 57.6,90.2 56.8,90.3 	"/>
	<polygon class="st0" points="63.8,97.9 64.7,97.7 64.7,94.7 63.8,94.9 	"/>
	<polygon class="st0" points="61,98.4 61.8,98.3 61.8,95.3 61,95.4 	"/>
	<polygon class="st0" points="58.1,98.9 59,98.8 59,95.8 58.1,96 	"/>
	<polygon class="st0" points="56.8,99.2 57.6,99 57.6,96.1 56.8,96.3 	"/>
	<polygon class="st0" points="55.4,99.5 56.2,99.3 56.2,96.4 55.4,96.5 	"/>
	<polygon class="st0" points="63.8,103.9 64.7,103.7 64.7,100.7 63.8,100.9 	"/>
	<polygon class="st0" points="61,104.4 61.8,104.2 61.8,101.2 61,101.4 	"/>
	<polygon class="st0" points="59.6,104.6 60.4,104.5 60.4,101.5 59.6,101.7 	"/>
	<polygon class="st0" points="58.1,104.9 59,104.7 59,101.8 58.1,101.9 	"/>
	<polygon class="st0" points="56.8,105.1 57.6,105 57.6,102 56.8,102.2 	"/>
	<polygon class="st0" points="55.4,105.4 56.2,105.2 56.2,102.3 55.4,102.4 	"/>
	<polygon class="st0" points="63.8,109.9 64.7,109.7 64.7,106.7 63.8,106.9 	"/>
	<polygon class="st0" points="62.4,110.1 63.3,110 63.3,107 62.4,107.1 	"/>
	<polygon class="st0" points="59.6,110.6 60.4,110.4 60.4,107.5 59.6,107.6 	"/>
	<polygon class="st0" points="58.1,110.8 59,110.7 59,107.7 58.1,107.8 	"/>
	<polygon class="st0" points="56.8,111 57.6,110.9 57.6,107.9 56.8,108.1 	"/>
	<polygon class="st0" points="55.4,111.2 56.2,111.1 56.2,108.2 55.4,108.3 	"/>
	<polygon class="st0" points="62.4,116.1 63.3,116 63.3,113 62.4,113.1 	"/>
	<polygon class="st0" points="61,116.3 61.8,116.2 61.8,113.2 61,113.3 	"/>
	<polygon class="st0" points="59.6,116.5 60.4,116.4 60.4,113.4 59.6,113.5 	"/>
	<polygon class="st0" points="58.1,116.7 59,116.6 59,113.6 58.1,113.8 	"/>
	<polygon class="st0" points="56.8,116.9 57.6,116.8 57.6,113.8 56.8,114 	"/>
	<polygon class="st0" points="63.8,121.9 64.7,121.8 64.7,118.8 63.8,118.9 	"/>
	<polygon class="st0" points="62.4,122.1 63.3,122 63.3,119 62.4,119.1 	"/>
	<polygon class="st0" points="58.1,122.6 59,122.5 59,119.6 58.1,119.7 	"/>
	<polygon class="st0" points="56.8,122.8 57.6,122.7 57.6,119.8 56.8,119.9 	"/>
	<polygon class="st0" points="55.4,123 56.2,122.9 56.2,120 55.4,120.1 	"/>
	<polygon class="st0" points="63.8,127.9 64.7,127.8 64.7,124.8 63.8,124.9 	"/>
	<polygon class="st0" points="59.6,128.4 60.4,128.3 60.4,125.3 59.6,125.4 	"/>
	<polygon class="st0" points="58.1,128.6 59,128.5 59,125.5 58.1,125.6 	"/>
	<polygon class="st0" points="56.8,128.7 57.6,128.6 57.6,125.7 56.8,125.8 	"/>
	<polygon class="st0" points="55.4,128.9 56.2,128.8 56.2,125.9 55.4,126 	"/>
	<polygon class="st0" points="63.8,133.9 64.7,133.8 64.7,130.8 63.8,130.9 	"/>
	<polygon class="st0" points="61,134.2 61.8,134.1 61.8,131.1 61,131.2 	"/>
	<polygon class="st0" points="59.6,134.4 60.4,134.3 60.4,131.3 59.6,131.4 	"/>
	<polygon class="st0" points="63.8,139.9 64.7,139.9 64.7,136.8 63.8,136.9 	"/>
	<polygon class="st0" points="62.4,140.1 63.3,140 63.3,137 62.4,137.1 	"/>
	<polygon class="st0" points="56.8,140.5 57.6,140.5 57.6,137.5 56.8,137.6 	"/>
	<polygon class="st0" points="55.4,140.7 56.2,140.6 56.2,137.6 55.4,137.7 	"/>
	<polygon class="st0" points="62.4,146 63.3,146 63.3,143 62.4,143 	"/>
	<polygon class="st0" points="55.4,146.6 56.2,146.5 56.2,143.5 55.4,143.6 	"/>
	<polygon class="st0" points="63.8,151.9 64.7,151.9 64.7,148.9 63.8,148.9 	"/>
	<polygon class="st0" points="62.4,152 63.3,152 63.3,149 62.4,149 	"/>
	<polygon class="st0" points="59.6,152.2 60.4,152.1 60.4,149.2 59.6,149.2 	"/>
	<polygon class="st0" points="58.1,152.3 59,152.2 59,149.3 58.1,149.3 	"/>
	<polygon class="st0" points="56.8,152.4 57.6,152.3 57.6,149.4 56.8,149.4 	"/>
	<polygon class="st0" points="58.1,158.2 59,158.2 59,155.2 58.1,155.2 	"/>
	<polygon class="st0" points="56.8,158.3 57.6,158.2 57.6,155.3 56.8,155.3 	"/>
	<polygon class="st0" points="55.4,158.3 56.2,158.3 56.2,155.3 55.4,155.4 	"/>
	<polygon class="st0" points="63.8,164 64.7,163.9 64.7,160.9 63.8,161 	"/>
	<polygon class="st0" points="55.4,164.2 56.2,164.2 56.2,161.2 55.4,161.3 	"/>
	<polygon class="st0" points="56.8,170.1 57.6,170.1 57.6,167.1 56.8,167.1 	"/>
	<rect x="63.8" y="173" class="st0" width="0.9" height="3"/>
	<rect x="55.4" y="173" class="st0" width="0.8" height="2.9"/>
	<polygon class="st0" points="59.6,181.9 60.4,181.9 60.4,179 59.6,179 	"/>
	<polygon class="st0" points="55.4,181.9 56.2,181.9 56.2,178.9 55.4,178.9 	"/>
	<polygon class="st0" points="56.8,187.8 57.6,187.8 57.6,184.9 56.8,184.8 	"/>
	<polygon class="st0" points="55.4,193.6 56.2,193.7 56.2,190.7 55.4,190.7 	"/>
	<polygon class="st0" points="56.8,199.6 57.6,199.7 57.6,196.7 56.8,196.7 	"/>
	<polygon class="st0" points="55.4,211.3 56.2,211.4 56.2,208.4 55.4,208.4 	"/>
	<polygon class="st0" points="63.8,218 64.7,218.1 64.7,215.1 63.8,215 	"/>
	<polygon class="st0" points="56.8,223.2 57.6,223.3 57.6,220.4 56.8,220.3 	"/>
	<polygon class="st0" points="68.2,54.6 69.1,54.3 69.1,51.3 68.2,51.5 	"/>
	<polygon class="st0" points="66.7,55 67.6,54.7 67.6,51.7 66.7,52 	"/>
	<polygon class="st0" points="68.2,60.6 69.1,60.4 69.1,57.3 68.2,57.6 	"/>
	<polygon class="st0" points="66.7,61 67.6,60.8 67.6,57.8 66.7,58 	"/>
	<polygon class="st0" points="68.2,66.7 69.1,66.5 69.1,63.4 68.2,63.7 	"/>
	<polygon class="st0" points="66.7,67.1 67.6,66.8 67.6,63.8 66.7,64.1 	"/>
	<polygon class="st0" points="68.2,72.8 69.1,72.5 69.1,69.5 68.2,69.7 	"/>
	<polygon class="st0" points="66.7,73.1 67.6,72.9 67.6,69.9 66.7,70.1 	"/>
	<polygon class="st0" points="65.3,73.5 66.1,73.3 66.1,70.2 65.3,70.5 	"/>
	<polygon class="st0" points="68.2,78.8 69.1,78.6 69.1,75.6 68.2,75.8 	"/>
	<polygon class="st0" points="66.7,79.2 67.6,79 67.6,75.9 66.7,76.2 	"/>
	<polygon class="st0" points="65.3,79.5 66.1,79.3 66.1,76.3 65.3,76.5 	"/>
	<polygon class="st0" points="68.2,84.9 69.1,84.7 69.1,81.7 68.2,81.9 	"/>
	<polygon class="st0" points="65.3,85.5 66.1,85.4 66.1,82.3 65.3,82.5 	"/>
	<polygon class="st0" points="68.2,91 69.1,90.8 69.1,87.8 68.2,87.9 	"/>
	<polygon class="st0" points="66.7,91.3 67.6,91.1 67.6,88.1 66.7,88.3 	"/>
	<polygon class="st0" points="68.2,97 69.1,96.9 69.1,93.8 68.2,94 	"/>
	<polygon class="st0" points="66.7,97.3 67.6,97.2 67.6,94.1 66.7,94.3 	"/>
	<polygon class="st0" points="66.7,103.4 67.6,103.2 67.6,100.2 66.7,100.3 	"/>
	<polygon class="st0" points="66.7,109.4 67.6,109.3 67.6,106.3 66.7,106.4 	"/>
	<polygon class="st0" points="68.2,115.3 69.1,115.1 69.1,112.1 68.2,112.2 	"/>
	<polygon class="st0" points="66.7,115.5 67.6,115.3 67.6,112.3 66.7,112.4 	"/>
	<polygon class="st0" points="65.3,115.7 66.1,115.6 66.1,112.5 65.3,112.7 	"/>
	<polygon class="st0" points="66.7,121.5 67.6,121.4 67.6,118.4 66.7,118.5 	"/>
	<polygon class="st0" points="68.2,127.4 69.1,127.3 69.1,124.3 68.2,124.4 	"/>
	<polygon class="st0" points="65.3,127.7 66.1,127.6 66.1,124.6 65.3,124.7 	"/>
	<polygon class="st0" points="68.2,133.5 69.1,133.4 69.1,130.3 68.2,130.4 	"/>
	<polygon class="st0" points="68.2,151.7 69.1,151.6 69.1,148.6 68.2,148.7 	"/>
	<polygon class="st0" points="68.2,157.8 69.1,157.7 69.1,154.7 68.2,154.7 	"/>
	<polygon class="st0" points="68.2,163.8 69.1,163.8 69.1,160.8 68.2,160.8 	"/>
	<polygon class="st0" points="66.7,169.9 67.6,169.9 67.6,166.9 66.7,166.9 	"/>
	<polygon class="st0" points="66.7,188.1 67.6,188.1 67.6,185.1 66.7,185 	"/>
	<polygon class="st0" points="66.7,194.1 67.6,194.2 67.6,191.1 66.7,191.1 	"/>
	<polygon class="st0" points="68.2,212.4 69.1,212.5 69.1,209.4 68.2,209.4 	"/>
	<polygon class="st0" points="68.2,224.5 69.1,224.6 69.1,221.6 68.2,221.5 	"/>
	<g>
		<polygon class="st0" points="58.7,52.3 69.4,49.1 69.4,47.2 58.7,50.5 		"/>
		<polygon class="st0" points="66.6,47 69.4,46.1 69.4,43.8 66.6,44.7 		"/>
		<polygon class="st0" points="68.9,43 69.4,42.8 69.4,38.5 68.9,38.7 		"/>
		<polygon class="st0" points="69.4,49 87.6,50.5 87.6,48.6 69.4,47.2 		"/>
		<polygon class="st0" points="69.4,46.1 74.5,46.6 74.5,44.2 69.4,43.8 		"/>
		<polygon class="st0" points="69.4,42.8 70.3,42.9 70.3,38.6 69.4,38.6 		"/>
	</g>
</g>
<g>
	<polygon class="st1" points="32.1,2.9 35.1,2.6 35.1,0 32.1,0.3 	"/>
	<polygon class="st1" points="28.5,3.2 31.4,2.9 31.4,0.4 28.5,0.7 	"/>
	<polygon class="st1" points="24.8,3.6 27.7,3.3 27.7,0.8 24.8,1.1 	"/>
	<polygon class="st1" points="21.2,4 24.1,3.7 24.1,1.2 21.2,1.5 	"/>
	<polygon class="st1" points="17.6,4.4 20.5,4.1 20.5,1.6 17.6,1.9 	"/>
	<polygon class="st1" points="14.1,4.8 16.9,4.5 16.9,1.9 14.1,2.2 	"/>
	<polygon class="st1" points="10.5,5.1 13.3,4.8 13.3,2.3 10.5,2.6 	"/>
	<polygon class="st1" points="7,5.5 9.8,5.2 9.8,2.7 7,3 	"/>
	<polygon class="st1" points="3.5,5.9 6.2,5.6 6.2,3.1 3.5,3.4 	"/>
	<polygon class="st1" points="0,6.2 2.7,5.9 2.7,3.5 0,3.8 	"/>
	<polygon class="st1" points="32.1,6.1 35.1,5.8 35.1,3.2 32.1,3.5 	"/>
	<polygon class="st1" points="28.5,6.5 31.4,6.2 31.4,3.6 28.5,3.9 	"/>
	<polygon class="st1" points="21.2,7.2 24.1,6.9 24.1,4.4 21.2,4.7 	"/>
	<polygon class="st1" points="17.6,7.6 20.5,7.3 20.5,4.7 17.6,5 	"/>
	<polygon class="st1" points="14.1,7.9 16.9,7.6 16.9,5.1 14.1,5.4 	"/>
	<polygon class="st1" points="10.5,8.3 13.3,8 13.3,5.5 10.5,5.8 	"/>
	<polygon class="st1" points="7,8.6 9.8,8.4 9.8,5.9 7,6.2 	"/>
	<polygon class="st1" points="3.5,9 6.2,8.7 6.2,6.2 3.5,6.5 	"/>
	<polygon class="st1" points="0,9.4 2.7,9.1 2.7,6.6 0,6.9 	"/>
	<polygon class="st1" points="32.1,9.3 35.1,9 35.1,6.4 32.1,6.7 	"/>
	<polygon class="st1" points="28.5,9.7 31.4,9.4 31.4,6.8 28.5,7.1 	"/>
	<polygon class="st1" points="24.8,10 27.7,9.7 27.7,7.2 24.8,7.5 	"/>
	<polygon class="st1" points="21.2,10.4 24.1,10.1 24.1,7.6 21.2,7.9 	"/>
	<polygon class="st1" points="17.6,10.7 20.5,10.5 20.5,7.9 17.6,8.2 	"/>
	<polygon class="st1" points="14.1,11.1 16.9,10.8 16.9,8.3 14.1,8.6 	"/>
	<polygon class="st1" points="7,11.8 9.8,11.5 9.8,9 7,9.3 	"/>
	<polygon class="st1" points="3.5,12.1 6.2,11.9 6.2,9.4 3.5,9.7 	"/>
	<polygon class="st1" points="0,12.5 2.7,12.2 2.7,9.7 0,10 	"/>
	<polygon class="st1" points="32.1,12.5 35.1,12.2 35.1,9.7 32.1,10 	"/>
	<polygon class="st1" points="28.5,12.9 31.4,12.6 31.4,10 28.5,10.3 	"/>
	<polygon class="st1" points="24.8,13.2 27.7,12.9 27.7,10.4 24.8,10.7 	"/>
	<polygon class="st1" points="21.2,13.6 24.1,13.3 24.1,10.8 21.2,11 	"/>
	<polygon class="st1" points="17.6,13.9 20.5,13.6 20.5,11.1 17.6,11.4 	"/>
	<polygon class="st1" points="14.1,14.3 16.9,14 16.9,11.5 14.1,11.7 	"/>
	<polygon class="st1" points="10.5,14.6 13.3,14.3 13.3,11.8 10.5,12.1 	"/>
	<polygon class="st1" points="7,14.9 9.8,14.7 9.8,12.2 7,12.4 	"/>
	<polygon class="st1" points="3.5,15.3 6.2,15 6.2,12.5 3.5,12.8 	"/>
	<polygon class="st1" points="32.1,15.7 35.1,15.5 35.1,12.9 32.1,13.2 	"/>
	<polygon class="st1" points="24.8,16.4 27.7,16.1 27.7,13.6 24.8,13.9 	"/>
	<polygon class="st1" points="17.6,17.1 20.5,16.8 20.5,14.3 17.6,14.6 	"/>
	<polygon class="st1" points="14.1,17.4 16.9,17.2 16.9,14.6 14.1,14.9 	"/>
	<polygon class="st1" points="10.5,17.8 13.3,17.5 13.3,15 10.5,15.3 	"/>
	<polygon class="st1" points="7,18.1 9.8,17.8 9.8,15.3 7,15.6 	"/>
	<polygon class="st1" points="3.5,18.4 6.2,18.2 6.2,15.7 3.5,15.9 	"/>
	<polygon class="st1" points="0,18.7 2.7,18.5 2.7,16 0,16.3 	"/>
	<polygon class="st1" points="24.8,19.6 27.7,19.3 27.7,16.8 24.8,17.1 	"/>
	<polygon class="st1" points="21.2,19.9 24.1,19.7 24.1,17.1 21.2,17.4 	"/>
	<polygon class="st1" points="10.5,20.9 13.3,20.7 13.3,18.1 10.5,18.4 	"/>
	<polygon class="st1" points="3.5,21.6 6.2,21.3 6.2,18.8 3.5,19.1 	"/>
	<polygon class="st1" points="0,21.9 2.7,21.6 2.7,19.1 0,19.4 	"/>
	<polygon class="st1" points="32.1,22.2 35.1,21.9 35.1,19.3 32.1,19.6 	"/>
	<polygon class="st1" points="28.5,22.5 31.4,22.2 31.4,19.7 28.5,19.9 	"/>
	<polygon class="st1" points="14.1,23.8 16.9,23.5 16.9,21 14.1,21.2 	"/>
	<polygon class="st1" points="10.5,24.1 13.3,23.8 13.3,21.3 10.5,21.6 	"/>
	<polygon class="st1" points="7,24.4 9.8,24.1 9.8,21.6 7,21.9 	"/>
	<polygon class="st1" points="3.5,24.7 6.2,24.4 6.2,22 3.5,22.2 	"/>
	<polygon class="st1" points="0,25 2.7,24.8 2.7,22.3 0,22.5 	"/>
	<polygon class="st1" points="32.1,25.4 35.1,25.1 35.1,22.6 32.1,22.8 	"/>
	<polygon class="st1" points="28.5,25.7 31.4,25.4 31.4,22.9 28.5,23.1 	"/>
	<polygon class="st1" points="24.8,26 27.7,25.8 27.7,23.2 24.8,23.5 	"/>
	<polygon class="st1" points="17.6,26.6 20.5,26.4 20.5,23.9 17.6,24.1 	"/>
	<polygon class="st1" points="14.1,26.9 16.9,26.7 16.9,24.2 14.1,24.4 	"/>
	<polygon class="st1" points="10.5,27.2 13.3,27 13.3,24.5 10.5,24.7 	"/>
	<polygon class="st1" points="3.5,27.8 6.2,27.6 6.2,25.1 3.5,25.3 	"/>
	<polygon class="st1" points="0,28.1 2.7,27.9 2.7,25.4 0,25.6 	"/>
	<polygon class="st1" points="32.1,28.6 35.1,28.4 35.1,25.8 32.1,26 	"/>
	<polygon class="st1" points="28.5,28.9 31.4,28.7 31.4,26.1 28.5,26.4 	"/>
	<polygon class="st1" points="24.8,29.2 27.7,29 27.7,26.4 24.8,26.7 	"/>
	<polygon class="st1" points="21.2,29.5 24.1,29.3 24.1,26.7 21.2,27 	"/>
	<polygon class="st1" points="14.1,30.1 16.9,29.9 16.9,27.3 14.1,27.6 	"/>
	<polygon class="st1" points="10.5,30.4 13.3,30.2 13.3,27.6 10.5,27.9 	"/>
	<polygon class="st1" points="3.5,31 6.2,30.7 6.2,28.2 3.5,28.5 	"/>
	<polygon class="st1" points="0,31.3 2.7,31 2.7,28.5 0,28.8 	"/>
	<polygon class="st1" points="32.1,31.8 35.1,31.6 35.1,29 32.1,29.3 	"/>
	<polygon class="st1" points="28.5,32.1 31.4,31.9 31.4,29.3 28.5,29.6 	"/>
	<polygon class="st1" points="24.8,32.4 27.7,32.2 27.7,29.6 24.8,29.9 	"/>
	<polygon class="st1" points="17.6,33 20.5,32.7 20.5,30.2 17.6,30.5 	"/>
	<polygon class="st1" points="10.5,33.5 13.3,33.3 13.3,30.8 10.5,31 	"/>
	<polygon class="st1" points="7,33.8 9.8,33.6 9.8,31.1 7,31.3 	"/>
	<polygon class="st1" points="3.5,34.1 6.2,33.9 6.2,31.4 3.5,31.6 	"/>
	<polygon class="st1" points="32.1,35 35.1,34.8 35.1,32.2 32.1,32.5 	"/>
	<polygon class="st1" points="24.8,35.6 27.7,35.4 27.7,32.8 24.8,33.1 	"/>
	<polygon class="st1" points="21.2,35.9 24.1,35.7 24.1,33.1 21.2,33.3 	"/>
	<polygon class="st1" points="17.6,36.1 20.5,35.9 20.5,33.4 17.6,33.6 	"/>
	<polygon class="st1" points="14.1,36.4 16.9,36.2 16.9,33.7 14.1,33.9 	"/>
	<polygon class="st1" points="10.5,36.7 13.3,36.5 13.3,34 10.5,34.2 	"/>
	<polygon class="st1" points="7,37 9.8,36.8 9.8,34.3 7,34.5 	"/>
	<polygon class="st1" points="0,37.5 2.7,37.3 2.7,34.8 0,35 	"/>
	<polygon class="st1" points="32.1,38.2 35.1,38 35.1,35.5 32.1,35.7 	"/>
	<polygon class="st1" points="28.5,38.5 31.4,38.3 31.4,35.8 28.5,36 	"/>
	<polygon class="st1" points="24.8,38.8 27.7,38.6 27.7,36 24.8,36.3 	"/>
	<polygon class="st1" points="21.2,39.1 24.1,38.8 24.1,36.3 21.2,36.5 	"/>
	<polygon class="st1" points="14.1,39.6 16.9,39.4 16.9,36.9 14.1,37.1 	"/>
	<polygon class="st1" points="10.5,39.9 13.3,39.6 13.3,37.1 10.5,37.3 	"/>
	<polygon class="st1" points="7,40.1 9.8,39.9 9.8,37.4 7,37.6 	"/>
	<polygon class="st1" points="0,40.6 2.7,40.4 2.7,37.9 0,38.2 	"/>
	<polygon class="st1" points="28.5,41.7 31.4,41.5 31.4,39 28.5,39.2 	"/>
	<polygon class="st1" points="24.8,42 27.7,41.8 27.7,39.2 24.8,39.4 	"/>
	<polygon class="st1" points="21.2,42.2 24.1,42 24.1,39.5 21.2,39.7 	"/>
	<polygon class="st1" points="17.6,42.5 20.5,42.3 20.5,39.8 17.6,40 	"/>
	<polygon class="st1" points="14.1,42.8 16.9,42.6 16.9,40 14.1,40.2 	"/>
	<polygon class="st1" points="10.5,43 13.3,42.8 13.3,40.3 10.5,40.5 	"/>
	<polygon class="st1" points="7,43.3 9.8,43.1 9.8,40.6 7,40.8 	"/>
	<polygon class="st1" points="3.5,43.5 6.2,43.3 6.2,40.8 3.5,41 	"/>
	<polygon class="st1" points="21.2,45.4 24.1,45.2 24.1,42.7 21.2,42.9 	"/>
	<polygon class="st1" points="14.1,45.9 16.9,45.7 16.9,43.2 14.1,43.4 	"/>
	<polygon class="st1" points="10.5,46.2 13.3,46 13.3,43.5 10.5,43.7 	"/>
	<polygon class="st1" points="7,46.4 9.8,46.2 9.8,43.7 7,43.9 	"/>
	<polygon class="st1" points="3.5,46.7 6.2,46.5 6.2,44 3.5,44.2 	"/>
	<polygon class="st1" points="0,46.9 2.7,46.7 2.7,44.2 0,44.4 	"/>
	<polygon class="st1" points="32.1,47.9 35.1,47.7 35.1,45.1 32.1,45.3 	"/>
	<polygon class="st1" points="28.5,48.1 31.4,47.9 31.4,45.4 28.5,45.6 	"/>
	<polygon class="st1" points="17.6,48.9 20.5,48.7 20.5,46.1 17.6,46.3 	"/>
	<polygon class="st1" points="14.1,49.1 16.9,48.9 16.9,46.4 14.1,46.6 	"/>
	<polygon class="st1" points="10.5,49.3 13.3,49.1 13.3,46.6 10.5,46.8 	"/>
	<polygon class="st1" points="3.5,49.8 6.2,49.6 6.2,47.1 3.5,47.3 	"/>
	<polygon class="st1" points="0,50 2.7,49.8 2.7,47.3 0,47.5 	"/>
	<polygon class="st1" points="32.1,51.1 35.1,50.9 35.1,48.4 32.1,48.6 	"/>
	<polygon class="st1" points="24.8,51.6 27.7,51.4 27.7,48.8 24.8,49 	"/>
	<polygon class="st1" points="21.2,51.8 24.1,51.6 24.1,49.1 21.2,49.3 	"/>
	<polygon class="st1" points="14.1,52.3 16.9,52.1 16.9,49.6 14.1,49.7 	"/>
	<polygon class="st1" points="3.5,52.9 6.2,52.8 6.2,50.3 3.5,50.4 	"/>
	<polygon class="st1" points="0,53.1 2.7,53 2.7,50.5 0,50.7 	"/>
	<polygon class="st1" points="32.1,54.3 35.1,54.2 35.1,51.6 32.1,51.8 	"/>
	<polygon class="st1" points="24.8,54.8 27.7,54.6 27.7,52.1 24.8,52.2 	"/>
	<polygon class="st1" points="14.1,55.4 16.9,55.3 16.9,52.7 14.1,52.9 	"/>
	<polygon class="st1" points="10.5,55.6 13.3,55.5 13.3,53 10.5,53.1 	"/>
	<polygon class="st1" points="7,55.9 9.8,55.7 9.8,53.2 7,53.4 	"/>
	<polygon class="st1" points="3.5,56.1 6.2,55.9 6.2,53.4 3.5,53.6 	"/>
	<polygon class="st1" points="28.5,57.8 31.4,57.6 31.4,55 28.5,55.2 	"/>
	<polygon class="st1" points="21.2,58.2 24.1,58 24.1,55.5 21.2,55.6 	"/>
	<polygon class="st1" points="7,59 9.8,58.8 9.8,56.3 7,56.5 	"/>
	<polygon class="st1" points="0,59.4 2.7,59.2 2.7,56.8 0,56.9 	"/>
	<polygon class="st1" points="32.1,60.8 35.1,60.6 35.1,58 32.1,58.2 	"/>
	<polygon class="st1" points="28.5,61 31.4,60.8 31.4,58.3 28.5,58.4 	"/>
	<polygon class="st1" points="24.8,61.2 27.7,61 27.7,58.5 24.8,58.6 	"/>
	<polygon class="st1" points="21.2,61.4 24.1,61.2 24.1,58.7 21.2,58.8 	"/>
	<polygon class="st1" points="3.5,62.3 6.2,62.2 6.2,59.7 3.5,59.8 	"/>
	<polygon class="st1" points="0,62.5 2.7,62.4 2.7,59.9 0,60 	"/>
	<polygon class="st1" points="32.1,64 35.1,63.8 35.1,61.3 32.1,61.4 	"/>
	<polygon class="st1" points="21.2,64.5 24.1,64.4 24.1,61.9 21.2,62 	"/>
	<polygon class="st1" points="17.6,64.7 20.5,64.6 20.5,62.1 17.6,62.2 	"/>
	<polygon class="st1" points="14.1,64.9 16.9,64.8 16.9,62.3 14.1,62.4 	"/>
	<polygon class="st1" points="10.5,65.1 13.3,65 13.3,62.5 10.5,62.6 	"/>
	<polygon class="st1" points="7,65.3 9.8,65.1 9.8,62.6 7,62.8 	"/>
	<polygon class="st1" points="0,65.7 2.7,65.5 2.7,63 0,63.2 	"/>
	<polygon class="st1" points="28.5,67.4 31.4,67.2 31.4,64.7 28.5,64.8 	"/>
	<polygon class="st1" points="24.8,67.6 27.7,67.4 27.7,64.9 24.8,65 	"/>
	<polygon class="st1" points="21.2,67.7 24.1,67.6 24.1,65.1 21.2,65.2 	"/>
	<polygon class="st1" points="17.6,67.9 20.5,67.8 20.5,65.2 17.6,65.4 	"/>
	<polygon class="st1" points="10.5,68.3 13.3,68.1 13.3,65.6 10.5,65.8 	"/>
	<polygon class="st1" points="3.5,68.6 6.2,68.5 6.2,66 3.5,66.1 	"/>
	<polygon class="st1" points="0,68.8 2.7,68.6 2.7,66.2 0,66.3 	"/>
	<polygon class="st1" points="32.1,70.4 35.1,70.3 35.1,67.7 32.1,67.9 	"/>
	<polygon class="st1" points="24.8,70.8 27.7,70.6 27.7,68.1 24.8,68.2 	"/>
	<polygon class="st1" points="21.2,70.9 24.1,70.8 24.1,68.3 21.2,68.4 	"/>
	<polygon class="st1" points="17.6,71.1 20.5,71 20.5,68.4 17.6,68.6 	"/>
	<polygon class="st1" points="14.1,71.3 16.9,71.1 16.9,68.6 14.1,68.7 	"/>
	<polygon class="st1" points="10.5,71.4 13.3,71.3 13.3,68.8 10.5,68.9 	"/>
	<polygon class="st1" points="7,71.6 9.8,71.5 9.8,69 7,69.1 	"/>
	<polygon class="st1" points="3.5,71.7 6.2,71.6 6.2,69.1 3.5,69.3 	"/>
	<polygon class="st1" points="0,71.9 2.7,71.8 2.7,69.3 0,69.4 	"/>
	<polygon class="st1" points="32.1,73.6 35.1,73.5 35.1,70.9 32.1,71.1 	"/>
	<polygon class="st1" points="24.8,73.9 27.7,73.8 27.7,71.3 24.8,71.4 	"/>
	<polygon class="st1" points="17.6,74.3 20.5,74.1 20.5,71.6 17.6,71.7 	"/>
	<polygon class="st1" points="10.5,74.6 13.3,74.5 13.3,71.9 10.5,72.1 	"/>
	<polygon class="st1" points="7,74.7 9.8,74.6 9.8,72.1 7,72.2 	"/>
	<polygon class="st1" points="3.5,74.9 6.2,74.8 6.2,72.3 3.5,72.4 	"/>
	<polygon class="st1" points="0,75 2.7,74.9 2.7,72.4 0,72.6 	"/>
	<polygon class="st1" points="32.1,76.8 35.1,76.7 35.1,74.2 32.1,74.3 	"/>
	<polygon class="st1" points="28.5,77 31.4,76.9 31.4,74.3 28.5,74.5 	"/>
	<polygon class="st1" points="24.8,77.1 27.7,77 27.7,74.5 24.8,74.6 	"/>
	<polygon class="st1" points="21.2,77.3 24.1,77.2 24.1,74.6 21.2,74.8 	"/>
	<polygon class="st1" points="17.6,77.4 20.5,77.3 20.5,74.8 17.6,74.9 	"/>
	<polygon class="st1" points="14.1,77.6 16.9,77.5 16.9,75 14.1,75.1 	"/>
	<polygon class="st1" points="10.5,77.7 13.3,77.6 13.3,75.1 10.5,75.2 	"/>
	<polygon class="st1" points="3.5,78 6.2,77.9 6.2,75.4 3.5,75.5 	"/>
	<polygon class="st1" points="0,78.2 2.7,78.1 2.7,75.6 0,75.7 	"/>
	<polygon class="st1" points="28.5,80.2 31.4,80.1 31.4,77.5 28.5,77.7 	"/>
	<polygon class="st1" points="21.2,80.5 24.1,80.4 24.1,77.8 21.2,78 	"/>
	<polygon class="st1" points="14.1,80.8 16.9,80.6 16.9,78.1 14.1,78.2 	"/>
	<polygon class="st1" points="10.5,80.9 13.3,80.8 13.3,78.3 10.5,78.4 	"/>
	<polygon class="st1" points="7,81 9.8,80.9 9.8,78.4 7,78.5 	"/>
	<polygon class="st1" points="3.5,81.2 6.2,81.1 6.2,78.6 3.5,78.7 	"/>
	<polygon class="st1" points="0,81.3 2.7,81.2 2.7,78.7 0,78.8 	"/>
	<polygon class="st1" points="32.1,83.3 35.1,83.2 35.1,80.6 32.1,80.7 	"/>
	<polygon class="st1" points="21.2,83.7 24.1,83.6 24.1,81 21.2,81.1 	"/>
	<polygon class="st1" points="14.1,83.9 16.9,83.8 16.9,81.3 14.1,81.4 	"/>
	<polygon class="st1" points="10.5,84 13.3,83.9 13.3,81.4 10.5,81.5 	"/>
	<polygon class="st1" points="3.5,84.3 6.2,84.2 6.2,81.7 3.5,81.8 	"/>
	<polygon class="st1" points="32.1,86.5 35.1,86.4 35.1,83.8 32.1,83.9 	"/>
	<polygon class="st1" points="24.8,86.7 27.7,86.6 27.7,84.1 24.8,84.2 	"/>
	<polygon class="st1" points="7,87.3 9.8,87.2 9.8,84.7 7,84.8 	"/>
	<polygon class="st1" points="3.5,87.4 6.2,87.3 6.2,84.8 3.5,84.9 	"/>
	<polygon class="st1" points="0,87.5 2.7,87.5 2.7,85 0,85.1 	"/>
	<polygon class="st1" points="32.1,89.7 35.1,89.6 35.1,87.1 32.1,87.2 	"/>
	<polygon class="st1" points="28.5,89.8 31.4,89.7 31.4,87.2 28.5,87.3 	"/>
	<polygon class="st1" points="24.8,89.9 27.7,89.8 27.7,87.3 24.8,87.4 	"/>
	<polygon class="st1" points="21.2,90 24.1,90 24.1,87.4 21.2,87.5 	"/>
	<polygon class="st1" points="10.5,90.4 13.3,90.3 13.3,87.8 10.5,87.9 	"/>
	<polygon class="st1" points="3.5,90.6 6.2,90.5 6.2,88 3.5,88.1 	"/>
	<polygon class="st1" points="0,90.7 2.7,90.6 2.7,88.1 0,88.2 	"/>
	<polygon class="st1" points="28.5,93 31.4,92.9 31.4,90.4 28.5,90.5 	"/>
	<polygon class="st1" points="17.6,93.3 20.5,93.2 20.5,90.7 17.6,90.8 	"/>
	<polygon class="st1" points="7,93.6 9.8,93.5 9.8,91 7,91.1 	"/>
	<polygon class="st1" points="3.5,93.7 6.2,93.6 6.2,91.1 3.5,91.2 	"/>
	<polygon class="st1" points="24.8,96.3 27.7,96.3 27.7,93.7 24.8,93.8 	"/>
	<polygon class="st1" points="21.2,96.4 24.1,96.3 24.1,93.8 21.2,93.9 	"/>
	<polygon class="st1" points="14.1,96.6 16.9,96.5 16.9,94 14.1,94.1 	"/>
	<polygon class="st1" points="10.5,96.7 13.3,96.6 13.3,94.1 10.5,94.2 	"/>
	<polygon class="st1" points="0,96.9 2.7,96.9 2.7,94.4 0,94.5 	"/>
	<polygon class="st1" points="28.5,99.4 31.4,99.4 31.4,96.8 28.5,96.9 	"/>
	<polygon class="st1" points="17.6,99.7 20.5,99.6 20.5,97.1 17.6,97.2 	"/>
	<polygon class="st1" points="3.5,100 6.2,99.9 6.2,97.4 3.5,97.5 	"/>
	<polygon class="st1" points="32.1,102.6 35.1,102.5 35.1,100 32.1,100 	"/>
	<polygon class="st1" points="21.2,102.8 24.1,102.7 24.1,100.2 21.2,100.3 	"/>
	<polygon class="st1" points="17.6,102.9 20.5,102.8 20.5,100.3 17.6,100.3 	"/>
	<polygon class="st1" points="10.5,103 13.3,102.9 13.3,100.4 10.5,100.5 	"/>
	<polygon class="st1" points="3.5,103.1 6.2,103.1 6.2,100.6 3.5,100.6 	"/>
	<polygon class="st1" points="0,103.2 2.7,103.1 2.7,100.6 0,100.7 	"/>
	<polygon class="st1" points="32.1,105.8 35.1,105.7 35.1,103.2 32.1,103.2 	"/>
	<polygon class="st1" points="21.2,106 24.1,105.9 24.1,103.4 21.2,103.4 	"/>
	<polygon class="st1" points="14.1,109.3 16.9,109.2 16.9,106.7 14.1,106.7 	"/>
	<polygon class="st1" points="3.5,109.4 6.2,109.4 6.2,106.9 3.5,106.9 	"/>
	<polygon class="st1" points="0,109.4 2.7,109.4 2.7,106.9 0,107 	"/>
	<polygon class="st1" points="24.8,112.3 27.7,112.3 27.7,109.7 24.8,109.8 	"/>
	<polygon class="st1" points="21.2,112.3 24.1,112.3 24.1,109.8 21.2,109.8 	"/>
	<polygon class="st1" points="3.5,112.5 6.2,112.5 6.2,110 3.5,110 	"/>
	<polygon class="st1" points="28.5,115.5 31.4,115.4 31.4,112.9 28.5,112.9 	"/>
	<polygon class="st1" points="7,115.6 9.8,115.6 9.8,113.1 7,113.1 	"/>
	<polygon class="st1" points="0,115.7 2.7,115.7 2.7,113.2 0,113.2 	"/>
	<polygon class="st1" points="24.8,118.7 27.7,118.7 27.7,116.1 24.8,116.2 	"/>
	<polygon class="st1" points="14.1,118.8 16.9,118.7 16.9,116.2 14.1,116.2 	"/>
	<polygon class="st1" points="7,118.8 9.8,118.8 9.8,116.3 7,116.3 	"/>
	<polygon class="st1" points="0,118.8 2.7,118.8 2.7,116.3 0,116.3 	"/>
	<polygon class="st1" points="32.1,121.9 35.1,121.9 35.1,119.3 32.1,119.3 	"/>
	<polygon class="st1" points="10.5,121.9 13.3,121.9 13.3,119.4 10.5,119.4 	"/>
	<polygon class="st1" points="0,122 2.7,121.9 2.7,119.5 0,119.5 	"/>
	<rect x="17.6" y="122.6" class="st1" width="2.8" height="2.5"/>
	<rect x="3.5" y="122.6" class="st1" width="2.8" height="2.5"/>
	
		<rect x="28.7" y="125.6" transform="matrix(3.139344e-03 -1 1 3.139344e-03 -97.1901 156.5589)" class="st1" width="2.5" height="2.9"/>
	
		<rect x="25" y="125.6" transform="matrix(3.143344e-03 -1 1 3.143344e-03 -100.8194 152.9029)" class="st1" width="2.5" height="2.9"/>
	
		<rect x="14.2" y="125.6" transform="matrix(3.146491e-03 -1 1 3.146491e-03 -111.5713 142.0726)" class="st1" width="2.5" height="2.8"/>
	
		<rect x="7.1" y="125.6" transform="matrix(3.144972e-03 -1 1 3.144972e-03 -118.6282 134.9647)" class="st1" width="2.5" height="2.8"/>
	
		<rect x="0.1" y="125.6" transform="matrix(3.142714e-03 -1 1 3.142714e-03 -125.5982 127.9444)" class="st1" width="2.5" height="2.7"/>
	<polygon class="st1" points="14.1,134.6 16.9,134.6 16.9,132.1 14.1,132.1 	"/>
	<polygon class="st1" points="0,134.5 2.7,134.5 2.7,132 0,132 	"/>
	<polygon class="st1" points="3.5,137.6 6.2,137.7 6.2,135.2 3.5,135.1 	"/>
	<polygon class="st1" points="28.5,141.1 31.4,141.2 31.4,138.6 28.5,138.6 	"/>
	<polygon class="st1" points="0,143.8 2.7,143.9 2.7,141.4 0,141.4 	"/>
	<polygon class="st1" points="17.6,147.3 20.5,147.4 20.5,144.9 17.6,144.8 	"/>
	<polygon class="st1" points="3.5,153.3 6.2,153.4 6.2,150.9 3.5,150.8 	"/>
	<polygon class="st1" points="21.2,157 24.1,157 24.1,154.5 21.2,154.4 	"/>
	<polygon class="st0" points="49.4,6.1 50.6,6.4 50.6,3.9 49.4,3.6 	"/>
	<polygon class="st0" points="47.9,5.7 49.1,6 49.1,3.5 47.9,3.2 	"/>
	<polygon class="st0" points="46.4,5.3 47.6,5.6 47.6,3.1 46.4,2.8 	"/>
	<polygon class="st0" points="44.9,5 46.1,5.3 46.1,2.8 44.9,2.5 	"/>
	<polygon class="st0" points="43.4,4.6 44.6,4.9 44.6,2.4 43.4,2.1 	"/>
	<polygon class="st0" points="41.8,4.2 43,4.5 43,2 41.8,1.7 	"/>
	<polygon class="st0" points="40.3,3.8 41.5,4.1 41.5,1.6 40.3,1.3 	"/>
	<polygon class="st0" points="38.7,3.5 40,3.8 40,1.2 38.7,0.9 	"/>
	<polygon class="st0" points="37.2,3.1 38.4,3.4 38.4,0.8 37.2,0.5 	"/>
	<polygon class="st0" points="35.6,2.7 36.8,3 36.8,0.4 35.6,0.1 	"/>
	<polygon class="st0" points="49.4,9.2 50.6,9.5 50.6,7 49.4,6.7 	"/>
	<polygon class="st0" points="47.9,8.8 49.1,9.1 49.1,6.6 47.9,6.4 	"/>
	<polygon class="st0" points="46.4,8.5 47.6,8.8 47.6,6.3 46.4,6 	"/>
	<polygon class="st0" points="44.9,8.1 46.1,8.4 46.1,5.9 44.9,5.6 	"/>
	<polygon class="st0" points="41.8,7.4 43,7.7 43,5.2 41.8,4.9 	"/>
	<polygon class="st0" points="40.3,7 41.5,7.3 41.5,4.8 40.3,4.5 	"/>
	<polygon class="st0" points="38.7,6.7 40,7 40,4.4 38.7,4.1 	"/>
	<polygon class="st0" points="37.2,6.3 38.4,6.6 38.4,4 37.2,3.7 	"/>
	<polygon class="st0" points="35.6,5.9 36.8,6.2 36.8,3.7 35.6,3.4 	"/>
	<polygon class="st0" points="49.4,12.3 50.6,12.6 50.6,10.1 49.4,9.8 	"/>
	<polygon class="st0" points="47.9,12 49.1,12.3 49.1,9.8 47.9,9.5 	"/>
	<polygon class="st0" points="46.4,11.6 47.6,11.9 47.6,9.4 46.4,9.1 	"/>
	<polygon class="st0" points="44.9,11.3 46.1,11.6 46.1,9.1 44.9,8.8 	"/>
	<polygon class="st0" points="43.4,10.9 44.6,11.2 44.6,8.7 43.4,8.4 	"/>
	<polygon class="st0" points="41.8,10.6 43,10.9 43,8.3 41.8,8.1 	"/>
	<polygon class="st0" points="40.3,10.2 41.5,10.5 41.5,8 40.3,7.7 	"/>
	<polygon class="st0" points="37.2,9.5 38.4,9.8 38.4,7.2 37.2,6.9 	"/>
	<polygon class="st0" points="35.6,9.1 36.8,9.4 36.8,6.9 35.6,6.6 	"/>
	<polygon class="st0" points="47.9,15.1 49.1,15.4 49.1,12.9 47.9,12.6 	"/>
	<polygon class="st0" points="46.4,14.8 47.6,15.1 47.6,12.6 46.4,12.3 	"/>
	<polygon class="st0" points="44.9,14.4 46.1,14.7 46.1,12.2 44.9,11.9 	"/>
	<polygon class="st0" points="41.8,13.8 43,14 43,11.5 41.8,11.2 	"/>
	<polygon class="st0" points="40.3,13.4 41.5,13.7 41.5,11.2 40.3,10.9 	"/>
	<polygon class="st0" points="38.7,13.1 40,13.3 40,10.8 38.7,10.5 	"/>
	<polygon class="st0" points="37.2,12.7 38.4,13 38.4,10.4 37.2,10.2 	"/>
	<polygon class="st0" points="49.4,18.6 50.6,18.9 50.6,16.4 49.4,16.1 	"/>
	<polygon class="st0" points="47.9,18.3 49.1,18.5 49.1,16 47.9,15.8 	"/>
	<polygon class="st0" points="46.4,17.9 47.6,18.2 47.6,15.7 46.4,15.4 	"/>
	<polygon class="st0" points="44.9,17.6 46.1,17.9 46.1,15.4 44.9,15.1 	"/>
	<polygon class="st0" points="43.4,17.3 44.6,17.5 44.6,15 43.4,14.8 	"/>
	<polygon class="st0" points="41.8,16.9 43,17.2 43,14.7 41.8,14.4 	"/>
	<polygon class="st0" points="40.3,16.6 41.5,16.9 41.5,14.3 40.3,14.1 	"/>
	<polygon class="st0" points="38.7,16.3 40,16.5 40,14 38.7,13.7 	"/>
	<polygon class="st0" points="37.2,15.9 38.4,16.2 38.4,13.6 37.2,13.4 	"/>
	<polygon class="st0" points="49.4,21.7 50.6,22 50.6,19.5 49.4,19.2 	"/>
	<polygon class="st0" points="47.9,21.4 49.1,21.7 49.1,19.2 47.9,18.9 	"/>
	<polygon class="st0" points="46.4,21.1 47.6,21.3 47.6,18.8 46.4,18.6 	"/>
	<polygon class="st0" points="44.9,20.8 46.1,21 46.1,18.5 44.9,18.3 	"/>
	<polygon class="st0" points="41.8,20.1 43,20.4 43,17.9 41.8,17.6 	"/>
	<polygon class="st0" points="40.3,19.8 41.5,20.1 41.5,17.5 40.3,17.3 	"/>
	<polygon class="st0" points="38.7,19.5 40,19.7 40,17.2 38.7,16.9 	"/>
	<polygon class="st0" points="37.2,19.1 38.4,19.4 38.4,16.9 37.2,16.6 	"/>
	<polygon class="st0" points="49.4,24.9 50.6,25.1 50.6,22.6 49.4,22.4 	"/>
	<polygon class="st0" points="47.9,24.6 49.1,24.8 49.1,22.3 47.9,22.1 	"/>
	<polygon class="st0" points="46.4,24.2 47.6,24.5 47.6,22 46.4,21.7 	"/>
	<polygon class="st0" points="44.9,23.9 46.1,24.2 46.1,21.7 44.9,21.4 	"/>
	<polygon class="st0" points="43.4,23.6 44.6,23.9 44.6,21.4 43.4,21.1 	"/>
	<polygon class="st0" points="41.8,23.3 43,23.6 43,21 41.8,20.8 	"/>
	<polygon class="st0" points="40.3,23 41.5,23.2 41.5,20.7 40.3,20.5 	"/>
	<polygon class="st0" points="37.2,22.3 38.4,22.6 38.4,20.1 37.2,19.8 	"/>
	<polygon class="st0" points="35.6,22 36.8,22.3 36.8,19.7 35.6,19.5 	"/>
	<polygon class="st0" points="49.4,28 50.6,28.2 50.6,25.7 49.4,25.5 	"/>
	<polygon class="st0" points="47.9,27.7 49.1,27.9 49.1,25.4 47.9,25.2 	"/>
	<polygon class="st0" points="46.4,27.4 47.6,27.6 47.6,25.1 46.4,24.9 	"/>
	<polygon class="st0" points="44.9,27.1 46.1,27.3 46.1,24.8 44.9,24.6 	"/>
	<polygon class="st0" points="41.8,26.5 43,26.7 43,24.2 41.8,24 	"/>
	<polygon class="st0" points="40.3,26.2 41.5,26.4 41.5,23.9 40.3,23.6 	"/>
	<polygon class="st0" points="38.7,25.9 40,26.1 40,23.6 38.7,23.3 	"/>
	<polygon class="st0" points="37.2,25.6 38.4,25.8 38.4,23.3 37.2,23 	"/>
	<polygon class="st0" points="35.6,25.2 36.8,25.5 36.8,22.9 35.6,22.7 	"/>
	<polygon class="st0" points="49.4,31.1 50.6,31.4 50.6,28.9 49.4,28.6 	"/>
	<polygon class="st0" points="47.9,30.8 49.1,31.1 49.1,28.6 47.9,28.3 	"/>
	<polygon class="st0" points="46.4,30.5 47.6,30.8 47.6,28.3 46.4,28 	"/>
	<polygon class="st0" points="44.9,30.3 46.1,30.5 46.1,28 44.9,27.7 	"/>
	<polygon class="st0" points="43.4,30 44.6,30.2 44.6,27.7 43.4,27.4 	"/>
	<polygon class="st0" points="41.8,29.7 43,29.9 43,27.4 41.8,27.1 	"/>
	<polygon class="st0" points="40.3,29.4 41.5,29.6 41.5,27.1 40.3,26.8 	"/>
	<polygon class="st0" points="37.2,28.8 38.4,29 38.4,26.5 37.2,26.2 	"/>
	<polygon class="st0" points="35.6,28.5 36.8,28.7 36.8,26.1 35.6,25.9 	"/>
	<polygon class="st0" points="47.9,34 49.1,34.2 49.1,31.7 47.9,31.5 	"/>
	<polygon class="st0" points="46.4,33.7 47.6,33.9 47.6,31.4 46.4,31.2 	"/>
	<polygon class="st0" points="44.9,33.4 46.1,33.6 46.1,31.1 44.9,30.9 	"/>
	<polygon class="st0" points="43.4,33.1 44.6,33.4 44.6,30.8 43.4,30.6 	"/>
	<polygon class="st0" points="41.8,32.8 43,33.1 43,30.6 41.8,30.3 	"/>
	<polygon class="st0" points="40.3,32.6 41.5,32.8 41.5,30.3 40.3,30 	"/>
	<polygon class="st0" points="38.7,32.3 40,32.5 40,30 38.7,29.7 	"/>
	<polygon class="st0" points="37.2,32 38.4,32.2 38.4,29.7 37.2,29.4 	"/>
	<polygon class="st0" points="35.6,31.7 36.8,31.9 36.8,29.4 35.6,29.1 	"/>
	<polygon class="st0" points="49.4,37.4 50.6,37.6 50.6,35.1 49.4,34.9 	"/>
	<polygon class="st0" points="43.4,36.3 44.6,36.5 44.6,34 43.4,33.8 	"/>
	<polygon class="st0" points="41.8,36 43,36.2 43,33.7 41.8,33.5 	"/>
	<polygon class="st0" points="38.7,35.5 40,35.7 40,33.2 38.7,32.9 	"/>
	<polygon class="st0" points="37.2,35.2 38.4,35.4 38.4,32.9 37.2,32.6 	"/>
	<polygon class="st0" points="35.6,34.9 36.8,35.1 36.8,32.6 35.6,32.3 	"/>
	<polygon class="st0" points="47.9,40.3 49.1,40.5 49.1,38 47.9,37.8 	"/>
	<polygon class="st0" points="46.4,40 47.6,40.2 47.6,37.7 46.4,37.5 	"/>
	<polygon class="st0" points="38.7,38.7 40,38.9 40,36.3 38.7,36.1 	"/>
	<polygon class="st0" points="35.6,38.1 36.8,38.3 36.8,35.8 35.6,35.6 	"/>
	<polygon class="st0" points="49.4,43.7 50.6,43.8 50.6,41.4 49.4,41.2 	"/>
	<polygon class="st0" points="47.9,43.4 49.1,43.6 49.1,41.1 47.9,40.9 	"/>
	<polygon class="st0" points="46.4,43.2 47.6,43.3 47.6,40.9 46.4,40.6 	"/>
	<polygon class="st0" points="43.4,42.6 44.6,42.8 44.6,40.3 43.4,40.1 	"/>
	<polygon class="st0" points="40.3,42.1 41.5,42.3 41.5,39.8 40.3,39.6 	"/>
	<polygon class="st0" points="37.2,41.6 38.4,41.8 38.4,39.3 37.2,39.1 	"/>
	<polygon class="st0" points="47.9,46.5 49.1,46.7 49.1,44.2 47.9,44.1 	"/>
	<polygon class="st0" points="46.4,46.3 47.6,46.5 47.6,44 46.4,43.8 	"/>
	<polygon class="st0" points="44.9,46.1 46.1,46.3 46.1,43.7 44.9,43.5 	"/>
	<polygon class="st0" points="40.3,45.3 41.5,45.5 41.5,43 40.3,42.8 	"/>
	<polygon class="st0" points="37.2,44.8 38.4,45 38.4,42.5 37.2,42.3 	"/>
	<polygon class="st0" points="49.4,49.9 50.6,50.1 50.6,47.6 49.4,47.4 	"/>
	<polygon class="st0" points="47.9,49.7 49.1,49.9 49.1,47.4 47.9,47.2 	"/>
	<polygon class="st0" points="46.4,49.5 47.6,49.6 47.6,47.1 46.4,47 	"/>
	<polygon class="st0" points="43.4,49 44.6,49.2 44.6,46.7 43.4,46.5 	"/>
	<polygon class="st0" points="40.3,48.5 41.5,48.7 41.5,46.2 40.3,46 	"/>
	<polygon class="st0" points="38.7,48.3 40,48.5 40,45.9 38.7,45.7 	"/>
	<polygon class="st0" points="49.4,53 50.6,53.2 50.6,50.7 49.4,50.6 	"/>
	<polygon class="st0" points="47.9,52.8 49.1,53 49.1,50.5 47.9,50.3 	"/>
	<polygon class="st0" points="44.9,52.4 46.1,52.6 46.1,50.1 44.9,49.9 	"/>
	<polygon class="st0" points="43.4,52.2 44.6,52.3 44.6,49.8 43.4,49.6 	"/>
	<polygon class="st0" points="41.8,51.9 43,52.1 43,49.6 41.8,49.4 	"/>
	<polygon class="st0" points="38.7,51.5 40,51.7 40,49.1 38.7,48.9 	"/>
	<polygon class="st0" points="35.6,51 36.8,51.2 36.8,48.6 35.6,48.5 	"/>
	<polygon class="st0" points="49.4,56.2 50.6,56.3 50.6,53.9 49.4,53.7 	"/>
	<polygon class="st0" points="47.9,56 49.1,56.1 49.1,53.6 47.9,53.5 	"/>
	<polygon class="st0" points="46.4,55.8 47.6,55.9 47.6,53.4 46.4,53.3 	"/>
	<polygon class="st0" points="44.9,55.5 46.1,55.7 46.1,53.2 44.9,53 	"/>
	<polygon class="st0" points="43.4,55.3 44.6,55.5 44.6,53 43.4,52.8 	"/>
	<polygon class="st0" points="41.8,55.1 43,55.3 43,52.8 41.8,52.6 	"/>
	<polygon class="st0" points="40.3,54.9 41.5,55.1 41.5,52.5 40.3,52.4 	"/>
	<polygon class="st0" points="38.7,54.7 40,54.8 40,52.3 38.7,52.1 	"/>
	<polygon class="st0" points="37.2,54.5 38.4,54.6 38.4,52.1 37.2,51.9 	"/>
	<polygon class="st0" points="35.6,54.2 36.8,54.4 36.8,51.9 35.6,51.7 	"/>
	<polygon class="st0" points="49.4,59.3 50.6,59.5 50.6,57 49.4,56.8 	"/>
	<polygon class="st0" points="47.9,59.1 49.1,59.3 49.1,56.8 47.9,56.6 	"/>
	<polygon class="st0" points="46.4,58.9 47.6,59.1 47.6,56.6 46.4,56.4 	"/>
	<polygon class="st0" points="43.4,58.5 44.6,58.7 44.6,56.1 43.4,56 	"/>
	<polygon class="st0" points="41.8,58.3 43,58.5 43,55.9 41.8,55.8 	"/>
	<polygon class="st0" points="38.7,57.9 40,58 40,55.5 38.7,55.3 	"/>
	<polygon class="st0" points="37.2,57.7 38.4,57.8 38.4,55.3 37.2,55.1 	"/>
	<polygon class="st0" points="47.9,62.3 49.1,62.4 49.1,59.9 47.9,59.8 	"/>
	<polygon class="st0" points="46.4,62.1 47.6,62.2 47.6,59.7 46.4,59.6 	"/>
	<polygon class="st0" points="44.9,61.9 46.1,62 46.1,59.5 44.9,59.4 	"/>
	<polygon class="st0" points="43.4,61.7 44.6,61.8 44.6,59.3 43.4,59.2 	"/>
	<polygon class="st0" points="41.8,61.5 43,61.6 43,59.1 41.8,58.9 	"/>
	<polygon class="st0" points="40.3,61.3 41.5,61.4 41.5,58.9 40.3,58.7 	"/>
	<polygon class="st0" points="38.7,61.1 40,61.2 40,58.7 38.7,58.5 	"/>
	<polygon class="st0" points="37.2,60.9 38.4,61 38.4,58.5 37.2,58.3 	"/>
	<polygon class="st0" points="35.6,60.7 36.8,60.8 36.8,58.3 35.6,58.1 	"/>
	<polygon class="st0" points="49.4,65.6 50.6,65.7 50.6,63.2 49.4,63.1 	"/>
	<polygon class="st0" points="47.9,65.4 49.1,65.5 49.1,63.1 47.9,62.9 	"/>
	<polygon class="st0" points="46.4,65.2 47.6,65.4 47.6,62.9 46.4,62.7 	"/>
	<polygon class="st0" points="44.9,65 46.1,65.2 46.1,62.7 44.9,62.5 	"/>
	<polygon class="st0" points="41.8,64.7 43,64.8 43,62.3 41.8,62.1 	"/>
	<polygon class="st0" points="40.3,64.5 41.5,64.6 41.5,62.1 40.3,61.9 	"/>
	<polygon class="st0" points="38.7,64.3 40,64.4 40,61.9 38.7,61.7 	"/>
	<polygon class="st0" points="35.6,63.9 36.8,64 36.8,61.5 35.6,61.3 	"/>
	<polygon class="st0" points="49.4,68.7 50.6,68.8 50.6,66.4 49.4,66.2 	"/>
	<polygon class="st0" points="47.9,68.5 49.1,68.7 49.1,66.2 47.9,66 	"/>
	<polygon class="st0" points="44.9,68.2 46.1,68.3 46.1,65.8 44.9,65.7 	"/>
	<polygon class="st0" points="40.3,67.7 41.5,67.8 41.5,65.3 40.3,65.1 	"/>
	<polygon class="st0" points="38.7,67.5 40,67.6 40,65.1 38.7,64.9 	"/>
	<polygon class="st0" points="37.2,67.3 38.4,67.4 38.4,64.9 37.2,64.7 	"/>
	<polygon class="st0" points="35.6,67.1 36.8,67.3 36.8,64.7 35.6,64.6 	"/>
	<polygon class="st0" points="47.9,71.7 49.1,71.8 49.1,69.3 47.9,69.2 	"/>
	<polygon class="st0" points="46.4,71.5 47.6,71.6 47.6,69.1 46.4,69 	"/>
	<polygon class="st0" points="44.9,71.3 46.1,71.5 46.1,69 44.9,68.8 	"/>
	<polygon class="st0" points="43.4,71.2 44.6,71.3 44.6,68.8 43.4,68.7 	"/>
	<polygon class="st0" points="40.3,70.8 41.5,71 41.5,68.5 40.3,68.3 	"/>
	<polygon class="st0" points="37.2,70.5 38.4,70.6 38.4,68.1 37.2,68 	"/>
	<polygon class="st0" points="47.9,74.8 49.1,74.9 49.1,72.5 47.9,72.3 	"/>
	<polygon class="st0" points="43.4,74.4 44.6,74.5 44.6,72 43.4,71.8 	"/>
	<polygon class="st0" points="41.8,74.2 43,74.3 43,71.8 41.8,71.7 	"/>
	<polygon class="st0" points="40.3,74 41.5,74.2 41.5,71.6 40.3,71.5 	"/>
	<polygon class="st0" points="37.2,73.7 38.4,73.8 38.4,71.3 37.2,71.2 	"/>
	<polygon class="st0" points="49.4,78.1 50.6,78.2 50.6,75.7 49.4,75.6 	"/>
	<polygon class="st0" points="46.4,77.8 47.6,77.9 47.6,75.4 46.4,75.3 	"/>
	<polygon class="st0" points="44.9,77.7 46.1,77.8 46.1,75.3 44.9,75.2 	"/>
	<polygon class="st0" points="43.4,77.5 44.6,77.6 44.6,75.1 43.4,75 	"/>
	<polygon class="st0" points="41.8,77.4 43,77.5 43,75 41.8,74.9 	"/>
	<polygon class="st0" points="38.7,77.1 40,77.2 40,74.7 38.7,74.5 	"/>
	<polygon class="st0" points="37.2,76.9 38.4,77 38.4,74.5 37.2,74.4 	"/>
	<polygon class="st0" points="35.6,76.8 36.8,76.9 36.8,74.3 35.6,74.2 	"/>
	<polygon class="st0" points="49.4,81.2 50.6,81.3 50.6,78.9 49.4,78.7 	"/>
	<polygon class="st0" points="47.9,81.1 49.1,81.2 49.1,78.7 47.9,78.6 	"/>
	<polygon class="st0" points="46.4,81 47.6,81.1 47.6,78.6 46.4,78.5 	"/>
	<polygon class="st0" points="44.9,80.8 46.1,80.9 46.1,78.4 44.9,78.3 	"/>
	<polygon class="st0" points="43.4,80.7 44.6,80.8 44.6,78.3 43.4,78.2 	"/>
	<polygon class="st0" points="40.3,80.4 41.5,80.5 41.5,78 40.3,77.9 	"/>
	<polygon class="st0" points="38.7,80.3 40,80.4 40,77.9 38.7,77.7 	"/>
	<polygon class="st0" points="37.2,80.1 38.4,80.2 38.4,77.7 37.2,77.6 	"/>
	<polygon class="st0" points="49.4,84.4 50.6,84.5 50.6,82 49.4,81.9 	"/>
	<polygon class="st0" points="47.9,84.2 49.1,84.3 49.1,81.9 47.9,81.7 	"/>
	<polygon class="st0" points="44.9,84 46.1,84.1 46.1,81.6 44.9,81.5 	"/>
	<polygon class="st0" points="43.4,83.9 44.6,84 44.6,81.5 43.4,81.3 	"/>
	<polygon class="st0" points="41.8,83.7 43,83.8 43,81.3 41.8,81.2 	"/>
	<polygon class="st0" points="40.3,83.6 41.5,83.7 41.5,81.2 40.3,81.1 	"/>
	<polygon class="st0" points="37.2,83.3 38.4,83.5 38.4,80.9 37.2,80.8 	"/>
	<polygon class="st0" points="35.6,83.2 36.8,83.3 36.8,80.8 35.6,80.7 	"/>
	<polygon class="st0" points="49.4,87.5 50.6,87.6 50.6,85.1 49.4,85 	"/>
	<polygon class="st0" points="46.4,87.3 47.6,87.4 47.6,84.9 46.4,84.8 	"/>
	<polygon class="st0" points="44.9,87.2 46.1,87.2 46.1,84.7 44.9,84.6 	"/>
	<polygon class="st0" points="37.2,86.6 38.4,86.6 38.4,84.1 37.2,84 	"/>
	<polygon class="st0" points="37.2,86.6 38.4,86.7 38.4,84.1 37.2,84 	"/>
	<polygon class="st0" points="49.4,90.6 50.6,90.7 50.6,88.2 49.4,88.1 	"/>
	<polygon class="st0" points="47.9,90.5 49.1,90.6 49.1,88.1 47.9,88 	"/>
	<polygon class="st0" points="46.4,90.4 47.6,90.5 47.6,88 46.4,87.9 	"/>
	<polygon class="st0" points="44.9,90.3 46.1,90.4 46.1,87.9 44.9,87.8 	"/>
	<polygon class="st0" points="38.7,89.9 40,90 40,87.4 38.7,87.3 	"/>
	<polygon class="st0" points="37.2,89.8 38.4,89.9 38.4,87.3 37.2,87.2 	"/>
	<polygon class="st0" points="35.6,89.7 36.8,89.7 36.8,87.2 35.6,87.1 	"/>
	<polygon class="st0" points="49.4,93.8 50.6,93.8 50.6,91.4 49.4,91.3 	"/>
	<polygon class="st0" points="46.4,93.6 47.6,93.6 47.6,91.2 46.4,91.1 	"/>
	<polygon class="st0" points="41.8,93.3 43,93.4 43,90.8 41.8,90.8 	"/>
	<polygon class="st0" points="38.7,93.1 40,93.2 40,90.6 38.7,90.5 	"/>
	<polygon class="st0" points="49.4,96.9 50.6,97 50.6,94.5 49.4,94.4 	"/>
	<polygon class="st0" points="47.9,96.8 49.1,96.9 49.1,94.4 47.9,94.3 	"/>
	<polygon class="st0" points="46.4,96.7 47.6,96.8 47.6,94.3 46.4,94.2 	"/>
	<polygon class="st0" points="40.3,96.4 41.5,96.4 41.5,93.9 40.3,93.8 	"/>
	<polygon class="st0" points="35.6,96.1 36.8,96.2 36.8,93.6 35.6,93.5 	"/>
	<polygon class="st0" points="49.4,100 50.6,100.1 50.6,97.6 49.4,97.5 	"/>
	<polygon class="st0" points="47.9,99.9 49.1,100 49.1,97.5 47.9,97.5 	"/>
	<polygon class="st0" points="46.4,99.9 47.6,99.9 47.6,97.4 46.4,97.4 	"/>
	<polygon class="st0" points="43.4,99.7 44.6,99.8 44.6,97.3 43.4,97.2 	"/>
	<polygon class="st0" points="38.7,99.5 40,99.5 40,97 38.7,96.9 	"/>
	<polygon class="st0" points="37.2,99.4 38.4,99.5 38.4,96.9 37.2,96.9 	"/>
	<polygon class="st0" points="47.9,103.1 49.1,103.1 49.1,100.7 47.9,100.6 	"/>
	<polygon class="st0" points="46.4,103 47.6,103.1 47.6,100.6 46.4,100.5 	"/>
	<polygon class="st0" points="37.2,102.6 38.4,102.7 38.4,100.1 37.2,100.1 	"/>
	<polygon class="st0" points="49.4,106.3 50.6,106.3 50.6,103.9 49.4,103.8 	"/>
	<polygon class="st0" points="47.9,106.2 49.1,106.3 49.1,103.8 47.9,103.7 	"/>
	<polygon class="st0" points="46.4,106.2 47.6,106.2 47.6,103.7 46.4,103.7 	"/>
	<polygon class="st0" points="44.9,106.1 46.1,106.2 46.1,103.7 44.9,103.6 	"/>
	<polygon class="st0" points="41.8,106 43,106 43,103.5 41.8,103.5 	"/>
	<polygon class="st0" points="47.9,109.4 49.1,109.4 49.1,106.9 47.9,106.9 	"/>
	<polygon class="st0" points="46.4,109.3 47.6,109.4 47.6,106.9 46.4,106.8 	"/>
	<polygon class="st0" points="38.7,109.1 40,109.1 40,106.6 38.7,106.5 	"/>
	<polygon class="st0" points="37.2,109 38.4,109.1 38.4,106.5 37.2,106.5 	"/>
	<polygon class="st0" points="49.4,112.6 50.6,112.6 50.6,110.1 49.4,110.1 	"/>
	<polygon class="st0" points="47.9,112.5 49.1,112.5 49.1,110.1 47.9,110 	"/>
	<polygon class="st0" points="47.9,115.7 49.1,115.7 49.1,113.2 47.9,113.2 	"/>
	<polygon class="st0" points="46.4,115.6 47.6,115.7 47.6,113.2 46.4,113.1 	"/>
	<polygon class="st0" points="44.9,115.6 46.1,115.6 46.1,113.1 44.9,113.1 	"/>
	<polygon class="st0" points="43.4,115.6 44.6,115.6 44.6,113.1 43.4,113.1 	"/>
	<polygon class="st0" points="37.2,115.5 38.4,115.5 38.4,112.9 37.2,112.9 	"/>
	<polygon class="st0" points="49.4,118.8 50.6,118.8 50.6,116.4 49.4,116.3 	"/>
	<polygon class="st0" points="35.6,118.6 36.8,118.7 36.8,116.1 35.6,116.1 	"/>
	<polygon class="st0" points="49.4,121.9 50.6,122 50.6,119.5 49.4,119.5 	"/>
	<polygon class="st0" points="47.9,121.9 49.1,121.9 49.1,119.5 47.9,119.4 	"/>
	<polygon class="st0" points="40.3,121.9 41.5,121.9 41.5,119.4 40.3,119.4 	"/>
	<polygon class="st0" points="37.2,121.9 38.4,121.9 38.4,119.3 37.2,119.3 	"/>
	<rect x="47.9" y="122.6" class="st0" width="1.2" height="2.5"/>
	<polygon class="st0" points="49.4,128.2 50.6,128.2 50.6,125.7 49.4,125.7 	"/>
	<polygon class="st0" points="44.9,128.2 46.1,128.2 46.1,125.7 44.9,125.7 	"/>
	<polygon class="st0" points="37.2,131.5 38.4,131.5 38.4,129 37.2,129 	"/>
	<polygon class="st0" points="35.6,134.8 36.8,134.7 36.8,132.2 35.6,132.2 	"/>
	<polygon class="st0" points="41.8,137.8 43,137.8 43,135.3 41.8,135.3 	"/>
	<polygon class="st0" points="49.4,140.7 50.6,140.7 50.6,138.2 49.4,138.3 	"/>
	<polygon class="st0" points="37.2,144.4 38.4,144.3 38.4,141.8 37.2,141.8 	"/>
	<polygon class="st0" points="49.4,150.1 50.6,150.1 50.6,147.6 49.4,147.6 	"/>
	<polygon class="st0" points="46.4,156.6 47.6,156.5 47.6,154 46.4,154.1 	"/>
	<polygon class="st0" points="38.7,157.1 40,157 40,154.5 38.7,154.6 	"/>
</g>
</svg>
