<?xml version="1.0" encoding="utf-8"?>
<!-- Generator: Adobe Illustrator 24.2.1, SVG Export Plug-In . SVG Version: 6.00 Build 0)  -->
<svg version="1.1" id="funtion" xmlns="http://www.w3.org/2000/svg" xmlns:xlink="http://www.w3.org/1999/xlink" x="0px" y="0px"
	 viewBox="0 0 194.9 124.4" style="enable-background:new 0 0 194.9 124.4;" xml:space="preserve">
<style type="text/css">
	.st0{fill:url(#SVGID_1_);}
	.st1{fill:#F5C644;}
	.st2{fill:url(#SVGID_2_);}
	.st3{fill:url(#SVGID_3_);}
</style>
<g>
	<g>
		<g>
			<linearGradient id="SVGID_1_" gradientUnits="userSpaceOnUse" x1="190.8286" y1="4.5231" x2="37.6473" y2="97.641">
				<stop  offset="0" style="stop-color:#E4983C"/>
				<stop  offset="0.8767" style="stop-color:#E4983C;stop-opacity:0.1233"/>
				<stop  offset="1" style="stop-color:#E4983C;stop-opacity:0"/>
			</linearGradient>
			<path class="st0" d="M37.6,73.4c5.8-0.6,11.4-1.9,16.9-3.4c2.8-0.7,5.5-1.7,8.3-2.5c2.7-0.9,5.4-1.9,8.1-2.8
				c10.8-4,21.2-8.9,31.4-14.2l7.6-4l7.5-4.3l3.7-2.1l3.6-2.3l7.3-4.6c4.8-3.1,9.5-6.4,14.3-9.6l13.9-10.1l-1.1,2.3l-0.2-6.1l0-1.5
				l0-0.8l0-0.4l0-0.7c0.1-1.8,1-3.4,2.3-4.6c1.3-1.2,3-1.8,4.7-1.8c1.7,0,3.4,0.6,4.7,1.7c1.3,1.1,2.2,2.8,2.4,4.5
				c0,0.2,0,0.5,0,0.6l0,0.4l0,0.8l0,1.5l-4.7-2.3l2.5-2l1.3-1c0.6-0.4,1.1-0.8,1.7-1.1c1.2-0.7,2.5-1.2,3.8-1.5
				c1.3-0.3,2.7-0.4,4.1-0.3c2.7,0.2,5.4,1.1,7.6,2.7c1.1,0.8,2.1,1.8,2.9,2.9c0.9,1.1,1.5,2.3,1.9,3.7c0.9,2.6,1,5.5,0.2,8.2
				c-0.8,2.7-2.4,5-4.6,6.8l-10.5,7.9c-6.8,5.4-14.2,10.1-21.3,15c-3.7,2.4-7.4,4.6-11,6.9c-1.9,1.1-3.7,2.3-5.6,3.4l-5.7,3.2
				c-3.8,2.1-7.5,4.3-11.5,6.2l-5.8,3c-1.9,1-3.9,2-5.9,2.9l-5.9,2.7c-2,0.9-3.9,1.8-6,2.6l-6.1,2.4l-3,1.2c-1,0.4-2,0.7-3.1,1.1
				c-4.1,1.4-8.2,2.9-12.4,4.1c-2.1,0.6-4.1,1.3-6.3,1.8l-6.3,1.6c-8.5,1.9-17.1,3.4-25.7,3.4c4.3-0.3,8.6-1.1,12.8-2
				c2.1-0.5,4.2-0.9,6.3-1.5c2.1-0.6,4.2-1.1,6.2-1.7l6.2-1.9c2.1-0.6,4.1-1.4,6.1-2.1c4.1-1.4,8-3.1,12-4.6c1-0.4,2-0.8,3-1.2
				l2.9-1.3l5.9-2.6c2-0.8,3.9-1.9,5.8-2.8l5.8-2.9c1.9-0.9,3.8-2,5.7-3l5.7-3.1c3.8-2,7.4-4.3,11.1-6.5l5.5-3.3
				c1.8-1.1,3.6-2.3,5.4-3.5c3.6-2.4,7.2-4.7,10.8-7l10.5-7.4c1.7-1.2,3.5-2.4,5.3-3.7l5.1-3.9l10.2-7.8c1.2-1,2.1-2.3,2.6-3.8
				c0.4-1.5,0.4-3.1-0.1-4.6c-0.3-0.7-0.6-1.4-1.1-2c-0.4-0.7-1-1.2-1.6-1.7c-1.3-0.9-2.8-1.5-4.4-1.6c-0.8-0.1-1.6,0-2.4,0.2
				c-0.8,0.2-1.5,0.4-2.2,0.8c-0.4,0.2-0.7,0.4-1,0.6l-1.3,1l-2.6,2l-4.6,3.5l-0.1-5.8l-0.1-2.8c0-0.3-0.1-0.5-0.4-0.7
				c-0.4-0.4-1.3-0.4-1.7,0c-0.2,0.2-0.4,0.5-0.4,0.7l0,2.7l0.1,6.1l0,1.5l-1.2,0.8l-14.3,10l-7.3,4.7l-3.7,2.4
				c-1.2,0.8-2.4,1.6-3.7,2.3l-7.5,4.4l-3.8,2.2l-3.8,2.1l-7.7,4.1c-2.6,1.3-5.2,2.6-7.8,3.8c-10.5,4.9-21.3,9.4-32.4,12.9
				c-2.8,0.8-5.6,1.7-8.4,2.4c-2.8,0.7-5.6,1.4-8.5,2C49.1,72.4,43.4,73.3,37.6,73.4z"/>
		</g>
		<g>
			<path class="st1" d="M165.8,2.9L165.8,2.9c2.3-0.1,4.2,1.7,4.2,3.9l0.3,13c0.1,2.2-1.8,4.1-4.1,4.1l0,0c-2.3,0.1-4.2-1.7-4.2-3.9
				l-0.3-13C161.7,4.8,163.5,3,165.8,2.9z"/>
			<g>
				<path class="st1" d="M190.3,9.5c-0.3-0.4-0.5-0.8-0.9-1.2c-3.9-4.6-10.8-5.3-15.6-1.6C90.4,72.2,38.1,73.4,37.6,73.4
					c-6.1,0.1-11,4.9-11,10.9c0.1,5.9,5.1,10.7,11.2,10.7c2.4,0,60.6-1.4,150-71.5C192.2,20,193.2,14,190.3,9.5z"/>
			</g>
		</g>
	</g>
	<g>
		<linearGradient id="SVGID_2_" gradientUnits="userSpaceOnUse" x1="0" y1="92.0119" x2="80.2583" y2="92.0119">
			<stop  offset="0.1948" style="stop-color:#E0E1E1"/>
			<stop  offset="0.7474" style="stop-color:#CFD0D0"/>
		</linearGradient>
		<path class="st2" d="M0,71.7l64.9-11l15.4,45.1c0,0-31.9,28.9-78.8,12.4"/>
		<linearGradient id="SVGID_3_" gradientUnits="userSpaceOnUse" x1="-0.3345" y1="91.5531" x2="82.5759" y2="91.5531">
			<stop  offset="0.1948" style="stop-color:#C7C8C9"/>
			<stop  offset="0.7474" style="stop-color:#9D9D9E"/>
		</linearGradient>
		<path class="st3" d="M0,71.7c5.4-1.2,10.7-2.3,16.1-3.4c5.4-1.1,10.8-2.2,16.1-3.2C37.6,64,43,63,48.4,62c5.4-1,10.8-2,16.2-3
			l1.5-0.3l0.5,1.4l4,11.2l3.9,11.3c1.3,3.8,2.6,7.5,3.9,11.3l3.8,11.3l0.4,1.2l-1,0.8c-2.8,2.4-5.8,4.3-8.9,6.2
			c-3.1,1.8-6.3,3.4-9.5,4.7c-6.5,2.8-13.4,4.6-20.4,5.6c-3.5,0.5-7,0.7-10.6,0.7c-3.5,0-7-0.3-10.5-0.7c-7-1-13.7-2.8-20.2-5.5
			c6.7,2,13.5,3.3,20.4,3.8c6.9,0.5,13.8,0.2,20.5-1c6.7-1.1,13.3-3.2,19.5-6c3.1-1.4,6.1-3,9-4.7c1.4-0.9,2.9-1.8,4.2-2.8
			c1.4-1,2.8-2,3.9-3l-0.5,2.1l-3.9-11.3c-1.3-3.7-2.6-7.5-3.8-11.3l-3.8-11.3l-3.7-11.3l2,1.2c-5.4,0.9-10.8,1.7-16.3,2.5
			c-5.4,0.8-10.8,1.6-16.3,2.4c-5.4,0.8-10.9,1.5-16.3,2.3C10.9,70.4,5.5,71.1,0,71.7z"/>
	</g>
</g>
</svg>
