<?xml version="1.0" encoding="utf-8"?>
<!-- Generator: Adobe Illustrator 24.2.1, SVG Export Plug-In . SVG Version: 6.00 Build 0)  -->
<svg version="1.1" id="header" xmlns="http://www.w3.org/2000/svg" xmlns:xlink="http://www.w3.org/1999/xlink" x="0px" y="0px"
	 viewBox="0 0 872.2 144.8" style="enable-background:new 0 0 872.2 144.8;" xml:space="preserve">
<style type="text/css">
	.st0{fill:#FFB215;}
	.st1{fill:#B56E8E;}
	.st2{fill:#488C7D;}
</style>
<g>
	<path class="st0" d="M872.2,83c0,31.6-11.3,44.1-25.3,44.1c-14,0-25.3-12.5-25.3-44.1s25.3-70.3,25.3-70.3
		C846.8,12.7,872.2,51.4,872.2,83z"/>
	<path class="st1" d="M848.7,63.6v81.6c0,0.1-0.1,0.2-0.3,0.2h-3.3c-0.1,0-0.3-0.1-0.3-0.2V63.6c0-0.1,0.1-0.2,0.3-0.2h3.3
		C848.6,63.4,848.7,63.5,848.7,63.6z"/>
	<path class="st2" d="M847.2,86.8l-1.5-0.8c-0.2-0.1-0.3-0.4-0.2-0.6l9.2-16.6c0.1-0.2,0.4-0.3,0.6-0.2l1.5,0.8
		c0.2,0.1,0.3,0.4,0.2,0.6l-9.2,16.6C847.8,86.9,847.5,87,847.2,86.8z"/>
	<path class="st2" d="M847.9,97.5l-1.3,1c-0.2,0.2-0.5,0.1-0.7-0.1l-9.7-12.2c-0.2-0.2-0.1-0.5,0.1-0.7l1.3-1
		c0.2-0.2,0.5-0.1,0.7,0.1l9.7,12.2C848.2,97.1,848.1,97.4,847.9,97.5z"/>
	<path class="st2" d="M855.9,104.5l-7.8,7.8l-1.4,1.4c-0.1,0.1-0.2,0.1-0.2,0l-0.9-0.9v-1.6l2.6-2.6l6-5.9c0.1-0.1,0.2-0.1,0.2,0
		l1.6,1.6C856,104.3,856,104.4,855.9,104.5z"/>
</g>
<g>
	<path class="st0" d="M42.9,71.1c0,40.3-9.6,43.9-21.4,43.9S0,111.4,0,71.1S21.4-1.2,21.4-1.2S42.9,30.9,42.9,71.1z"/>
	<path class="st1" d="M22.8,51v75.7c0,0.1-0.1,0.2-0.2,0.2h-2.3c-0.1,0-0.2-0.1-0.2-0.2V51c0-0.1,0.1-0.2,0.2-0.2h2.3
		C22.7,50.8,22.8,50.9,22.8,51z"/>
	<path class="st1" d="M21.4,88.7L21.4,88.7c-0.7-0.3-1-1-0.5-1.6l8.5-9.6c0.3-0.4,1-0.5,1.5-0.3l0,0c0.7,0.3,1,1,0.5,1.6l-8.5,9.6
		C22.6,88.8,21.9,88.9,21.4,88.7z"/>
	<path class="st1" d="M21.6,96.3L21.6,96.3c-0.5,0.2-1,0.2-1.4-0.1l-8.9-7c-0.6-0.5-0.5-1.2,0.2-1.6l0,0c0.5-0.2,1-0.2,1.4,0.1
		l8.9,7C22.4,95.2,22.3,96,21.6,96.3z"/>
	<path class="st1" d="M30.2,100.8l-7.4,4.6l-0.8,0.5c-0.4,0.3-1.2,0.3-1.6,0l0,0c-0.2-0.1-0.3-0.3-0.3-0.4v-0.5
		c0-0.2,0.1-0.3,0.3-0.4l2.4-1.5l6.2-3.9c0.1,0,0.2,0,0.3,0l1,0.6C30.7,100,30.7,100.5,30.2,100.8z"/>
</g>
<g>
	<path class="st1" d="M98.9,73.4v50.6c0,0.1-0.1,0.1-0.2,0.1h-2.1c-0.1,0-0.2,0-0.2-0.1V73.4c0-0.1,0.1-0.1,0.2-0.1h2.1
		C98.9,73.2,98.9,73.3,98.9,73.4z"/>
	<path class="st1" d="M97.7,98.6L97.7,98.6c-0.5-0.2-0.7-0.7-0.4-1l5.7-6.4c0.2-0.3,0.6-0.4,1-0.2l0,0c0.5,0.2,0.7,0.7,0.4,1
		l-5.7,6.4C98.5,98.6,98.1,98.7,97.7,98.6z"/>
	<path class="st1" d="M97.9,103.7L97.9,103.7c-0.3,0.2-0.7,0.1-1-0.1L91,98.9c-0.4-0.3-0.3-0.8,0.1-1l0,0c0.3-0.2,0.7-0.1,1,0.1
		l5.9,4.7C98.4,102.9,98.3,103.4,97.9,103.7z"/>
	<path class="st1" d="M103.6,106.6l-5,3.1l-0.5,0.3c-0.3,0.2-0.8,0.2-1.1,0l0,0c-0.1-0.1-0.2-0.2-0.2-0.3v-0.3
		c0-0.1,0.1-0.2,0.2-0.3l1.6-1l4.1-2.6c0,0,0.1,0,0.2,0l0.7,0.4C103.9,106.1,103.9,106.4,103.6,106.6z"/>
	<path class="st0" d="M112.1,86.8c0,26.9-6.4,29.3-14.3,29.3s-14.3-2.4-14.3-29.3s14.3-48.3,14.3-48.3S112.1,59.9,112.1,86.8z"/>
</g>
<g>
	<path class="st1" d="M214.1,82.7v39.1c0,0-0.1,0.1-0.1,0.1h-1.6c-0.1,0-0.1,0-0.1-0.1V82.7c0,0,0.1-0.1,0.1-0.1h1.6
		C214,82.6,214.1,82.6,214.1,82.7z"/>
	<path class="st1" d="M213.2,102.2L213.2,102.2c-0.4-0.1-0.5-0.5-0.3-0.8l4.4-5c0.2-0.2,0.5-0.3,0.8-0.2l0,0
		c0.4,0.1,0.5,0.5,0.3,0.8l-4.4,5C213.8,102.2,213.4,102.3,213.2,102.2z"/>
	<path class="st1" d="M213.3,106.1L213.3,106.1c-0.2,0.1-0.5,0.1-0.7-0.1l-4.6-3.6c-0.3-0.2-0.2-0.6,0.1-0.8l0,0
		c0.2-0.1,0.5-0.1,0.7,0.1l4.6,3.6C213.7,105.6,213.6,106,213.3,106.1z"/>
	<path class="st1" d="M217.7,108.4l-3.8,2.4l-0.4,0.3c-0.2,0.1-0.6,0.1-0.8,0l0,0c-0.1-0.1-0.1-0.1-0.1-0.2v-0.3
		c0-0.1,0.1-0.2,0.1-0.2l1.3-0.8l3.2-2c0,0,0.1,0,0.1,0l0.5,0.3C217.9,108.1,217.9,108.3,217.7,108.4z"/>
	<path class="st0" d="M224.2,93.1c0,20.8-5,22.7-11.1,22.7s-11.1-1.9-11.1-22.7c0-20.8,11.1-37.4,11.1-37.4S224.2,72.3,224.2,93.1z"
		/>
</g>
<g>
	<path class="st0" d="M774.4,77.6c0,16.3-6.5,22.7-14.5,22.7c-8,0-14.5-6.5-14.5-22.7c0-16.3,14.5-36.2,14.5-36.2
		S774.4,61.3,774.4,77.6z"/>
	<path class="st1" d="M760.8,59v48.8c0,0.1-0.1,0.1-0.1,0.1h-1.5c-0.1,0-0.1,0-0.1-0.1V59c0-0.1,0.1-0.1,0.1-0.1h1.5
		C760.8,58.9,760.8,58.9,760.8,59z"/>
	<path class="st1" d="M759.9,83.4L759.9,83.4c-0.5-0.2-0.7-0.7-0.3-1l5.5-6.2c0.2-0.2,0.6-0.3,1-0.2l0,0c0.5,0.2,0.7,0.7,0.3,1
		l-5.5,6.2C760.7,83.4,760.3,83.5,759.9,83.4z"/>
	<path class="st1" d="M760.1,88.3L760.1,88.3c-0.3,0.1-0.7,0.1-0.9-0.1l-5.7-4.5c-0.4-0.3-0.3-0.8,0.1-1l0,0
		c0.3-0.1,0.7-0.1,0.9,0.1l5.7,4.5C760.6,87.5,760.5,88,760.1,88.3z"/>
	<path class="st1" d="M765.6,91.1l-4.8,3l-0.5,0.3c-0.3,0.2-0.8,0.2-1.1,0l0,0c-0.1-0.1-0.2-0.2-0.2-0.3v-0.3c0-0.1,0.1-0.2,0.2-0.3
		l1.6-1l4-2.5c0,0,0.1,0,0.2,0l0.6,0.4C765.9,90.7,765.9,90.9,765.6,91.1z"/>
</g>
<g>
	<path class="st0" d="M754.7,56.6c0,29.4-7,32-15.6,32s-15.6-2.7-15.6-32s15.6-52.8,15.6-52.8S754.7,27.2,754.7,56.6z"/>
	<path class="st1" d="M740.1,41.9v55.2c0,0.1-0.1,0.1-0.1,0.1h-1.7c-0.1,0-0.1-0.1-0.1-0.1V41.9c0-0.1,0.1-0.1,0.1-0.1h1.7
		C740,41.8,740.1,41.8,740.1,41.9z"/>
	<path class="st1" d="M739.1,69.4L739.1,69.4c-0.5-0.2-0.7-0.7-0.4-1.1l6.2-7c0.2-0.3,0.7-0.4,1.1-0.3l0,0c0.5,0.2,0.7,0.7,0.4,1.1
		l-6.2,7C739.9,69.5,739.5,69.6,739.1,69.4z"/>
	<path class="st1" d="M739.2,75L739.2,75c-0.3,0.2-0.8,0.1-1-0.1l-6.5-5.1c-0.4-0.3-0.3-0.9,0.2-1.1l0,0c0.3-0.2,0.8-0.1,1,0.1
		l6.5,5.1C739.8,74.2,739.7,74.7,739.2,75z"/>
	<path class="st1" d="M745.5,78.2l-5.4,3.4l-0.6,0.4c-0.3,0.2-0.9,0.2-1.2,0l0,0c-0.1-0.1-0.2-0.2-0.2-0.3v-0.4
		c0-0.1,0.1-0.2,0.2-0.3l1.8-1.1l4.5-2.8c0.1,0,0.1,0,0.2,0l0.7,0.4C745.8,77.7,745.8,78,745.5,78.2z"/>
</g>
</svg>
