<?xml version="1.0" encoding="utf-8"?>
<!-- Generator: Adobe Illustrator 24.2.1, SVG Export Plug-In . SVG Version: 6.00 Build 0)  -->
<svg version="1.1" id="圖層_1" xmlns="http://www.w3.org/2000/svg" xmlns:xlink="http://www.w3.org/1999/xlink" x="0px" y="0px"
	 viewBox="0 0 760 167" style="enable-background:new 0 0 760 167;" xml:space="preserve">
<style type="text/css">
	.st0{fill:#EC92C8;}
	.st1{fill:#00B14D;}
	.st2{fill:#FFC000;}
	.st3{fill:#6ACEBA;}
	.st4{fill:#753242;}
	.st5{fill:#FFAD00;}
	.st6{fill:#C0698E;}
</style>
<g>
	<path class="st0" d="M760,167H501.9c5.9-10.8,32.2-48.8,85.7-34.1c0,0,0.1-0.1,0.4-0.2c5.2-2.8,56.8-29.4,88.9,9.6
		c0,0,33.8-7.1,59.3,3.6C746.6,150.2,755.2,155.1,760,167z"/>
	<path class="st1" d="M187.2,99.8c-3.9-0.1-7.7,0-11.5,0.4c-19,1.6-37.2-9.1-44.5-26.8C113.4,30.3,70.8,0.1,21.2,0.7
		C14.1,0.8,7.1,1.5,0.3,2.8L0,167h282C267.1,128.6,230.5,100.8,187.2,99.8z"/>
	<path class="st2" d="M664.6,167c-3.9-10.1-16-29.2-48.8-14.3c-8.8-9.1-18.2-15.6-27.8-20.1c-47.9-22.3-99.8,6.6-99.8,6.6
		s0.1-5.7-2.2-13.7c-0.1-0.4-0.2-0.7-0.3-1.1c-1-3.4-2.5-7.3-4.6-11.2c-0.1-0.2-0.2-0.4-0.3-0.5c-0.3-0.5-0.5-1-0.8-1.5
		c-0.4-0.7-0.8-1.4-1.3-2.1c-0.8-1.3-1.6-2.5-2.6-3.8c-0.2-0.3-0.5-0.6-0.7-0.9c-1.4-1.9-3-3.8-4.8-5.6c-0.9-1-1.9-2-3-3
		c-10.3-9.6-25.7-18.1-48.8-22.3c-9.5-1.7-20.2-2.7-32.5-2.7c-16.9,0-29.8,3.7-39.6,9.6c-16.8,10.2-24.5,27.1-27.7,43.8
		c-9.7-6.1-21.2-9.7-33.5-9.7c-34.8,0-63.4,17.7-63.4,52.5H664.6z"/>
	<g>
		<path class="st3" d="M193.7,107.5c0,21.1-8.1,29.5-18.2,29.5c-10,0-18.2-8.4-18.2-29.5s18.2-47.1,18.2-47.1
			S193.7,86.4,193.7,107.5z"/>
		<path class="st4" d="M176.9,94.5v54.6c0,0.1-0.1,0.1-0.2,0.1h-2.2c-0.1,0-0.2-0.1-0.2-0.1V94.5c0-0.1,0.1-0.1,0.2-0.1h2.2
			C176.8,94.4,176.9,94.5,176.9,94.5z"/>
		<path class="st4" d="M176.1,110.1l-1.4-0.5c-0.3-0.1-0.3-0.4-0.2-0.6l8.8-11c0.1-0.2,0.4-0.2,0.6-0.1l1.4,0.5
			c0.3,0.1,0.3,0.4,0.2,0.6l-8.8,11C176.5,110.1,176.3,110.2,176.1,110.1z"/>
		<path class="st4" d="M176.6,117.3l-1.2,0.7c-0.2,0.1-0.4,0.1-0.6-0.1l-9.3-8.1c-0.2-0.2-0.2-0.5,0.1-0.6l1.2-0.7
			c0.2-0.1,0.4-0.1,0.6,0.1l9.3,8.1C176.9,116.9,176.8,117.2,176.6,117.3z"/>
		<path class="st4" d="M184.4,121.9l-7.5,5.2l-1.4,1c-0.1,0-0.2,0-0.2,0l-0.9-0.6v-1.1l2.5-1.7l5.8-4c0.1,0,0.2,0,0.2,0l1.5,1.1
			C184.5,121.8,184.5,121.9,184.4,121.9z"/>
	</g>
	<g>
		<path class="st5" d="M735.4,134.2c0,20.8-5,22.7-11.1,22.7s-11.1-1.9-11.1-22.7c0-20.8,11.1-37.4,11.1-37.4
			S735.4,113.3,735.4,134.2z"/>
		<path class="st6" d="M725.3,123.7v39.2c0,0-0.1,0.1-0.1,0.1h-1.6c-0.1,0-0.1,0-0.1-0.1v-39.2c0,0,0.1-0.1,0.1-0.1h1.6
			C725.2,123.6,725.3,123.7,725.3,123.7z"/>
		<path class="st6" d="M724.3,143.3L724.3,143.3c-0.4-0.1-0.5-0.5-0.3-0.8l4.4-5c0.2-0.2,0.5-0.3,0.8-0.2l0,0
			c0.4,0.1,0.5,0.5,0.3,0.8l-4.4,5C724.9,143.3,724.6,143.4,724.3,143.3z"/>
		<path class="st6" d="M724.4,147.2L724.4,147.2c-0.2,0.1-0.5,0.1-0.7-0.1l-4.6-3.6c-0.3-0.2-0.2-0.6,0.1-0.8l0,0
			c0.2-0.1,0.5-0.1,0.7,0.1l4.6,3.6C724.8,146.6,724.8,147,724.4,147.2z"/>
		<path class="st6" d="M728.9,149.5l-3.8,2.4l-0.4,0.3c-0.2,0.1-0.6,0.1-0.8,0l0,0c-0.1-0.1-0.1-0.1-0.1-0.2v-0.3
			c0-0.1,0.1-0.2,0.1-0.2l1.3-0.8l3.2-2c0,0,0.1,0,0.1,0l0.5,0.3C729.1,149.1,729.1,149.4,728.9,149.5z"/>
	</g>
</g>
</svg>
