<?xml version="1.0" encoding="utf-8"?>
<!-- Generator: Adobe Illustrator 24.2.1, SVG Export Plug-In . SVG Version: 6.00 Build 0)  -->
<svg version="1.1" id="header" xmlns="http://www.w3.org/2000/svg" xmlns:xlink="http://www.w3.org/1999/xlink" x="0px" y="0px"
	 viewBox="0 0 802 454.6" style="enable-background:new 0 0 802 454.6;" xml:space="preserve">
<style type="text/css">
	.st0{fill:#27AE58;}
	.st1{fill:#C8D6FA;}
</style>
<g>
	<path class="st0" d="M133.9,265l-0.3,189.7h127h6.6h183.6c0,0,0,0,0,0c0,0,0,0,0,0H668l0.3-189.7c0-3.4-0.1-6.9-0.2-10.3
		c-0.1-1.5-0.1-3-0.2-4.5c-0.1-1-0.1-2-0.2-3c0-0.3,0-0.5-0.1-0.8c-0.8-10.7-2.2-21.3-4.3-31.6c-8.6-42.6-28.1-81.5-55.5-113.8
		c-1.5-1.7-3-3.5-4.5-5.1C554.4,41,481.9,6.3,401.1,6.3c-36.9,0-72,7.2-104,20.3c-38,15.6-71.6,39.5-98.2,69.3
		c-12,13.4-22.6,28.1-31.6,43.8c-7.9,13.9-14.6,28.5-19.8,43.7c-7.4,21.6-12,44.6-13.2,68.3c-0.1,1.1-0.1,2.1-0.1,3.2
		C134,258.2,133.9,261.6,133.9,265z"/>
	<g>
		<path class="st0" d="M267.5,340.8l-0.3,113.9h183.6c0,0,0,0,0,0c0,0,0,0,0,0h290.1c0,0,0,0,0,0h60.7l0.3-113.9c0-1.7,0-3.3,0-5
			c0-0.8,0-1.6-0.1-2.5c-0.1-4.8-0.4-9.5-0.8-14.2c-0.1-0.8-0.1-1.6-0.2-2.5c-0.3-3.4-0.7-6.7-1.2-10c-0.1-0.8-0.2-1.6-0.3-2.5
			c-0.1-0.5-0.1-1-0.2-1.5c-0.4-2.7-0.9-5.4-1.4-8.1c-0.3-1.5-0.6-3-0.9-4.6c-0.2-0.8-0.3-1.6-0.5-2.5c-2.8-13.1-6.7-25.7-11.4-38
			c-0.3-0.8-0.7-1.7-1-2.5c0-0.1-0.1-0.2-0.1-0.3c-0.3-0.8-0.7-1.6-1-2.4c-5-12-10.9-23.6-17.6-34.7
			c-28.3-46.5-71.3-83.7-122.7-105.7c0,0,0,0,0,0c-12.5-5.3-25.6-9.8-39-13.2c-8.2-2.1-16.5-3.8-25-5.2c-14.2-2.3-28.8-3.4-43.6-3.4
			c-36.9,0-72,7.2-104,20.3c-10.2,4.2-20.1,9-29.6,14.3c-26.5,14.8-50.1,33.9-69.8,56.3c-11.6,13.2-21.9,27.5-30.6,42.7
			c-3.2,5.6-6.2,11.4-9,17.3c-3,6.3-5.7,12.7-8.2,19.3c-2.2,5.8-4.1,11.6-5.9,17.6c-1.9,6.5-3.6,13.2-5,19.9
			c-0.6,3.1-1.2,6.2-1.7,9.3c-0.6,3.3-1,6.6-1.5,10c-0.5,4.3-1,8.6-1.3,13c-0.2,3.1-0.4,6.2-0.5,9.4c-0.1,1.8-0.1,3.7-0.1,5.5
			C267.5,338.1,267.5,339.4,267.5,340.8z"/>
		<path class="st0" d="M0.3,340.8L0,454.6h133.6h127h6.6h183.6c0,0,0,0,0,0c0,0,0,0,0,0h83.6l0.3-113.9c0-11-0.7-21.9-2.1-32.6
			c-0.4-2.8-0.8-5.6-1.2-8.3c-1-5.9-2.2-11.8-3.5-17.6c-4.5-18.7-11.1-36.7-19.5-53.7c-1.6-3.2-3.3-6.4-5-9.5
			c-0.1-0.1-0.2-0.3-0.2-0.4c-0.7-1.3-1.5-2.6-2.2-3.9c-3.5-6.1-7.3-12-11.2-17.7c-0.6-0.9-1.2-1.8-1.9-2.7
			c-15.3-21.5-33.8-40.6-54.9-56.7c-10-7.7-20.6-14.6-31.8-20.9C361.8,94.6,316.2,82,267.5,82c-5.5,0-10.9,0.2-16.3,0.5
			c-18,1-35.5,3.8-52.4,8.1c-12.2,3.1-24,7-35.4,11.7c-50,20.5-92.2,55.2-121.1,99c-7.1,10.7-13.4,22-18.8,33.7
			c-2.1,4.6-4.1,9.2-6,14c-1.1,2.9-2.2,5.9-3.3,8.9c-1.2,3.4-2.3,6.9-3.4,10.4c-3.1,10.2-5.5,20.7-7.3,31.3
			c-1.4,8.4-2.4,16.9-2.9,25.5c0,0.3,0,0.6,0,0.9C0.5,330.9,0.3,335.8,0.3,340.8z"/>
	</g>
	<path class="st1" d="M603.9,89.6C554.9,34.7,482.5,0,401.7,0c-36.9,0-72,7.2-104,20.3c-38,15.6-71.6,39.5-98.2,69.3
		c-12.2,3.1-24,7-35.4,11.7c-62.2,25.5-112.4,73.1-140,132.7c3,11.2,17,20.2,77.3-50.1c20.3-23.8,43.3-39.8,66.5-50.6
		c73.5-34,149-14.3,149-14.3C284.6,98.9,241,93.2,241,93.2c3.2-4.1,6.9-8,10.8-11.7c20.5-19.3,47-31.5,47-31.5
		c163-75.3,279.4,33.8,280.1,34.5c0,0,0,0,0,0c-37.5,1.3-60.6,23.1-60.6,23.1c30.9-16.4,65.2-16.3,90.1-12.8
		c20,2.8,33.8,7.8,34.5,8.1C630.4,97.5,617.4,93.1,603.9,89.6z"/>
</g>
</svg>
