<?xml version="1.0" encoding="utf-8"?>
<!-- Generator: Adobe Illustrator 24.2.1, SVG Export Plug-In . SVG Version: 6.00 Build 0)  -->
<svg version="1.1" id="圖層_1" xmlns="http://www.w3.org/2000/svg" xmlns:xlink="http://www.w3.org/1999/xlink" x="0px" y="0px"
	 viewBox="0 0 182 34" style="enable-background:new 0 0 182 34;" xml:space="preserve">
<style type="text/css">
	.st0{fill:#251714;}
	.st1{fill:#009138;}
	.st2{fill:url(#SVGID_1_);}
	.st3{fill:url(#SVGID_2_);}
</style>
<g>
	<path class="st0" d="M58.3,30.7c-1.4,0-2.1-0.9-2.1-2.4c0-1.5,0.6-2.6,2.1-2.6c0.5,0,0.9,0.1,1.4,0.2l0.2-0.9
		c-0.5-0.1-1-0.2-1.6-0.2c-2.5,0-3.2,1.7-3.2,3.5c0,1.8,0.7,3.3,3.2,3.3c0.5,0,1.1-0.1,1.6-0.2l-0.1-1
		C59.2,30.6,58.8,30.7,58.3,30.7z M64.5,30V28c0-1.1-0.4-1.7-1.7-1.7c-0.6,0-1.3,0.1-1.8,0.4l0.2,0.9c0.5-0.2,1-0.4,1.5-0.4
		c0.8,0,0.9,0.3,0.9,0.8v0.3c-2.3,0.1-3,0.5-3,1.7c0,0.4,0.2,0.8,0.5,1.1c0.3,0.3,0.7,0.4,1.2,0.4c0.6,0,1.2-0.3,1.5-0.8
		c0,0.3,0.1,0.6,0.3,0.8l0.9-0.2C64.6,31,64.5,30.5,64.5,30z M63.6,29.9c-0.1,0.5-0.6,0.9-1.2,0.9c-0.3,0-0.9-0.1-0.9-0.7
		c0-0.6,0.5-0.7,2-0.9C63.6,29.1,63.6,29.9,63.6,29.9z M67.1,25.2l-1,0.3v1.1h-0.8v0.9h0.8v3c0,0.9,0.5,1.2,1.4,1.2H68v-0.7h-0.3
		c-0.4,0-0.6-0.2-0.6-0.7v-2.7h1v-0.8h-1L67.1,25.2z M71.6,26.4c-0.6,0-1.1,0.2-1.5,0.6v-2.5L69,24.7v6.8h1v-3.7
		c0.3-0.3,0.8-0.5,1.2-0.6c0.7,0,0.9,0.5,0.9,1.1v3.1h1v-3.4C73.2,27.2,72.9,26.4,71.6,26.4L71.6,26.4z M78.2,30V28
		c0-1.1-0.4-1.7-1.7-1.7c-0.6,0-1.3,0.1-1.8,0.4l0.2,0.9c0.5-0.2,1-0.4,1.5-0.4c0.8,0,0.9,0.3,0.9,0.8v0.3c-2.4,0.1-3,0.5-3,1.7
		c0,0.4,0.1,0.8,0.4,1.1c0.3,0.3,0.7,0.5,1.1,0.4c0.6,0,1.2-0.3,1.5-0.8c0,0.3,0.2,0.6,0.3,0.8l0.9-0.2C78.2,31,78.1,30.5,78.2,30
		L78.2,30L78.2,30z M77.2,29.8c-0.1,0.5-0.6,0.9-1.2,0.9c-0.3,0-0.9-0.1-0.9-0.7c0-0.6,0.5-0.7,2-0.9V29.8z M81.3,30L80,26.5h-1.2
		l2,4.7c-0.3,0.7-0.7,1.4-1.2,1.9l1,0.4c0.5-0.7,0.9-1.4,1.2-2.2c0.5-1.3,1.3-3.6,1.7-4.8h-1.1C82.1,27.5,81.6,29,81.3,30L81.3,30
		L81.3,30z M91,29c0,1-0.4,1.7-1.6,1.7c-1.2,0-1.6-0.7-1.6-1.7v-4.1h-1.1v4.4c0,1.5,1.1,2.2,2.6,2.2c1.5,0,2.6-0.7,2.6-2.2v-4.4H91
		L91,29L91,29z M96,26.4c-0.6,0-1.2,0.2-1.6,0.7c0-0.2-0.1-0.4-0.2-0.7l-0.9,0.1c0.1,0.3,0.1,0.7,0.1,1v3.9h1v-3.7
		c0.3-0.3,0.8-0.5,1.2-0.5c0.7,0,0.9,0.5,0.9,1.1v3.1h1v-3.4C97.6,27.2,97.3,26.4,96,26.4L96,26.4L96,26.4z M98.9,31.5h1v-5h-1V31.5
		z M98.9,25.8h1.1v-0.9h-1.1V25.8z M102.6,25.2l-1,0.3v1.1h-0.8v0.8h0.8v3c0,0.9,0.5,1.2,1.4,1.2h0.5v-0.7h-0.3
		c-0.4,0-0.6-0.2-0.6-0.7v-2.7h1v-0.8h-1C102.6,26.6,102.6,25.2,102.6,25.2z M108.5,28.6c0-1.3-0.6-2.2-1.9-2.2
		c-1.6,0-2.4,1.2-2.4,2.7c0,1.5,0.8,2.6,2.5,2.6c0.6,0,1.2-0.1,1.7-0.3l-0.2-0.8c-0.5,0.2-1,0.3-1.5,0.3c-0.4,0.1-0.9-0.1-1.2-0.4
		c-0.3-0.3-0.4-0.7-0.4-1.2h3.3L108.5,28.6z M105.3,28.5c0-0.7,0.5-1.3,1.2-1.3c0.8,0,1.1,0.5,1.1,1.3H105.3z M113.9,29.8v-5.2
		l-1,0.2V27c-0.4-0.4-0.9-0.5-1.4-0.5c-1.6,0-2.1,1.3-2.1,2.7c0,1.5,0.7,2.5,2,2.5c0.6,0,1.2-0.3,1.6-0.8c0,0.3,0.1,0.5,0.2,0.7
		l0.9-0.2C113.9,30.9,113.9,30.3,113.9,29.8L113.9,29.8z M113,29.3c0,0.2,0,0.5-0.1,0.7c-0.2,0.5-0.7,0.8-1.3,0.8
		c-0.8,0-1.1-0.7-1.1-1.7c0-0.9,0.3-1.8,1.2-1.8c0.5,0,0.9,0.2,1.2,0.6c0,0.2,0.1,0.5,0.1,0.7L113,29.3L113,29.3z M121,28
		c0.6-0.2,1.1-0.8,1-1.5c0-1.3-1.1-1.6-2.2-1.6h-1.9v6.6h2c1.3,0,2.3-0.5,2.3-1.9C122.4,28.8,121.8,28.1,121,28L121,28z M119,25.7
		h0.8c0.8,0,1.3,0.3,1.3,0.9c0,0.5-0.4,0.9-0.9,1c0,0,0,0,0,0H119V25.7z M119.9,30.6H119v-2.1h0.9c0.9,0,1.4,0.3,1.4,1.1
		C121.2,30.5,120.6,30.6,119.9,30.6L119.9,30.6L119.9,30.6z M127.1,29.9V28c0-1.1-0.4-1.7-1.7-1.7c-0.6,0-1.3,0.1-1.8,0.4l0.2,0.9
		c0.5-0.2,1-0.4,1.5-0.4c0.8,0,0.9,0.3,0.9,0.8v0.3c-2.3,0.1-3,0.5-3,1.7c0,0.4,0.2,0.8,0.5,1.1c0.3,0.3,0.7,0.4,1.2,0.4
		c0.6,0,1.2-0.3,1.5-0.8c0,0.3,0.1,0.6,0.3,0.8l0.9-0.2C127.2,31,127.1,30.5,127.1,29.9L127.1,29.9L127.1,29.9z M126.2,29.8
		c-0.1,0.5-0.6,0.9-1.2,0.9c-0.3,0-0.9-0.1-0.9-0.7c0-0.6,0.5-0.7,2-0.9L126.2,29.8L126.2,29.8z M131.1,26.4c-0.6,0-1.2,0.2-1.6,0.7
		c0-0.2-0.1-0.4-0.2-0.7l-0.9,0.1c0.1,0.3,0.1,0.7,0.1,1v3.9h1v-3.6c0.3-0.3,0.8-0.5,1.2-0.5c0.7,0,0.9,0.5,0.9,1.1v3.1h1v-3.4
		C132.7,27.2,132.4,26.4,131.1,26.4L131.1,26.4L131.1,26.4z M136.1,28.9l2-2.4H137l-1.9,2.5v-4.4l-1,0.2v6.8h1V29l1.9,2.4h1.2
		C138.2,31.5,136.1,28.9,136.1,28.9z M143.7,14.9h1.1c0,0,0,0,0,0l-0.2-3.2c0-0.1-0.1-0.2-0.2-0.2h-1.3c-0.1,0-0.1,0.1-0.1,0.1
		c0,0,0,0,0,0l0.5,3.2C143.6,14.9,143.6,14.9,143.7,14.9L143.7,14.9z M149.7,11.5h-1.3c-0.1,0-0.2,0.1-0.2,0.2l-0.2,3.2h1.1
		c0.1,0,0.1-0.1,0.1-0.1L149.7,11.5C149.7,11.5,149.7,11.5,149.7,11.5L149.7,11.5z M147.9,1.8H145c-0.3,0-0.5,0.2-0.5,0.4
		c0,0.1-0.1,0.2-0.1,0.3c-0.5,1.3-1.2,2.4-2.1,3.4v0.9c0,0.1,0.1,0.2,0.2,0.2h0.1l0.1,0c1.6-0.9,3-2.2,3.9-3.9
		c0.8,1.5,2,2.7,3.4,3.5l0.1,0h0.1c0.1,0,0.1-0.1,0.2-0.1V5.4c-0.7-0.9-1.2-1.9-1.6-2.9C148.4,2.2,148.3,1.8,147.9,1.8L147.9,1.8z
		 M150,15.3c-0.9,0.2-1.8,0.5-2.7,0.6v-5.4h2.5c0.1,0,0.2-0.1,0.2-0.2V9.6c0-0.1-0.1-0.2-0.2-0.2c0,0,0,0,0,0h-2.5V7.7h1.9
		c0.1,0,0.2-0.1,0.2-0.2V6.8c0-0.1-0.1-0.2-0.2-0.2c0,0,0,0,0,0h-5.5c-0.1,0-0.2,0.1-0.2,0.2c0,0,0,0,0,0v0.7c0,0.1,0.1,0.2,0.2,0.2
		c0,0,0,0,0,0h1.9v1.6h-2.5c-0.1,0-0.2,0.1-0.2,0.2v0.7c0,0.1,0.1,0.2,0.2,0.2c0,0,0,0,0,0h2.5v5.6c-1,0.2-2.1,0.3-3.1,0.3
		c-0.1,0-0.2,0.1-0.2,0.2v1.1c0,0.1,0.1,0.2,0.2,0.2c2.5-0.2,5.1-0.8,7.4-1.7c0.1,0,0.1-0.1,0.2-0.2L150,15.3
		C150.1,15.3,150.1,15.2,150,15.3C150,15.2,150,15.2,150,15.3C150,15.2,150,15.2,150,15.3L150,15.3L150,15.3z M157.9,14.3
		c0.5-1.1,0.9-2.2,1.2-3.4c0.1-0.4-0.2-0.3-0.2-0.3h-1.3c-0.1,0.8-0.3,1.6-0.5,2.3c-0.6-1-1-2-1.2-3.1h3.1c0.1,0,0.2-0.1,0.2-0.2
		c0,0,0,0,0,0v-7c0-0.5-0.4-0.9-0.9-0.9c0,0,0,0-0.1,0h-7.2c-0.1,0-0.2,0.1-0.2,0.2v15.8c0,0.1,0.1,0.2,0.2,0.2
		c1.5-0.2,3.1-0.5,4.5-1c0.1,0,0.1-0.1,0.1-0.2v-1c0,0,0-0.1-0.1,0c-1.1,0.2-2.2,0.4-3.1,0.5V9.9h1.2c0.9,3.4,3.1,6.4,6.2,8.2h0.1
		c0.1,0,0.2-0.1,0.2-0.2v-1.3C159.4,15.9,158.6,15.2,157.9,14.3L157.9,14.3L157.9,14.3z M152.6,3.2h4.8v2h-4.8V3.2z M152.6,8.6v-2
		h4.8v2L152.6,8.6z M116.3,6.3h-2.4V3c0-0.5-0.4-1-0.9-1h-1c-0.1,0-0.2,0.1-0.2,0.2v4.2h-3.6V2.2c0-0.1-0.1-0.2-0.2-0.2c0,0,0,0,0,0
		h-1c-0.5,0-1,0.4-1,1v3.4h-3.2V2.6c0-0.1-0.1-0.2-0.2-0.2c0,0,0,0,0,0h-1c-0.5,0-1,0.4-1,1v2.9h-1.7c-0.1,0-0.2,0.1-0.2,0.2v1
		c0,0.1,0.1,0.2,0.2,0.2c0,0,0,0,0,0h1.7v9.4c0,0.5,0.4,1,1,1h14.2c0.1,0,0.2-0.1,0.2-0.2c0,0,0,0,0,0V17c0-0.1-0.1-0.2-0.2-0.2
		c0,0,0,0,0,0h-12.9V7.7h3.2v5c0,0.5,0.4,1,1,1h6.2c0.5,0,1-0.4,1-1v-5h2.4c0.1,0,0.2-0.1,0.2-0.2v-1C116.5,6.4,116.4,6.3,116.3,6.3
		C116.3,6.3,116.3,6.3,116.3,6.3L116.3,6.3z M111.6,12.3h-3.6V7.7h3.7L111.6,12.3z M170.2,5.7h-1.9c-1,1.5-2.4,2.7-4.1,3.3
		c0,0-0.1,0.1-0.1,0.1V10c0,0-0.1,0.4,0.3,0.3c0.6-0.2,1.2-0.4,1.7-0.7v7.5c0,0.5,0.4,1,1,1h1c0.1,0,0.2-0.1,0.2-0.2V8.1
		c0.7-0.7,1.4-1.4,1.9-2.2C170.5,5.7,170.2,5.7,170.2,5.7L170.2,5.7z M170.2,1.8h-1.9c-1,1.5-2.4,2.7-4.1,3.3c0,0-0.1,0-0.1,0.1v0.9
		c0,0-0.1,0.4,0.3,0.3c2.4-0.7,4.5-2.2,5.9-4.4C170.5,1.8,170.2,1.8,170.2,1.8L170.2,1.8L170.2,1.8z M172.2,3.7h8.9
		c0.1,0,0.2-0.1,0.2-0.2v-1c0-0.1-0.1-0.2-0.2-0.2c0,0,0,0,0,0h-8.9c-0.1,0-0.2,0.1-0.2,0.2v1C172,3.7,172.1,3.7,172.2,3.7
		L172.2,3.7z M181.8,6.9h-10.8c-0.1,0-0.2,0.1-0.2,0.2v1c0,0.1,0.1,0.2,0.2,0.2c0,0,0,0,0,0h6.2v7.9c0,0.5-0.1,0.7-0.9,0.7h-0.8
		c-0.1,0-0.1,0-0.1,0.1v1c0,0.1,0.1,0.2,0.2,0.2h1.7c1.6,0,2.2-0.4,2.2-1.9V8.3h2.3c0.1,0,0.2-0.1,0.2-0.2v-1
		C182,7,181.9,6.9,181.8,6.9L181.8,6.9L181.8,6.9z M64.4,12.7v0.8c0,0.1,0,0.1-0.1,0.2c-1,0.4-2.1,0.8-3.2,1
		c-0.9,0.2-1.9,0.4-2.9,0.5c-0.1,0-0.2-0.1-0.2-0.2v-1.3c0-0.1,0.1-0.2,0.2-0.2c2-0.1,4.1-0.4,6.1-0.9
		C64.3,12.6,64.4,12.6,64.4,12.7C64.4,12.7,64.4,12.7,64.4,12.7z M64.4,8.1v2.7c0,0.5-0.4,1-0.9,1c0,0,0,0,0,0H59c-0.5,0-1-0.4-1-1
		c0,0,0,0,0,0V8.1c0-0.5,0.4-1,0.9-1c0,0,0,0,0,0h4.5C64,7.1,64.4,7.6,64.4,8.1C64.4,8.1,64.4,8.1,64.4,8.1z M62.3,8.1h-2.1v2.7h2.1
		V8.1z M64.4,8.1v2.7c0,0.5-0.4,1-0.9,1c0,0,0,0,0,0H59c-0.5,0-1-0.4-1-1c0,0,0,0,0,0V8.1c0-0.5,0.4-1,0.9-1c0,0,0,0,0,0h4.5
		C64,7.1,64.4,7.6,64.4,8.1C64.4,8.1,64.4,8.1,64.4,8.1L64.4,8.1z M62.3,8.1h-2.1v2.7h2.1V8.1z M64.4,13.6v-0.8c0-0.1,0-0.1-0.1-0.1
		c0,0,0,0,0,0c-2,0.5-4,0.8-6.1,0.9c-0.1,0-0.2,0.1-0.2,0.2c0,0,0,0,0,0V15c0,0.1,0.1,0.2,0.2,0.2c1-0.1,1.9-0.2,2.9-0.5
		c1.1-0.2,2.2-0.6,3.2-1C64.4,13.7,64.4,13.6,64.4,13.6C64.4,13.6,64.4,13.6,64.4,13.6z M72.6,3.1v14c0,0.5-0.4,1-1,1H56
		c-0.5,0-1-0.4-1-1v-14c0-0.5,0.4-1,1-1h15.7C72.2,2.1,72.6,2.6,72.6,3.1z M66.5,4.9h1.6c-0.1-0.7-0.2-1.2-0.3-1.6h-1.4
		C66.5,3.6,66.5,4.2,66.5,4.9z M57.2,4.9h7.7c-0.1-0.5-0.1-1.1-0.1-1.6h-7.6C57.2,3.3,57.2,4.9,57.2,4.9z M70.4,3.3h-1l0.4,2.2
		c0,0.5-0.4,0.5-0.4,0.5h-2.9c0.1,1.6,0.5,3.2,0.9,4.7c0.3-0.6,0.6-1.1,0.8-1.7C68.4,9,68.5,9,68.5,9c0,0,0,0,0,0l1.1,0.5
		c0,0,0.1,0,0.1,0.2c-0.5,0.9-1,1.9-1.6,2.7c0.5,1.2,1.2,2.2,2,3.2c0,0,0,0.1,0,0.1c0,0,0,0,0,0l-0.5,0.6c0,0-0.1,0.1-0.2,0
		c0,0,0,0,0,0c-0.9-0.8-1.6-1.7-2.1-2.8c-0.8,1-1.9,1.9-3,2.6c-0.1,0.1-0.2-0.1-0.2-0.1l-0.3-0.7c0,0-0.1-0.1,0-0.2
		c1.1-0.8,2.1-1.8,2.9-3c-0.8-2-1.4-4-1.6-6.2h-7.8v10.9h13.2C70.4,16.9,70.4,3.3,70.4,3.3z M64.4,8.1v2.7c0,0.5-0.4,1-0.9,1
		c0,0,0,0,0,0H59c-0.5,0-1-0.4-1-1c0,0,0,0,0,0V8.1c0-0.5,0.4-1,0.9-1c0,0,0,0,0,0h4.5C64,7.1,64.4,7.6,64.4,8.1
		C64.4,8.1,64.4,8.1,64.4,8.1L64.4,8.1z M62.3,8.1h-2.1v2.7h2.1V8.1z M64.3,12.6c-2,0.5-4,0.8-6.1,0.9c-0.1,0-0.2,0.1-0.2,0.2
		c0,0,0,0,0,0V15c0,0.1,0.1,0.2,0.2,0.2c1-0.1,1.9-0.2,2.9-0.5c1.1-0.2,2.2-0.6,3.2-1c0.1,0,0.1-0.1,0.1-0.2v-0.8
		C64.4,12.7,64.4,12.6,64.3,12.6C64.3,12.6,64.3,12.6,64.3,12.6L64.3,12.6z M85.9,10.7h-1c-0.1,0-0.2,0.1-0.2,0.2v5.2
		c0,0.5-0.1,0.7-0.9,0.7h-0.5c-0.1,0-0.1,0.1-0.1,0.1v0.8c0,0.1,0.1,0.3,0.3,0.3h0.8c1.9,0,2.5-0.3,2.5-1.9v-4.5
		C86.9,11.2,86.4,10.7,85.9,10.7z M94.5,8.5H83.3C83.7,8,84,7.5,84.4,7h8c0.1,0,0.2-0.1,0.2-0.2v-1c0-0.1-0.1-0.2-0.2-0.2h0h-7.2
		c0.3-0.5,0.6-1.1,0.8-1.5h7.8C93.9,4.2,94,4.1,94,4V3c0-0.1-0.1-0.2-0.2-0.2c0,0,0,0,0,0h-7.2c0.1-0.2,0.1-0.4,0.2-0.5
		c0-0.1,0.1-0.3-0.2-0.4c-0.4-0.1-1.3-0.3-1.5-0.3c-0.2-0.1-0.3,0-0.4,0.2c0,0,0,0,0,0.1l-0.1,0.5c0,0.1-0.1,0.3-0.2,0.5h-6.5
		c-0.1,0-0.2,0.1-0.2,0.2v0v1c0,0.1,0.1,0.2,0.2,0.2h5.9c-0.2,0.5-0.5,1-0.7,1.5h-3.8c-0.1,0-0.2,0.1-0.2,0.2v0v1
		c0,0.1,0.1,0.2,0.2,0.2h3c-0.3,0.5-0.7,1-1.1,1.5h-4.1c-0.1,0-0.2,0.1-0.2,0.2v1c0,0.1,0.1,0.2,0.2,0.2h2.9
		c-0.8,0.9-1.8,1.6-2.9,2.2c-0.1,0-0.2,0.1-0.2,0.3c0,0,0,0.1,0,0.1l0.2,0.5c0,0.1,0.2,0.2,0.3,0.1c0,0,0,0,0,0c0.7-0.2,1.3-0.6,2-1
		c1.2,0.3,2.4,0.8,3.6,1.3c0.1,0.1,0.2,0,0.2,0l0.5-1.1c0-0.1,0-0.1,0-0.2c0,0,0,0,0,0c-1-0.4-2-0.7-3-0.9c0.5-0.4,1-0.8,1.4-1.3h7
		c0.4,0.4,0.9,0.9,1.4,1.2c-0.9,0.4-1.9,0.6-2.9,0.7c-0.1,0-0.1,0.1-0.1,0.2c0.1,0.4,0.2,0.7,0.3,1.2c0,0.1,0.1,0.1,0.2,0.1
		c1.3-0.3,2.5-0.8,3.6-1.5c0.8,0.5,1.6,0.9,2.4,1.2c0.1,0.1,0.3,0,0.3-0.1c0,0,0,0,0,0l0.2-0.5c0.1-0.1,0-0.3-0.1-0.3c0,0,0,0-0.1,0
		c-1.2-0.6-2.3-1.3-3.3-2.2h3.3c0.1,0,0.2-0.1,0.2-0.2V8.7C94.6,8.6,94.6,8.5,94.5,8.5C94.5,8.5,94.5,8.5,94.5,8.5z M84,15
		c-0.1-0.4-0.1-0.3-0.1-0.7c0-0.1-0.1-0.1-0.1-0.1c0,0,0,0,0,0c-1.8,0.8-3.6,1.5-5.5,1.9c-0.1,0-0.1,0.1-0.1,0.2c0,0,0,0,0,0.1
		l0.5,1.2c0.1,0.1,0.2,0.2,0.3,0.1c1.7-0.6,3.4-1.4,5-2.4C84,15.1,84,15.1,84,15L84,15z M93.2,16.2c-1.7-0.8-3.4-1.4-5.2-1.8
		c-0.2-0.1-0.2,0.1-0.2,0.1l-0.3,0.7c0,0-0.1,0.1,0.1,0.2c1.5,0.6,3.1,1.3,4.5,2.2c0.2,0.1,0.3,0,0.4-0.1c0.3-0.4,0.4-0.6,0.7-1
		C93.3,16.4,93.3,16.3,93.2,16.2C93.2,16.2,93.2,16.2,93.2,16.2z M138.2,2.9h-4c-0.1-0.5-0.5-0.9-1-0.9h-0.9c-0.1,0-0.2,0.1-0.2,0.2
		v0.7h-5.4V2.2c0-0.1-0.1-0.2-0.2-0.2l0,0h-0.9c-0.5,0-0.9,0.4-1,0.9h-4c-0.1,0-0.2,0.1-0.2,0.2c0,0,0,0,0,0V4
		c0,0.1,0.1,0.2,0.2,0.2c0,0,0,0,0,0h4v0.7c0,0.1,0.1,0.2,0.2,0.2h1.7c0.1,0,0.2-0.1,0.2-0.2V4.1h5.4v0.7c0,0.1,0.1,0.2,0.2,0.2h1.7
		c0.1,0,0.2-0.1,0.2-0.2V4.1h4c0.1,0,0.2-0.1,0.2-0.2V3C138.4,2.9,138.3,2.9,138.2,2.9C138.2,2.9,138.2,2.9,138.2,2.9L138.2,2.9z
		 M138.2,10c0.1,0,0.2-0.1,0.2-0.2V8.9c0-0.1-0.1-0.2-0.2-0.2c0,0,0,0,0,0h-2.9V7.1h1.6c0.1,0,0.2-0.1,0.2-0.2V6
		c0-0.1-0.1-0.2-0.2-0.2h-15c-0.1,0-0.2,0.1-0.2,0.2v0.9c0,0.1,0.1,0.2,0.2,0.2h1.6v1.7h-2.9c-0.1,0-0.2,0.1-0.2,0.2v0.9
		c0,0.1,0.1,0.2,0.2,0.2h2.9v1.7h-1.6c-0.1,0-0.2,0.1-0.2,0.2c0,0,0,0,0,0v0.9c0,0.1,0.1,0.2,0.2,0.2h6.5v1.7h-7.8
		c-0.1,0-0.2,0.1-0.2,0.2v0.9c0,0.1,0.1,0.2,0.2,0.2h7.8v1.2c0,0.5,0.4,1,1,1h0.9c0.1,0,0.2-0.1,0.2-0.2v-1.9h7.8
		c0.1,0,0.2-0.1,0.2-0.2v-0.9c0-0.1-0.1-0.2-0.2-0.2h-7.8V13h6.4c0.1,0,0.2-0.1,0.2-0.2v-0.9c0-0.1-0.1-0.2-0.2-0.2h-1.6V10
		L138.2,10L138.2,10z M128.3,11.7h-2.7V10h2.7L128.3,11.7L128.3,11.7z M128.3,8.8h-2.7V7.1h2.7L128.3,8.8L128.3,8.8z M133.1,11.7
		h-2.7V10h2.7V11.7z M133.1,8.8h-2.7V7.1h2.7V8.8z"/>
	<path class="st1" d="M40.6,14.3c-0.7-0.7-1.1-1.6-1.3-2.5c-0.2-2.3-1.7-4.2-3.9-4.9c-0.1,0-0.3-0.1-0.4-0.2
		c-0.8-0.3-1.4-0.9-1.8-1.6c-1.2-2.1-3.5-3.3-5.9-3c-1,0.1-1.9-0.1-2.8-0.6c-2-1.4-4.7-1.4-6.7,0c-0.8,0.5-1.8,0.7-2.8,0.6
		c-2.4-0.3-4.7,0.9-5.9,3C8.8,5.9,8,6.6,7.1,6.9c-2.2,0.7-3.7,2.6-3.9,4.9c-0.1,1-0.6,1.8-1.3,2.5C0.7,15.5,0,17.1,0,18.9v0.1
		c0,3.5,2.9,6.3,6.4,6.3h9.2c0.9,0,1.6,0.7,1.6,1.6v0.4c0,0.8-0.6,1.5-1.4,1.7l-7.4,1.3c-0.3,0-0.5,0.2-0.5,0.5v0.9h27.1v-0.9
		c0-0.3-0.2-0.5-0.5-0.5l-7.5-1.3c-0.8-0.1-1.4-0.8-1.4-1.7v-0.4c0-0.9,0.7-1.6,1.6-1.6h9.2c3.5,0,6.4-2.8,6.4-6.4
		C42.6,17.1,41.9,15.5,40.6,14.3L40.6,14.3z"/>
	
		<linearGradient id="SVGID_1_" gradientUnits="userSpaceOnUse" x1="-336.3717" y1="34.4745" x2="-336.8677" y2="33.3155" gradientTransform="matrix(40.7692 0 0 -21.4818 13740.2529 739.7971)">
		<stop  offset="0" style="stop-color:#52BB00"/>
		<stop  offset="0.36" style="stop-color:#00AA14"/>
		<stop  offset="0.79" style="stop-color:#009831"/>
		<stop  offset="1" style="stop-color:#009138"/>
	</linearGradient>
	<path class="st2" d="M13.1,10c7.9-3.5,15.9-4.5,22-3.3c-0.8-0.3-1.4-0.9-1.8-1.6c-1.2-2.1-3.5-3.3-5.9-3c-1,0.1-1.9-0.1-2.8-0.6
		c-2-1.4-4.7-1.4-6.7,0c-0.8,0.5-1.8,0.7-2.8,0.6c-2.4-0.3-4.7,0.9-5.9,3C8.8,5.9,8,6.6,7.1,6.9c-2.2,0.7-3.7,2.6-3.9,4.9
		c-0.1,1-0.6,1.8-1.3,2.5C0.7,15.5,0,17.1,0,18.9v0.1C3.7,15.2,8.2,12.1,13.1,10z"/>
	
		<linearGradient id="SVGID_2_" gradientUnits="userSpaceOnUse" x1="-337.2016" y1="35.048" x2="-337.7303" y2="33.7024" gradientTransform="matrix(45.61 0 0 -22.0605 15412.7549 771.6358)">
		<stop  offset="0" style="stop-color:#00B10D"/>
		<stop  offset="0.22" style="stop-color:#00A623"/>
		<stop  offset="0.51" style="stop-color:#009A30"/>
		<stop  offset="0.78" style="stop-color:#009336"/>
		<stop  offset="1" style="stop-color:#009138"/>
	</linearGradient>
	<path class="st3" d="M20,14.6c6.8-3,13.6-4.2,19.2-3.7c-0.5-1.9-1.9-3.4-3.8-4.1c-0.1,0-0.3-0.1-0.4-0.2c-6.1-1.3-14.1-0.2-22,3.3
		C8.2,12.1,3.7,15.2,0,18.9c0,3.2,2.4,5.8,5.5,6.2C9.5,20.6,14.4,17,20,14.6z"/>
	<path class="st1" d="M40.6,14.3c-0.7-0.7-1.1-1.6-1.3-2.5c0-0.3-0.1-0.6-0.1-0.9c-5.7-0.5-12.5,0.7-19.2,3.7
		c-5.6,2.4-10.5,6-14.5,10.6c0.3,0,0.6,0.1,0.9,0.1h9.2c0.9,0,1.6,0.7,1.6,1.6v0.4c0,0.8-0.6,1.5-1.4,1.7l-7.4,1.3
		c-0.3,0-0.5,0.2-0.5,0.5v0.9h27.1v-0.9c0-0.3-0.2-0.5-0.5-0.5l-7.5-1.3c-0.8-0.1-1.4-0.8-1.4-1.7v-0.4c0-0.9,0.7-1.6,1.6-1.6h9.2
		c3.5,0,6.4-2.8,6.4-6.4C42.6,17.1,41.9,15.5,40.6,14.3L40.6,14.3z"/>
</g>
</svg>
